Khula-Light.ufo
<glyph name="exclam.deva" format="1">
  <advance width="785"/>
  <unicode hex="0021"/>
  <outline>
    <contour>
      <point x="420" y="339" type="line"/>
      <point x="365" y="339" type="line"/>
      <point x="339" y="1316" type="line"/>
      <point x="446" y="1316" type="line"/>
    </contour>
    <contour>
      <point x="320" y="70" type="curve" smooth="yes"/>
      <point x="320" y="129"/>
      <point x="344" y="158"/>
      <point x="392" y="158" type="curve" smooth="yes"/>
      <point x="441" y="158"/>
      <point x="465" y="129"/>
      <point x="465" y="70" type="curve" smooth="yes"/>
      <point x="465" y="11"/>
      <point x="441" y="-18"/>
      <point x="392" y="-18" type="curve" smooth="yes"/>
      <point x="344" y="-18"/>
      <point x="320" y="11"/>
    </contour>
  </outline>
</glyph>
<glyph name="exclam" format="1">
  <advance width="493"/>
  <unicode hex="0021"/>
  <outline>
    <contour>
      <point x="274" y="339" type="line"/>
      <point x="219" y="339" type="line"/>
      <point x="193" y="1316" type="line"/>
      <point x="300" y="1316" type="line"/>
    </contour>
    <contour>
      <point x="174" y="70" type="curve" smooth="yes"/>
      <point x="174" y="129"/>
      <point x="198" y="158"/>
      <point x="246" y="158" type="curve" smooth="yes"/>
      <point x="295" y="158"/>
      <point x="319" y="129"/>
      <point x="319" y="70" type="curve" smooth="yes"/>
      <point x="319" y="11"/>
      <point x="295" y="-18"/>
      <point x="246" y="-18" type="curve" smooth="yes"/>
      <point x="198" y="-18"/>
      <point x="174" y="11"/>
    </contour>
  </outline>
</glyph>
<glyph name="quotedbl.deva" format="1">
  <advance width="971"/>
  <unicode hex="0022"/>
  <outline>
    <contour>
      <point x="394" y="1316" type="line"/>
      <point x="364" y="841" type="line"/>
      <point x="309" y="841" type="line"/>
      <point x="280" y="1316" type="line"/>
    </contour>
    <contour>
      <point x="691" y="1316" type="line"/>
      <point x="661" y="841" type="line"/>
      <point x="606" y="841" type="line"/>
      <point x="577" y="1316" type="line"/>
    </contour>
  </outline>
</glyph>
<glyph name="quotedbl" format="1">
  <advance width="791"/>
  <unicode hex="0022"/>
  <outline>
    <contour>
      <point x="304" y="1316" type="line"/>
      <point x="274" y="841" type="line"/>
      <point x="219" y="841" type="line"/>
      <point x="190" y="1316" type="line"/>
    </contour>
    <contour>
      <point x="601" y="1316" type="line"/>
      <point x="571" y="841" type="line"/>
      <point x="516" y="841" type="line"/>
      <point x="487" y="1316" type="line"/>
    </contour>
  </outline>
</glyph>
<glyph name="quotesingle" format="1">
  <advance width="494"/>
  <unicode hex="0027"/>
  <outline>
    <contour>
      <point x="304" y="1316" type="line"/>
      <point x="274" y="841" type="line"/>
      <point x="219" y="841" type="line"/>
      <point x="190" y="1316" type="line"/>
    </contour>
  </outline>
</glyph>
<glyph name="parenleft.deva" format="1">
  <advance width="681"/>
  <unicode hex="0028"/>
  <outline>
    <contour>
      <point x="114" y="605" type="curve" smooth="yes"/>
      <point x="114" y="922"/>
      <point x="209" y="1207"/>
      <point x="385" y="1416" type="curve"/>
      <point x="486" y="1416" type="line"/>
      <point x="309" y="1197"/>
      <point x="211" y="914"/>
      <point x="211" y="607" type="curve" smooth="yes"/>
      <point x="211" y="317"/>
      <point x="302" y="51"/>
      <point x="485" y="-192" type="curve"/>
      <point x="385" y="-192" type="line"/>
      <point x="208" y="12"/>
      <point x="114" y="292"/>
    </contour>
  </outline>
</glyph>
<glyph name="parenleft" format="1">
  <advance width="621"/>
  <unicode hex="0028"/>
  <outline>
    <contour>
      <point x="94" y="605" type="curve" smooth="yes"/>
      <point x="94" y="922"/>
      <point x="189" y="1207"/>
      <point x="365" y="1416" type="curve"/>
      <point x="466" y="1416" type="line"/>
      <point x="289" y="1197"/>
      <point x="191" y="914"/>
      <point x="191" y="607" type="curve" smooth="yes"/>
      <point x="191" y="317"/>
      <point x="282" y="51"/>
      <point x="465" y="-192" type="curve"/>
      <point x="365" y="-192" type="line"/>
      <point x="188" y="12"/>
      <point x="94" y="292"/>
    </contour>
  </outline>
</glyph>
<glyph name="comma" format="1">
  <advance width="396"/>
  <unicode hex="002C"/>
  <outline>
    <contour>
      <point x="265" y="214" type="line"/>
      <point x="276" y="195" type="line"/>
      <point x="231" y="36"/>
      <point x="179" y="-108"/>
      <point x="120" y="-238" type="curve"/>
      <point x="61" y="-238" type="line"/>
      <point x="107" y="-73"/>
      <point x="140" y="78"/>
      <point x="160" y="214" type="curve"/>
    </contour>
  </outline>
</glyph>
<glyph name="hyphen" format="1">
  <advance width="593"/>
  <unicode hex="002D"/>
  <outline>
    <contour>
      <point x="83" y="461" type="line"/>
      <point x="83" y="535" type="line"/>
      <point x="510" y="535" type="line"/>
      <point x="510" y="461" type="line"/>
    </contour>
  </outline>
</glyph>
<glyph name="one" format="1">
  <advance width="1052"/>
  <unicode hex="0031"/>
  <outline>
    <contour>
      <point x="614" y="0" type="line"/>
      <point x="526" y="0" type="line"/>
      <point x="526" y="958" type="line" smooth="yes"/>
      <point x="526" y="1045"/>
      <point x="529" y="1136"/>
      <point x="536" y="1229" type="curve"/>
      <point x="508" y="1203" type="line" smooth="yes"/>
      <point x="499" y="1195"/>
      <point x="406" y="1122"/>
      <point x="230" y="985" type="curve"/>
      <point x="179" y="1048" type="line"/>
      <point x="536" y="1316" type="line"/>
      <point x="614" y="1316" type="line"/>
    </contour>
  </outline>
</glyph>
<glyph name="seven" format="1">
  <advance width="1052"/>
  <unicode hex="0037"/>
  <outline>
    <contour>
      <point x="301" y="0" type="line"/>
      <point x="842" y="1229" type="line"/>
      <point x="98" y="1229" type="line"/>
      <point x="98" y="1316" type="line"/>
      <point x="949" y="1316" type="line"/>
      <point x="949" y="1250" type="line"/>
      <point x="406" y="0" type="line"/>
    </contour>
  </outline>
</glyph>
<glyph name="colon.deva" format="1">
  <advance width="666"/>
  <unicode hex="003A"/>
  <outline>
    <contour>
      <point x="260" y="70" type="curve" smooth="yes"/>
      <point x="260" y="129"/>
      <point x="284" y="158"/>
      <point x="332" y="158" type="curve" smooth="yes"/>
      <point x="381" y="158"/>
      <point x="406" y="129"/>
      <point x="406" y="70" type="curve" smooth="yes"/>
      <point x="406" y="11"/>
      <point x="381" y="-18"/>
      <point x="332" y="-18" type="curve" smooth="yes"/>
      <point x="284" y="-18"/>
      <point x="260" y="11"/>
    </contour>
    <contour>
      <point x="260" y="874" type="curve" smooth="yes"/>
      <point x="260" y="933"/>
      <point x="284" y="962"/>
      <point x="332" y="962" type="curve" smooth="yes"/>
      <point x="381" y="962"/>
      <point x="406" y="933"/>
      <point x="406" y="874" type="curve" smooth="yes"/>
      <point x="406" y="810"/>
      <point x="373" y="785"/>
      <point x="332" y="785" type="curve" smooth="yes"/>
      <point x="291" y="785"/>
      <point x="260" y="810"/>
    </contour>
  </outline>
</glyph>
<glyph name="colon" format="1">
  <advance width="458"/>
  <unicode hex="003A"/>
  <outline>
    <contour>
      <point x="166" y="70" type="curve" smooth="yes"/>
      <point x="166" y="129"/>
      <point x="190" y="158"/>
      <point x="238" y="158" type="curve" smooth="yes"/>
      <point x="287" y="158"/>
      <point x="312" y="129"/>
      <point x="312" y="70" type="curve" smooth="yes"/>
      <point x="312" y="11"/>
      <point x="287" y="-18"/>
      <point x="238" y="-18" type="curve" smooth="yes"/>
      <point x="190" y="-18"/>
      <point x="166" y="11"/>
    </contour>
    <contour>
      <point x="166" y="874" type="curve" smooth="yes"/>
      <point x="166" y="933"/>
      <point x="190" y="962"/>
      <point x="238" y="962" type="curve" smooth="yes"/>
      <point x="287" y="962"/>
      <point x="312" y="933"/>
      <point x="312" y="874" type="curve" smooth="yes"/>
      <point x="312" y="810"/>
      <point x="279" y="785"/>
      <point x="238" y="785" type="curve" smooth="yes"/>
      <point x="197" y="785"/>
      <point x="166" y="810"/>
    </contour>
  </outline>
</glyph>
<glyph name="semicolon.deva" format="1">
  <advance width="744"/>
  <unicode hex="003B"/>
  <outline>
    <contour>
      <point x="465" y="214" type="line"/>
      <point x="475" y="195" type="line"/>
      <point x="430" y="36"/>
      <point x="378" y="-108"/>
      <point x="319" y="-238" type="curve"/>
      <point x="260" y="-238" type="line"/>
      <point x="277" y="-179"/>
      <point x="296" y="-105"/>
      <point x="316" y="-16" type="curve" smooth="yes"/>
      <point x="336" y="73"/>
      <point x="350" y="149"/>
      <point x="359" y="214" type="curve"/>
    </contour>
    <contour>
      <point x="338" y="874" type="curve" smooth="yes"/>
      <point x="338" y="933"/>
      <point x="362" y="962"/>
      <point x="410" y="962" type="curve" smooth="yes"/>
      <point x="459" y="962"/>
      <point x="484" y="933"/>
      <point x="484" y="874" type="curve" smooth="yes"/>
      <point x="484" y="810"/>
      <point x="451" y="785"/>
      <point x="410" y="785" type="curve" smooth="yes"/>
      <point x="369" y="785"/>
      <point x="338" y="810"/>
    </contour>
  </outline>
</glyph>
<glyph name="semicolon" format="1">
  <advance width="458"/>
  <unicode hex="003B"/>
  <outline>
    <contour>
      <point x="293" y="214" type="line"/>
      <point x="303" y="195" type="line"/>
      <point x="258" y="36"/>
      <point x="206" y="-108"/>
      <point x="147" y="-238" type="curve"/>
      <point x="88" y="-238" type="line"/>
      <point x="105" y="-179"/>
      <point x="124" y="-105"/>
      <point x="144" y="-16" type="curve" smooth="yes"/>
      <point x="164" y="73"/>
      <point x="178" y="149"/>
      <point x="187" y="214" type="curve"/>
    </contour>
    <contour>
      <point x="166" y="874" type="curve" smooth="yes"/>
      <point x="166" y="933"/>
      <point x="190" y="962"/>
      <point x="238" y="962" type="curve" smooth="yes"/>
      <point x="287" y="962"/>
      <point x="312" y="933"/>
      <point x="312" y="874" type="curve" smooth="yes"/>
      <point x="312" y="810"/>
      <point x="279" y="785"/>
      <point x="238" y="785" type="curve" smooth="yes"/>
      <point x="197" y="785"/>
      <point x="166" y="810"/>
    </contour>
  </outline>
</glyph>
<glyph name="less" format="1">
  <advance width="1052"/>
  <unicode hex="003C"/>
  <outline>
    <contour>
      <point x="953" y="239" type="line"/>
      <point x="100" y="614" type="line"/>
      <point x="100" y="669" type="line"/>
      <point x="953" y="1095" type="line"/>
      <point x="953" y="1010" type="line"/>
      <point x="212" y="645" type="line"/>
      <point x="953" y="326" type="line"/>
    </contour>
  </outline>
</glyph>
<glyph name="equal" format="1">
  <advance width="1052"/>
  <unicode hex="003D"/>
  <outline>
    <contour>
      <point x="100" y="796" type="line"/>
      <point x="100" y="870" type="line"/>
      <point x="953" y="870" type="line"/>
      <point x="953" y="796" type="line"/>
    </contour>
    <contour>
      <point x="100" y="429" type="line"/>
      <point x="100" y="503" type="line"/>
      <point x="953" y="503" type="line"/>
      <point x="953" y="429" type="line"/>
    </contour>
  </outline>
</glyph>
<glyph name="greater" format="1">
  <advance width="1052"/>
  <unicode hex="003E"/>
  <outline>
    <contour>
      <point x="100" y="326" type="line"/>
      <point x="841" y="645" type="line"/>
      <point x="100" y="1010" type="line"/>
      <point x="100" y="1095" type="line"/>
      <point x="953" y="669" type="line"/>
      <point x="953" y="614" type="line"/>
      <point x="100" y="239" type="line"/>
    </contour>
  </outline>
</glyph>
<glyph name="question.deva" format="1">
  <advance width="1128"/>
  <unicode hex="003F"/>
  <outline>
    <contour>
      <point x="463" y="339" type="line"/>
      <point x="463" y="373" type="line" smooth="yes"/>
      <point x="463" y="446"/>
      <point x="474" y="506"/>
      <point x="496" y="553" type="curve" smooth="yes"/>
      <point x="519" y="600"/>
      <point x="560" y="651"/>
      <point x="621" y="704" type="curve" smooth="yes"/>
      <point x="703" y="775" type="line"/>
      <point x="790" y="848"/>
      <point x="824" y="915"/>
      <point x="824" y="1008" type="curve" smooth="yes"/>
      <point x="824" y="1084"/>
      <point x="799" y="1144"/>
      <point x="748" y="1189" type="curve" smooth="yes"/>
      <point x="698" y="1234"/>
      <point x="632" y="1257"/>
      <point x="551" y="1257" type="curve" smooth="yes"/>
      <point x="456" y="1257"/>
      <point x="380" y="1238"/>
      <point x="284" y="1191" type="curve"/>
      <point x="250" y="1263" type="line"/>
      <point x="316" y="1292"/>
      <point x="371" y="1311"/>
      <point x="416" y="1320" type="curve" smooth="yes"/>
      <point x="461" y="1330"/>
      <point x="507" y="1335"/>
      <point x="554" y="1335" type="curve" smooth="yes"/>
      <point x="664" y="1335"/>
      <point x="750" y="1305"/>
      <point x="813" y="1246" type="curve" smooth="yes"/>
      <point x="876" y="1187"/>
      <point x="908" y="1106"/>
      <point x="908" y="1003" type="curve" smooth="yes"/>
      <point x="908" y="839"/>
      <point x="818" y="769"/>
      <point x="684" y="656" type="curve" smooth="yes"/>
      <point x="645" y="623"/>
      <point x="616" y="594"/>
      <point x="595" y="567" type="curve" smooth="yes"/>
      <point x="574" y="540"/>
      <point x="559" y="512"/>
      <point x="550" y="483" type="curve" smooth="yes"/>
      <point x="541" y="454"/>
      <point x="536" y="410"/>
      <point x="536" y="352" type="curve" smooth="yes"/>
      <point x="536" y="339" type="line"/>
    </contour>
    <contour>
      <point x="433" y="70" type="curve" smooth="yes"/>
      <point x="433" y="129"/>
      <point x="457" y="158"/>
      <point x="505" y="158" type="curve" smooth="yes"/>
      <point x="554" y="158"/>
      <point x="579" y="129"/>
      <point x="579" y="70" type="curve" smooth="yes"/>
      <point x="579" y="11"/>
      <point x="554" y="-18"/>
      <point x="505" y="-18" type="curve" smooth="yes"/>
      <point x="457" y="-18"/>
      <point x="433" y="11"/>
    </contour>
  </outline>
</glyph>
<glyph name="question" format="1">
  <advance width="910"/>
  <unicode hex="003F"/>
  <outline>
    <contour>
      <point x="368" y="339" type="line"/>
      <point x="368" y="373" type="line" smooth="yes"/>
      <point x="368" y="446"/>
      <point x="379" y="506"/>
      <point x="401" y="553" type="curve" smooth="yes"/>
      <point x="424" y="600"/>
      <point x="465" y="651"/>
      <point x="526" y="704" type="curve" smooth="yes"/>
      <point x="608" y="775" type="line"/>
      <point x="695" y="848"/>
      <point x="729" y="915"/>
      <point x="729" y="1008" type="curve" smooth="yes"/>
      <point x="729" y="1084"/>
      <point x="704" y="1144"/>
      <point x="653" y="1189" type="curve" smooth="yes"/>
      <point x="603" y="1234"/>
      <point x="537" y="1257"/>
      <point x="456" y="1257" type="curve" smooth="yes"/>
      <point x="361" y="1257"/>
      <point x="285" y="1238"/>
      <point x="189" y="1191" type="curve"/>
      <point x="155" y="1263" type="line"/>
      <point x="221" y="1292"/>
      <point x="276" y="1311"/>
      <point x="321" y="1320" type="curve" smooth="yes"/>
      <point x="366" y="1330"/>
      <point x="412" y="1335"/>
      <point x="459" y="1335" type="curve" smooth="yes"/>
      <point x="569" y="1335"/>
      <point x="655" y="1305"/>
      <point x="718" y="1246" type="curve" smooth="yes"/>
      <point x="781" y="1187"/>
      <point x="813" y="1106"/>
      <point x="813" y="1003" type="curve" smooth="yes"/>
      <point x="813" y="839"/>
      <point x="723" y="769"/>
      <point x="589" y="656" type="curve" smooth="yes"/>
      <point x="550" y="623"/>
      <point x="521" y="594"/>
      <point x="500" y="567" type="curve" smooth="yes"/>
      <point x="479" y="540"/>
      <point x="464" y="512"/>
      <point x="455" y="483" type="curve" smooth="yes"/>
      <point x="446" y="454"/>
      <point x="441" y="410"/>
      <point x="441" y="352" type="curve" smooth="yes"/>
      <point x="441" y="339" type="line"/>
    </contour>
    <contour>
      <point x="338" y="70" type="curve" smooth="yes"/>
      <point x="338" y="129"/>
      <point x="362" y="158"/>
      <point x="410" y="158" type="curve" smooth="yes"/>
      <point x="459" y="158"/>
      <point x="484" y="129"/>
      <point x="484" y="70" type="curve" smooth="yes"/>
      <point x="484" y="11"/>
      <point x="459" y="-18"/>
      <point x="410" y="-18" type="curve" smooth="yes"/>
      <point x="362" y="-18"/>
      <point x="338" y="11"/>
    </contour>
  </outline>
</glyph>
<glyph name="K" format="1">
  <advance width="1071"/>
  <unicode hex="004B"/>
  <outline>
    <contour>
      <point x="1071" y="0" type="line"/>
      <point x="958" y="0" type="line"/>
      <point x="454" y="695" type="line"/>
      <point x="278" y="540" type="line"/>
      <point x="278" y="0" type="line"/>
      <point x="186" y="0" type="line"/>
      <point x="186" y="1316" type="line"/>
      <point x="278" y="1316" type="line"/>
      <point x="278" y="632" type="line"/>
      <point x="424" y="778" type="line"/>
      <point x="940" y="1316" type="line"/>
      <point x="1057" y="1316" type="line"/>
      <point x="517" y="760" type="line"/>
    </contour>
  </outline>
</glyph>
<glyph name="bracketleft" format="1">
  <advance width="788"/>
  <unicode hex="005B"/>
  <outline>
    <contour>
      <point x="642" y="-192" type="line"/>
      <point x="257" y="-192" type="line"/>
      <point x="257" y="1416" type="line"/>
      <point x="642" y="1416" type="line"/>
      <point x="642" y="1331" type="line"/>
      <point x="345" y="1331" type="line"/>
      <point x="345" y="-106" type="line"/>
      <point x="642" y="-106" type="line"/>
    </contour>
  </outline>
</glyph>
<glyph name="backslash.deva" format="1">
  <advance width="740"/>
  <unicode hex="005C"/>
  <outline>
    <contour>
      <point x="203" y="1316" type="line"/>
      <point x="696" y="0" type="line"/>
      <point x="603" y="0" type="line"/>
      <point x="111" y="1316" type="line"/>
    </contour>
  </outline>
</glyph>
<glyph name="bracketright" format="1">
  <advance width="788"/>
  <unicode hex="005D"/>
  <outline>
    <contour>
      <point x="146" y="-106" type="line"/>
      <point x="443" y="-106" type="line"/>
      <point x="443" y="1331" type="line"/>
      <point x="146" y="1331" type="line"/>
      <point x="146" y="1416" type="line"/>
      <point x="531" y="1416" type="line"/>
      <point x="531" y="-192" type="line"/>
      <point x="146" y="-192" type="line"/>
    </contour>
  </outline>
</glyph>
<glyph name="asciicircum" format="1">
  <advance width="1052"/>
  <unicode hex="005E"/>
  <outline>
    <contour>
      <point x="79" y="505" type="line"/>
      <point x="498" y="1326" type="line"/>
      <point x="559" y="1326" type="line"/>
      <point x="973" y="505" type="line"/>
      <point x="883" y="505" type="line"/>
      <point x="527" y="1217" type="line"/>
      <point x="169" y="505" type="line"/>
    </contour>
  </outline>
</glyph>
<glyph name="underscore" format="1">
  <advance width="758"/>
  <unicode hex="005F"/>
  <outline>
    <contour>
      <point x="761" y="-239" type="line"/>
      <point x="-4" y="-239" type="line"/>
      <point x="-4" y="-166" type="line"/>
      <point x="761" y="-166" type="line"/>
    </contour>
  </outline>
</glyph>
<glyph name="j" format="1">
  <advance width="417"/>
  <unicode hex="006A"/>
  <outline>
    <contour>
      <point x="33" y="-443" type="curve" smooth="yes"/>
      <point x="-15" y="-443"/>
      <point x="-55" y="-435"/>
      <point x="-88" y="-420" type="curve"/>
      <point x="-88" y="-343" type="line"/>
      <point x="-47" y="-355"/>
      <point x="-8" y="-361"/>
      <point x="28" y="-361" type="curve" smooth="yes"/>
      <point x="119" y="-361"/>
      <point x="164" y="-308"/>
      <point x="164" y="-203" type="curve" smooth="yes"/>
      <point x="164" y="978" type="line"/>
      <point x="253" y="978" type="line"/>
      <point x="253" y="-190" type="line" smooth="yes"/>
      <point x="253" y="-351"/>
      <point x="174" y="-443"/>
    </contour>
    <contour>
      <point x="151" y="1250" type="curve" smooth="yes"/>
      <point x="151" y="1307"/>
      <point x="170" y="1336"/>
      <point x="208" y="1336" type="curve" smooth="yes"/>
      <point x="245" y="1336"/>
      <point x="267" y="1305"/>
      <point x="267" y="1250" type="curve" smooth="yes"/>
      <point x="267" y="1197"/>
      <point x="245" y="1163"/>
      <point x="208" y="1163" type="curve" smooth="yes"/>
      <point x="170" y="1163"/>
      <point x="151" y="1192"/>
    </contour>
  </outline>
</glyph>
<glyph name="l" format="1">
  <advance width="417"/>
  <unicode hex="006C"/>
  <outline>
    <contour>
      <point x="253" y="0" type="line"/>
      <point x="164" y="0" type="line"/>
      <point x="164" y="1400" type="line"/>
      <point x="253" y="1400" type="line"/>
    </contour>
  </outline>
</glyph>
<glyph name="o" format="1">
  <advance width="1080"/>
  <unicode hex="006F"/>
  <outline>
    <contour>
      <point x="973" y="490" type="curve" smooth="yes"/>
      <point x="973" y="331"/>
      <point x="934" y="206"/>
      <point x="857" y="116" type="curve" smooth="yes"/>
      <point x="780" y="27"/>
      <point x="673" y="-18"/>
      <point x="536" y="-18" type="curve"/>
      <point x="279" y="-23"/>
      <point x="102" y="186"/>
      <point x="107" y="490" type="curve"/>
      <point x="107" y="650"/>
      <point x="146" y="774"/>
      <point x="223" y="863" type="curve" smooth="yes"/>
      <point x="300" y="952"/>
      <point x="407" y="997"/>
      <point x="542" y="997" type="curve" smooth="yes"/>
      <point x="676" y="997"/>
      <point x="781" y="952"/>
      <point x="858" y="861" type="curve" smooth="yes"/>
      <point x="935" y="771"/>
      <point x="973" y="647"/>
    </contour>
    <contour>
      <point x="201" y="490" type="curve" smooth="yes"/>
      <point x="201" y="356"/>
      <point x="230" y="251"/>
      <point x="289" y="176" type="curve" smooth="yes"/>
      <point x="348" y="101"/>
      <point x="432" y="63"/>
      <point x="540" y="63" type="curve" smooth="yes"/>
      <point x="648" y="63"/>
      <point x="731" y="101"/>
      <point x="790" y="176" type="curve" smooth="yes"/>
      <point x="849" y="251"/>
      <point x="879" y="356"/>
      <point x="879" y="490" type="curve" smooth="yes"/>
      <point x="879" y="625"/>
      <point x="849" y="730"/>
      <point x="789" y="804" type="curve"/>
      <point x="730" y="879"/>
      <point x="646" y="916"/>
      <point x="538" y="916" type="curve" smooth="yes"/>
      <point x="322" y="916"/>
      <point x="201" y="762"/>
    </contour>
  </outline>
</glyph>
<glyph name="x" format="1">
  <advance width="918"/>
  <unicode hex="0078"/>
  <outline>
    <contour>
      <point x="404" y="503" type="line"/>
      <point x="63" y="978" type="line"/>
      <point x="166" y="978" type="line"/>
      <point x="457" y="566" type="line"/>
      <point x="746" y="978" type="line"/>
      <point x="844" y="978" type="line"/>
      <point x="508" y="503" type="line"/>
      <point x="868" y="0" type="line"/>
      <point x="765" y="0" type="line"/>
      <point x="457" y="436" type="line"/>
      <point x="148" y="0" type="line"/>
      <point x="49" y="0" type="line"/>
    </contour>
  </outline>
</glyph>
<glyph name="bar" format="1">
  <advance width="997"/>
  <unicode hex="007C"/>
  <outline>
    <contour>
      <point x="457" y="1405" type="line"/>
      <point x="540" y="1405" type="line"/>
      <point x="540" y="-455" type="line"/>
      <point x="457" y="-455" type="line"/>
    </contour>
  </outline>
</glyph>
<glyph name="braceright" format="1">
  <advance width="851"/>
  <unicode hex="007D"/>
  <outline>
    <contour>
      <point x="401" y="365" type="line" smooth="yes"/>
      <point x="401" y="513"/>
      <point x="452" y="584"/>
      <point x="568" y="608" type="curve"/>
      <point x="568" y="616" type="line"/>
      <point x="452" y="640"/>
      <point x="401" y="710"/>
      <point x="401" y="867" type="curve" smooth="yes"/>
      <point x="401" y="1141" type="line" smooth="yes"/>
      <point x="401" y="1265"/>
      <point x="332" y="1328"/>
      <point x="165" y="1335" type="curve"/>
      <point x="165" y="1416" type="line"/>
      <point x="373" y="1416"/>
      <point x="489" y="1321"/>
      <point x="489" y="1141" type="curve" smooth="yes"/>
      <point x="489" y="826" type="line" smooth="yes"/>
      <point x="489" y="706"/>
      <point x="551" y="650"/>
      <point x="696" y="647" type="curve"/>
      <point x="696" y="575" type="line"/>
      <point x="558" y="573"/>
      <point x="489" y="510"/>
      <point x="489" y="387" type="curve" smooth="yes"/>
      <point x="489" y="84" type="line" smooth="yes"/>
      <point x="489" y="-9"/>
      <point x="464" y="-79"/>
      <point x="414" y="-124" type="curve" smooth="yes"/>
      <point x="365" y="-169"/>
      <point x="282" y="-192"/>
      <point x="165" y="-192" type="curve"/>
      <point x="165" y="-110" type="line"/>
      <point x="334" y="-107"/>
      <point x="401" y="-48"/>
      <point x="401" y="76" type="curve" smooth="yes"/>
    </contour>
  </outline>
</glyph>
<glyph name="asciitilde.deva" format="1">
  <advance width="1052"/>
  <unicode hex="007E"/>
  <outline>
    <contour>
      <point x="301" y="670" type="curve" smooth="yes"/>
      <point x="241" y="670"/>
      <point x="167" y="634"/>
      <point x="100" y="562" type="curve"/>
      <point x="100" y="647" type="line"/>
      <point x="165" y="713"/>
      <point x="235" y="746"/>
      <point x="310" y="746" type="curve" smooth="yes"/>
      <point x="346" y="746"/>
      <point x="380" y="742"/>
      <point x="413" y="734" type="curve" smooth="yes"/>
      <point x="446" y="726"/>
      <point x="492" y="709"/>
      <point x="553" y="682" type="curve"/>
      <point x="628" y="647"/>
      <point x="694" y="630"/>
      <point x="751" y="630" type="curve" smooth="yes"/>
      <point x="818" y="630"/>
      <point x="878" y="666"/>
      <point x="953" y="742" type="curve"/>
      <point x="953" y="656" type="line"/>
      <point x="896" y="597"/>
      <point x="830" y="554"/>
      <point x="742" y="554" type="curve" smooth="yes"/>
      <point x="673" y="554"/>
      <point x="592" y="576"/>
      <point x="499" y="619" type="curve" smooth="yes"/>
      <point x="425" y="653"/>
      <point x="359" y="670"/>
    </contour>
  </outline>
</glyph>
<glyph name="copyright" format="1">
  <advance width="1534"/>
  <unicode hex="00A9"/>
  <outline>
    <contour>
      <point x="807" y="983" type="curve" smooth="yes"/>
      <point x="636" y="983"/>
      <point x="535" y="864"/>
      <point x="535" y="660" type="curve" smooth="yes"/>
      <point x="535" y="436"/>
      <point x="625" y="332"/>
      <point x="800" y="332" type="curve" smooth="yes"/>
      <point x="851" y="332"/>
      <point x="910" y="345"/>
      <point x="978" y="371" type="curve"/>
      <point x="978" y="292" type="line"/>
      <point x="917" y="265"/>
      <point x="854" y="251"/>
      <point x="791" y="251" type="curve" smooth="yes"/>
      <point x="567" y="251"/>
      <point x="440" y="393"/>
      <point x="440" y="652" type="curve" smooth="yes"/>
      <point x="440" y="777"/>
      <point x="473" y="877"/>
      <point x="540" y="952" type="curve" smooth="yes"/>
      <point x="607" y="1027"/>
      <point x="696" y="1064"/>
      <point x="807" y="1064" type="curve" smooth="yes"/>
      <point x="878" y="1064"/>
      <point x="947" y="1048"/>
      <point x="1012" y="1017" type="curve"/>
      <point x="978" y="942" type="line"/>
      <point x="919" y="969"/>
      <point x="862" y="983"/>
    </contour>
    <contour>
      <point x="90" y="658" type="curve" smooth="yes"/>
      <point x="90" y="778"/>
      <point x="120" y="890"/>
      <point x="180" y="995" type="curve" smooth="yes"/>
      <point x="240" y="1100"/>
      <point x="322" y="1183"/>
      <point x="427" y="1244" type="curve" smooth="yes"/>
      <point x="532" y="1305"/>
      <point x="646" y="1335"/>
      <point x="767" y="1335" type="curve" smooth="yes"/>
      <point x="887" y="1335"/>
      <point x="999" y="1305"/>
      <point x="1104" y="1245" type="curve" smooth="yes"/>
      <point x="1209" y="1185"/>
      <point x="1292" y="1102"/>
      <point x="1353" y="997" type="curve" smooth="yes"/>
      <point x="1414" y="892"/>
      <point x="1444" y="779"/>
      <point x="1444" y="658" type="curve" smooth="yes"/>
      <point x="1444" y="540"/>
      <point x="1415" y="429"/>
      <point x="1356" y="325" type="curve" smooth="yes"/>
      <point x="1298" y="221"/>
      <point x="1216" y="138"/>
      <point x="1111" y="75" type="curve" smooth="yes"/>
      <point x="1006" y="13"/>
      <point x="892" y="-18"/>
      <point x="767" y="-18" type="curve" smooth="yes"/>
      <point x="642" y="-18"/>
      <point x="527" y="13"/>
      <point x="422" y="75" type="curve" smooth="yes"/>
      <point x="317" y="137"/>
      <point x="236" y="220"/>
      <point x="177" y="324" type="curve" smooth="yes"/>
      <point x="119" y="428"/>
      <point x="90" y="539"/>
    </contour>
    <contour>
      <point x="174" y="658" type="curve" smooth="yes"/>
      <point x="174" y="551"/>
      <point x="200" y="452"/>
      <point x="253" y="361" type="curve" smooth="yes"/>
      <point x="306" y="270"/>
      <point x="379" y="198"/>
      <point x="470" y="145" type="curve" smooth="yes"/>
      <point x="561" y="92"/>
      <point x="660" y="65"/>
      <point x="767" y="65" type="curve" smooth="yes"/>
      <point x="874" y="65"/>
      <point x="972" y="91"/>
      <point x="1063" y="144" type="curve" smooth="yes"/>
      <point x="1154" y="197"/>
      <point x="1227" y="270"/>
      <point x="1280" y="361" type="curve" smooth="yes"/>
      <point x="1333" y="452"/>
      <point x="1360" y="551"/>
      <point x="1360" y="658" type="curve" smooth="yes"/>
      <point x="1360" y="762"/>
      <point x="1334" y="859"/>
      <point x="1283" y="950" type="curve" smooth="yes"/>
      <point x="1232" y="1041"/>
      <point x="1160" y="1114"/>
      <point x="1068" y="1169" type="curve" smooth="yes"/>
      <point x="976" y="1224"/>
      <point x="876" y="1252"/>
      <point x="767" y="1252" type="curve" smooth="yes"/>
      <point x="661" y="1252"/>
      <point x="562" y="1225"/>
      <point x="471" y="1172" type="curve" smooth="yes"/>
      <point x="380" y="1119"/>
      <point x="307" y="1047"/>
      <point x="254" y="954" type="curve" smooth="yes"/>
      <point x="201" y="861"/>
      <point x="174" y="763"/>
    </contour>
  </outline>
</glyph>
<glyph name="invertedcandrabindu" format="1">
  <advance width="0"/>
  <unicode hex="0900"/>
  <outline>
    <component base="candrabindudeva" xScale="-1" yScale="-1" xOffset="-605" yOffset="3267"/>
    <contour>
      <point x="-342" y="1274" type="move" name="_top"/>
    </contour>
  </outline>
</glyph>
<glyph name="anusvaradeva" format="1">
  <advance width="0"/>
  <unicode hex="0902"/>
  <outline>
    <contour>
      <point x="-295" y="1669" type="curve" smooth="yes"/>
      <point x="-249" y="1669"/>
      <point x="-221" y="1638"/>
      <point x="-221" y="1584" type="curve" smooth="yes"/>
      <point x="-221" y="1531"/>
      <point x="-249" y="1499"/>
      <point x="-295" y="1499" type="curve" smooth="yes"/>
      <point x="-340" y="1499"/>
      <point x="-367" y="1531"/>
      <point x="-367" y="1584" type="curve" smooth="yes"/>
      <point x="-367" y="1638"/>
      <point x="-340" y="1669"/>
    </contour>
    <contour>
      <point x="-342" y="1274" type="move" name="_top"/>
    </contour>
  </outline>
</glyph>
<glyph name="adeva" format="1">
  <advance width="1517"/>
  <unicode hex="0905"/>
  <outline>
    <contour>
      <point x="328" y="715" type="line"/>
      <point x="311" y="789" type="line"/>
      <point x="316" y="789" type="line" smooth="yes"/>
      <point x="586" y="789"/>
      <point x="712" y="907"/>
      <point x="712" y="1020" type="curve" smooth="yes"/>
      <point x="712" y="1140"/>
      <point x="621" y="1213"/>
      <point x="483" y="1213" type="curve" smooth="yes"/>
      <point x="375" y="1213"/>
      <point x="298" y="1179"/>
      <point x="214" y="1118" type="curve"/>
      <point x="181" y="1192" type="line"/>
      <point x="268" y="1253"/>
      <point x="355" y="1291"/>
      <point x="477" y="1291" type="curve" smooth="yes"/>
      <point x="673" y="1291"/>
      <point x="792" y="1192"/>
      <point x="792" y="1017" type="curve" smooth="yes"/>
      <point x="792" y="853"/>
      <point x="637" y="715"/>
      <point x="334" y="715" type="curve" smooth="yes"/>
    </contour>
    <contour>
      <point x="583" y="815" type="line"/>
      <point x="749" y="727"/>
      <point x="841" y="636"/>
      <point x="841" y="481" type="curve" smooth="yes"/>
      <point x="841" y="297"/>
      <point x="704" y="171"/>
      <point x="511" y="171" type="curve" smooth="yes"/>
      <point x="352" y="171"/>
      <point x="243" y="222"/>
      <point x="123" y="318" type="curve"/>
      <point x="151" y="393" type="line"/>
      <point x="272" y="292"/>
      <point x="367" y="251"/>
      <point x="502" y="251" type="curve" smooth="yes"/>
      <point x="663" y="251"/>
      <point x="760" y="357"/>
      <point x="760" y="493" type="curve" smooth="yes"/>
      <point x="760" y="608"/>
      <point x="672" y="696"/>
      <point x="523" y="760" type="curve"/>
    </contour>
    <contour>
      <point x="765" y="625" type="line"/>
      <point x="826" y="605"/>
      <point x="880" y="600"/>
      <point x="960" y="600" type="curve" smooth="yes"/>
      <point x="1043" y="600"/>
      <point x="1128" y="619"/>
      <point x="1190" y="659" type="curve"/>
      <point x="1190" y="568" type="line"/>
      <point x="1144" y="542"/>
      <point x="1061" y="521"/>
      <point x="962" y="521" type="curve" smooth="yes"/>
      <point x="888" y="521"/>
      <point x="820" y="531"/>
      <point x="765" y="544" type="curve"/>
    </contour>
    <contour>
      <point x="1178" y="1226" type="line"/>
      <point x="1267" y="1226" type="line"/>
      <point x="1267" y="0" type="line"/>
      <point x="1178" y="0" type="line"/>
    </contour>
    <contour>
      <point x="1547" y="1198" type="line"/>
      <point x="940" y="1198" type="line"/>
      <point x="940" y="1274" type="line"/>
      <point x="1547" y="1274" type="line"/>
    </contour>
  </outline>
</glyph>
<glyph name="udeva" format="1">
  <advance width="1047"/>
  <unicode hex="0909"/>
  <outline>
    <contour>
      <point x="294" y="668" type="line"/>
      <point x="279" y="742" type="line"/>
      <point x="299" y="742" type="line" smooth="yes"/>
      <point x="605" y="742"/>
      <point x="737" y="865"/>
      <point x="737" y="989" type="curve" smooth="yes"/>
      <point x="737" y="1077"/>
      <point x="696" y="1157"/>
      <point x="596" y="1220" type="curve"/>
      <point x="652" y="1268" type="line"/>
      <point x="767" y="1192"/>
      <point x="815" y="1104"/>
      <point x="815" y="986" type="curve" smooth="yes"/>
      <point x="815" y="818"/>
      <point x="661" y="668"/>
      <point x="317" y="668" type="curve" smooth="yes"/>
    </contour>
    <contour>
      <point x="-30" y="1198" type="curve"/>
      <point x="-30" y="1274" type="line"/>
      <point x="1077" y="1274" type="line"/>
      <point x="1077" y="1198" type="line"/>
      <point x="1077" y="1198"/>
      <point x="-30" y="1198"/>
    </contour>
    <contour>
      <point x="617" y="780" type="line"/>
      <point x="813" y="677"/>
      <point x="902" y="544"/>
      <point x="902" y="389" type="curve" smooth="yes"/>
      <point x="902" y="184"/>
      <point x="751" y="44"/>
      <point x="522" y="44" type="curve" smooth="yes"/>
      <point x="393" y="44"/>
      <point x="235" y="88"/>
      <point x="75" y="202" type="curve"/>
      <point x="104" y="276" type="line"/>
      <point x="242" y="173"/>
      <point x="395" y="124"/>
      <point x="521" y="124" type="curve" smooth="yes"/>
      <point x="713" y="124"/>
      <point x="822" y="243"/>
      <point x="822" y="398" type="curve" smooth="yes"/>
      <point x="822" y="523"/>
      <point x="722" y="656"/>
      <point x="557" y="720" type="curve"/>
    </contour>
    <contour>
      <point x="631.0" y="1274.0" type="move" name="top"/>
    </contour>
  </outline>
</glyph>
<glyph name="uudeva" format="1">
  <advance width="1516"/>
  <unicode hex="090A"/>
  <outline>
    <contour>
      <point x="1024" y="1198" type="curve"/>
      <point x="1024" y="1274" type="line"/>
      <point x="1546" y="1274" type="line"/>
      <point x="1546" y="1198" type="line"/>
      <point x="1546" y="1198"/>
      <point x="1024" y="1198"/>
    </contour>
    <contour>
      <point x="790" y="578" type="curve"/>
      <point x="769" y="665" type="line"/>
      <point x="839" y="721"/>
      <point x="963" y="773"/>
      <point x="1077" y="773" type="curve" smooth="yes"/>
      <point x="1269" y="773"/>
      <point x="1387" y="635"/>
      <point x="1387" y="474" type="curve" smooth="yes"/>
      <point x="1387" y="336"/>
      <point x="1338" y="220"/>
      <point x="1257" y="113" type="curve"/>
      <point x="1180" y="145" type="line"/>
      <point x="1261" y="250"/>
      <point x="1307" y="364"/>
      <point x="1307" y="476" type="curve" smooth="yes"/>
      <point x="1307" y="603"/>
      <point x="1216" y="692"/>
      <point x="1083" y="692" type="curve" smooth="yes"/>
      <point x="980" y="692"/>
      <point x="866" y="643"/>
    </contour>
    <component base="udeva"/>
    <contour>
      <point x="631.0" y="1274.0" type="move" name="top"/>
    </contour>
  </outline>
</glyph>
<glyph name="rvocalicdeva" format="1">
  <advance width="1467"/>
  <unicode hex="090B"/>
  <outline>
    <contour>
      <point x="1040" y="1198" type="line"/>
      <point x="1040" y="1274" type="line"/>
      <point x="1497" y="1274" type="line"/>
      <point x="1497" y="1198" type="line"/>
    </contour>
    <contour>
      <point x="794" y="627" type="line"/>
      <point x="828" y="623"/>
      <point x="856" y="620"/>
      <point x="909" y="620" type="curve" smooth="yes"/>
      <point x="1017" y="620"/>
      <point x="1115" y="654"/>
      <point x="1184" y="729" type="curve"/>
      <point x="1154" y="660" type="line"/>
      <point x="1116" y="702"/>
      <point x="1098" y="725"/>
      <point x="1098" y="749" type="curve" smooth="yes"/>
      <point x="1098" y="776"/>
      <point x="1129" y="801"/>
      <point x="1192" y="800" type="curve" smooth="yes"/>
      <point x="1254" y="799"/>
      <point x="1298" y="776"/>
      <point x="1298" y="741" type="curve" smooth="yes"/>
      <point x="1298" y="673"/>
      <point x="1125" y="541"/>
      <point x="911" y="541" type="curve" smooth="yes"/>
      <point x="861" y="541"/>
      <point x="821" y="545"/>
      <point x="765" y="555" type="curve"/>
    </contour>
    <contour>
      <point x="1170" y="642" type="curve"/>
      <point x="1227" y="692" type="line"/>
      <point x="1316" y="577"/>
      <point x="1374" y="459"/>
      <point x="1374" y="358" type="curve" smooth="yes"/>
      <point x="1374" y="237"/>
      <point x="1285" y="134"/>
      <point x="1104" y="82" type="curve"/>
      <point x="1068" y="149" type="line"/>
      <point x="1234" y="200"/>
      <point x="1297" y="276"/>
      <point x="1297" y="369" type="curve" smooth="yes"/>
      <point x="1297" y="445"/>
      <point x="1260" y="528"/>
    </contour>
    <component base="taradeva"/>
    <contour>
      <point x="-26" y="-30" type="move" name="x73"/>
    </contour>
    <contour>
      <point x="756" y="1244" type="move" name="mark0"/>
    </contour>
  </outline>
</glyph>
<glyph name="lvocalicdeva" format="1">
  <advance width="1453"/>
  <unicode hex="090C"/>
  <outline>
    <contour>
      <point x="805" y="706" type="curve"/>
      <point x="755" y="646" type="line"/>
      <point x="653" y="751"/>
      <point x="555" y="805"/>
      <point x="439" y="805" type="curve" smooth="yes"/>
      <point x="301" y="805"/>
      <point x="204" y="699"/>
      <point x="204" y="569" type="curve" smooth="yes"/>
      <point x="204" y="412"/>
      <point x="280" y="283"/>
      <point x="491" y="94" type="curve"/>
      <point x="430" y="42" type="line"/>
      <point x="231" y="226"/>
      <point x="122" y="385"/>
      <point x="122" y="582" type="curve" smooth="yes"/>
      <point x="122" y="750"/>
      <point x="244" y="886"/>
      <point x="435" y="886" type="curve" smooth="yes"/>
      <point x="577" y="886"/>
      <point x="693" y="824"/>
    </contour>
    <contour>
      <point x="-30" y="1198" type="curve"/>
      <point x="-30" y="1274" type="line"/>
      <point x="1483" y="1274" type="line"/>
      <point x="1483" y="1198" type="line"/>
      <point x="1483" y="1198"/>
      <point x="-30" y="1198"/>
    </contour>
    <contour>
      <point x="1016" y="1226" type="line"/>
      <point x="1105" y="1226" type="line"/>
      <point x="1105" y="815" type="line"/>
      <point x="1016" y="815" type="line"/>
    </contour>
    <contour>
      <point x="1188" y="232" type="curve"/>
      <point x="1144" y="232" type="line"/>
      <point x="1005" y="232"/>
      <point x="948" y="157"/>
      <point x="948" y="85" type="curve" smooth="yes"/>
      <point x="948" y="12"/>
      <point x="1006" y="-44"/>
      <point x="1111" y="-44" type="curve" smooth="yes"/>
      <point x="1168" y="-44"/>
      <point x="1208" y="-37"/>
      <point x="1280" y="-5" type="curve"/>
      <point x="1296" y="-76" type="line"/>
      <point x="1231" y="-104"/>
      <point x="1180" y="-116"/>
      <point x="1111" y="-116" type="curve" smooth="yes"/>
      <point x="976" y="-116"/>
      <point x="875" y="-30"/>
      <point x="875" y="92" type="curve" smooth="yes"/>
      <point x="875" y="207"/>
      <point x="967" y="305"/>
      <point x="1134" y="305" type="curve" smooth="yes"/>
      <point x="1149" y="305"/>
      <point x="1170" y="305"/>
      <point x="1188" y="305" type="curve"/>
      <point x="1130" y="287" type="line"/>
      <point x="1182" y="353"/>
      <point x="1253" y="457"/>
      <point x="1253" y="574" type="curve" smooth="yes"/>
      <point x="1253" y="708"/>
      <point x="1184" y="804"/>
      <point x="1045" y="804" type="curve" smooth="yes"/>
      <point x="897" y="804"/>
      <point x="762" y="672"/>
      <point x="713" y="382" type="curve"/>
      <point x="640" y="412" type="line"/>
      <point x="688" y="707"/>
      <point x="839" y="886"/>
      <point x="1037" y="886" type="curve" smooth="yes"/>
      <point x="1228" y="886"/>
      <point x="1331" y="749"/>
      <point x="1331" y="571" type="curve" smooth="yes"/>
      <point x="1331" y="431"/>
      <point x="1258" y="318"/>
    </contour>
    <contour>
      <point x="54" y="-30" type="move" name="x78"/>
    </contour>
    <contour>
      <point x="1017" y="1244" type="move" name="mark0"/>
    </contour>
  </outline>
</glyph>
<glyph name="edeva" format="1">
  <advance width="1105"/>
  <unicode hex="090F"/>
  <outline>
    <contour>
      <point x="876" y="1251" type="line"/>
      <point x="876" y="744" type="line" smooth="yes"/>
      <point x="876" y="672"/>
      <point x="849" y="596"/>
      <point x="790" y="505" type="curve"/>
      <point x="710" y="553" type="line"/>
      <point x="766" y="637"/>
      <point x="787" y="693"/>
      <point x="787" y="818" type="curve" smooth="yes"/>
      <point x="787" y="1251" type="line"/>
    </contour>
    <contour>
      <point x="-30" y="1198" type="curve"/>
      <point x="-30" y="1274" type="line"/>
      <point x="1135" y="1274" type="line"/>
      <point x="1135" y="1198" type="line"/>
      <point x="1135" y="1198"/>
      <point x="-30" y="1198"/>
    </contour>
    <contour>
      <point x="203" y="1251" type="line"/>
      <point x="292" y="1251" type="line"/>
      <point x="292" y="717" type="line" smooth="yes"/>
      <point x="292" y="597"/>
      <point x="325" y="540"/>
      <point x="401" y="488" type="curve" smooth="yes"/>
      <point x="777" y="228" type="line" smooth="yes"/>
      <point x="879" y="158"/>
      <point x="908" y="101"/>
      <point x="908" y="33" type="curve" smooth="yes"/>
      <point x="908" y="-20"/>
      <point x="891" y="-64"/>
      <point x="849" y="-146" type="curve"/>
      <point x="769" y="-114" type="line"/>
      <point x="805" y="-55"/>
      <point x="823" y="-6"/>
      <point x="823" y="31" type="curve" smooth="yes"/>
      <point x="823" y="77"/>
      <point x="798" y="117"/>
      <point x="726" y="166" type="curve" smooth="yes"/>
      <point x="368" y="411" type="line" smooth="yes"/>
      <point x="240" y="498"/>
      <point x="203" y="580"/>
      <point x="203" y="740" type="curve" smooth="yes"/>
    </contour>
    <contour>
      <point x="-59" y="8" type="move" name="x44"/>
    </contour>
    <contour>
      <point x="838" y="1282" type="move" name="mark0"/>
    </contour>
  </outline>
</glyph>
<glyph name="kadeva" format="1">
  <advance width="1518"/>
  <unicode hex="0915"/>
  <outline>
    <contour>
      <point x="813" y="645" type="curve"/>
      <point x="792" y="732" type="line"/>
      <point x="862" y="788"/>
      <point x="986" y="840"/>
      <point x="1100" y="840" type="curve" smooth="yes"/>
      <point x="1292" y="840"/>
      <point x="1410" y="702"/>
      <point x="1410" y="541" type="curve" smooth="yes"/>
      <point x="1410" y="403"/>
      <point x="1361" y="287"/>
      <point x="1280" y="180" type="curve"/>
      <point x="1203" y="212" type="line"/>
      <point x="1284" y="317"/>
      <point x="1330" y="431"/>
      <point x="1330" y="543" type="curve" smooth="yes"/>
      <point x="1330" y="670"/>
      <point x="1239" y="759"/>
      <point x="1106" y="759" type="curve" smooth="yes"/>
      <point x="1003" y="759"/>
      <point x="889" y="710"/>
    </contour>
    <contour>
      <point x="-30" y="1198" type="line"/>
      <point x="-30" y="1274" type="line"/>
      <point x="1548" y="1274" type="line"/>
      <point x="1548" y="1198" type="line"/>
    </contour>
    <contour>
      <point x="755" y="518" type="curve"/>
      <point x="755" y="414" type="line"/>
      <point x="673" y="334"/>
      <point x="561" y="285"/>
      <point x="436" y="285" type="curve" smooth="yes"/>
      <point x="252" y="285"/>
      <point x="119" y="423"/>
      <point x="119" y="623" type="curve" smooth="yes"/>
      <point x="119" y="775"/>
      <point x="230" y="900"/>
      <point x="432" y="900" type="curve" smooth="yes"/>
      <point x="557" y="900"/>
      <point x="664" y="861"/>
      <point x="756" y="805" type="curve"/>
      <point x="756" y="718" type="line"/>
      <point x="645" y="793"/>
      <point x="552" y="820"/>
      <point x="442" y="820" type="curve" smooth="yes"/>
      <point x="278" y="820"/>
      <point x="198" y="729"/>
      <point x="198" y="606" type="curve" smooth="yes"/>
      <point x="198" y="453"/>
      <point x="296" y="361"/>
      <point x="431" y="361" type="curve" smooth="yes"/>
      <point x="550" y="361"/>
      <point x="660" y="413"/>
    </contour>
    <contour>
      <point x="732" y="1226" type="line"/>
      <point x="821" y="1226" type="line"/>
      <point x="821" y="0" type="line"/>
      <point x="732" y="0" type="line"/>
    </contour>
    <contour>
      <point x="732" y="0" type="move" name="btm"/>
    </contour>
    <contour>
      <point x="732" y="1274" type="move" name="top"/>
    </contour>
  </outline>
</glyph>
<glyph name="khadeva" format="1">
  <advance width="1644"/>
  <unicode hex="0916"/>
  <outline>
    <contour>
      <point x="1334" y="635" type="curve"/>
      <point x="1334" y="538" type="line"/>
      <point x="1263" y="483"/>
      <point x="1162" y="452"/>
      <point x="1073" y="452" type="curve" smooth="yes"/>
      <point x="909" y="452"/>
      <point x="788" y="568"/>
      <point x="788" y="721" type="curve" smooth="yes"/>
      <point x="788" y="854"/>
      <point x="890" y="959"/>
      <point x="1062" y="959" type="curve" smooth="yes"/>
      <point x="1166" y="959"/>
      <point x="1261" y="935"/>
      <point x="1355" y="885" type="curve"/>
      <point x="1355" y="800" type="line"/>
      <point x="1276" y="854"/>
      <point x="1169" y="884"/>
      <point x="1077" y="884" type="curve" smooth="yes"/>
      <point x="925" y="884"/>
      <point x="864" y="800"/>
      <point x="864" y="708" type="curve" smooth="yes"/>
      <point x="864" y="605"/>
      <point x="947" y="526"/>
      <point x="1070" y="526" type="curve" smooth="yes"/>
      <point x="1158" y="526"/>
      <point x="1252" y="558"/>
    </contour>
    <contour>
      <point x="213" y="633" type="line"/>
      <point x="415" y="706"/>
      <point x="469" y="803"/>
      <point x="469" y="990" type="curve" smooth="yes"/>
      <point x="469" y="1228" type="line"/>
      <point x="558" y="1228" type="line"/>
      <point x="558" y="977" type="line" smooth="yes"/>
      <point x="558" y="804"/>
      <point x="504" y="653"/>
      <point x="256" y="562" type="curve"/>
    </contour>
    <contour>
      <point x="-30" y="1198" type="line"/>
      <point x="-30" y="1274" type="line"/>
      <point x="1674" y="1274" type="line"/>
      <point x="1674" y="1198" type="line"/>
    </contour>
    <contour>
      <point x="246" y="604" type="line"/>
      <point x="303" y="505"/>
      <point x="349" y="443"/>
      <point x="423" y="369" type="curve" smooth="yes"/>
      <point x="557" y="235"/>
      <point x="754" y="170"/>
      <point x="939" y="170" type="curve" smooth="yes"/>
      <point x="1065" y="170"/>
      <point x="1205" y="193"/>
      <point x="1314" y="248" type="curve"/>
      <point x="1314" y="160" type="line"/>
      <point x="1222" y="115"/>
      <point x="1088" y="91"/>
      <point x="948" y="91" type="curve" smooth="yes"/>
      <point x="720" y="91"/>
      <point x="519" y="161"/>
      <point x="352" y="328" type="curve" smooth="yes"/>
      <point x="265" y="415"/>
      <point x="160" y="582"/>
      <point x="103" y="690" type="curve" smooth="yes"/>
      <point x="88" y="719"/>
      <point x="76" y="746"/>
      <point x="76" y="764" type="curve" smooth="yes"/>
      <point x="76" y="787"/>
      <point x="92" y="801"/>
      <point x="111" y="801" type="curve" smooth="yes"/>
      <point x="130" y="801"/>
      <point x="145" y="791"/>
      <point x="162" y="760" type="curve" smooth="yes"/>
      <point x="235" y="626" type="line"/>
    </contour>
    <contour>
      <point x="1305" y="1226" type="line"/>
      <point x="1394" y="1226" type="line"/>
      <point x="1394" y="0" type="line"/>
      <point x="1305" y="0" type="line"/>
    </contour>
    <contour>
      <point x="1305" y="1274" type="move" name="top"/>
    </contour>
  </outline>
</glyph>
<glyph name="ghadeva" format="1">
  <advance width="1272"/>
  <unicode hex="0918"/>
  <outline>
    <contour>
      <point x="698" y="754" type="line"/>
      <point x="683" y="754" type="line" smooth="yes"/>
      <point x="454" y="754"/>
      <point x="369" y="643"/>
      <point x="369" y="513" type="curve" smooth="yes"/>
      <point x="369" y="401"/>
      <point x="459" y="304"/>
      <point x="600" y="304" type="curve" smooth="yes"/>
      <point x="735" y="304"/>
      <point x="851" y="352"/>
      <point x="955" y="463" type="curve"/>
      <point x="955" y="355" type="line"/>
      <point x="876" y="283"/>
      <point x="755" y="227"/>
      <point x="617" y="227" type="curve" smooth="yes"/>
      <point x="416" y="227"/>
      <point x="289" y="357"/>
      <point x="289" y="525" type="curve" smooth="yes"/>
      <point x="289" y="673"/>
      <point x="395" y="825"/>
      <point x="661" y="825" type="curve" smooth="yes"/>
      <point x="675" y="825" type="line"/>
    </contour>
    <contour>
      <point x="419" y="730" type="curve"/>
      <point x="192" y="784"/>
      <point x="102" y="935"/>
      <point x="102" y="1075" type="curve" smooth="yes"/>
      <point x="102" y="1134"/>
      <point x="118" y="1190"/>
      <point x="150" y="1249" type="curve"/>
      <point x="242" y="1232" type="line"/>
      <point x="204" y="1178"/>
      <point x="186" y="1121"/>
      <point x="186" y="1063" type="curve" smooth="yes"/>
      <point x="186" y="952"/>
      <point x="269" y="825"/>
      <point x="503" y="790" type="curve"/>
      <point x="503" y="790"/>
      <point x="419" y="730"/>
    </contour>
    <contour>
      <point x="-30" y="1198" type="curve"/>
      <point x="-30" y="1274" type="line"/>
      <point x="1302" y="1274" type="line"/>
      <point x="1302" y="1198" type="line"/>
      <point x="1302" y="1198"/>
      <point x="-30" y="1198"/>
    </contour>
    <contour>
      <point x="933" y="1226" type="line"/>
      <point x="1022" y="1226" type="line"/>
      <point x="1022" y="0" type="line"/>
      <point x="933" y="0" type="line"/>
    </contour>
    <contour>
      <point x="933.0" y="1274.0" type="move" name="top"/>
    </contour>
  </outline>
</glyph>
<glyph name="ngadeva" format="1">
  <advance width="1135"/>
  <unicode hex="0919"/>
  <outline>
    <contour>
      <point x="1054" y="1198" type="line"/>
      <point x="1054" y="1274" type="line"/>
      <point x="1235" y="1274" type="line"/>
      <point x="1235" y="1198" type="line"/>
    </contour>
    <contour>
      <point x="1060" y="810" type="curve" smooth="yes"/>
      <point x="1109" y="810"/>
      <point x="1134" y="781"/>
      <point x="1134" y="722" type="curve" smooth="yes"/>
      <point x="1134" y="664"/>
      <point x="1109" y="634"/>
      <point x="1060" y="634" type="curve" smooth="yes"/>
      <point x="1012" y="634"/>
      <point x="988" y="664"/>
      <point x="988" y="722" type="curve" smooth="yes"/>
      <point x="988" y="781"/>
      <point x="1012" y="810"/>
    </contour>
    <component base="ddadeva"/>
    <contour>
      <point x="782" y="1274" type="move" name="top"/>
    </contour>
    <contour>
      <point x="536" y="75" type="move" name="btm"/>
    </contour>
  </outline>
</glyph>
<glyph name="cadeva" format="1">
  <advance width="1308"/>
  <unicode hex="091A"/>
  <outline>
    <contour>
      <point x="94" y="810" type="curve"/>
      <point x="94" y="886" type="line"/>
      <point x="786" y="886" type="line"/>
      <point x="786" y="810" type="line"/>
      <point x="786" y="810"/>
      <point x="94" y="810"/>
    </contour>
    <contour>
      <point x="998" y="509" type="curve"/>
      <point x="998" y="398" type="line"/>
      <point x="927" y="324"/>
      <point x="806" y="261"/>
      <point x="669" y="261" type="curve" smooth="yes"/>
      <point x="462" y="261"/>
      <point x="330" y="398"/>
      <point x="330" y="566" type="curve" smooth="yes"/>
      <point x="330" y="736"/>
      <point x="457" y="866"/>
      <point x="674" y="866" type="curve"/>
      <point x="714" y="810" type="line"/>
      <point x="524" y="810"/>
      <point x="413" y="691"/>
      <point x="413" y="559" type="curve" smooth="yes"/>
      <point x="413" y="439"/>
      <point x="504" y="341"/>
      <point x="664" y="341" type="curve" smooth="yes"/>
      <point x="785" y="341"/>
      <point x="905" y="397"/>
    </contour>
    <contour>
      <point x="-30" y="1198" type="curve"/>
      <point x="-30" y="1274" type="line"/>
      <point x="1338" y="1274" type="line"/>
      <point x="1338" y="1198" type="line"/>
      <point x="1338" y="1198"/>
      <point x="-30" y="1198"/>
    </contour>
    <contour>
      <point x="969" y="1226" type="line"/>
      <point x="1058" y="1226" type="line"/>
      <point x="1058" y="0" type="line"/>
      <point x="969" y="0" type="line"/>
    </contour>
    <contour>
      <point x="969" y="1274" type="move" name="top"/>
    </contour>
  </outline>
</glyph>
<glyph name="chadeva" format="1">
  <advance width="1411"/>
  <unicode hex="091B"/>
  <outline>
    <contour>
      <point x="622" y="764" type="curve"/>
      <point x="644" y="690" type="line"/>
      <point x="642" y="690"/>
      <point x="639" y="690"/>
      <point x="637" y="690" type="curve" smooth="yes"/>
      <point x="378" y="690"/>
      <point x="294" y="561"/>
      <point x="294" y="428" type="curve" smooth="yes"/>
      <point x="294" y="288"/>
      <point x="440" y="144"/>
      <point x="660" y="144" type="curve" smooth="yes"/>
      <point x="971" y="144"/>
      <point x="1212" y="372"/>
      <point x="1212" y="674" type="curve" smooth="yes"/>
      <point x="1212" y="804"/>
      <point x="1148" y="895"/>
      <point x="1046" y="895" type="curve" smooth="yes"/>
      <point x="940" y="895"/>
      <point x="887" y="824"/>
      <point x="887" y="729" type="curve" smooth="yes"/>
      <point x="887" y="624"/>
      <point x="970" y="515"/>
      <point x="1164" y="406" type="curve"/>
      <point x="1122" y="342" type="line"/>
      <point x="921" y="456"/>
      <point x="807" y="594"/>
      <point x="807" y="743" type="curve" smooth="yes"/>
      <point x="807" y="867"/>
      <point x="895" y="973"/>
      <point x="1041" y="973" type="curve" smooth="yes"/>
      <point x="1183" y="973"/>
      <point x="1290" y="860"/>
      <point x="1290" y="669" type="curve" smooth="yes"/>
      <point x="1290" y="339"/>
      <point x="1009" y="65"/>
      <point x="676" y="65" type="curve" smooth="yes"/>
      <point x="375" y="65"/>
      <point x="209" y="254"/>
      <point x="209" y="442" type="curve" smooth="yes"/>
      <point x="209" y="612"/>
      <point x="331" y="764"/>
      <point x="617" y="764" type="curve" smooth="yes"/>
      <point x="619" y="764"/>
      <point x="620" y="764"/>
    </contour>
    <contour>
      <point x="491" y="730" type="curve"/>
      <point x="408" y="667" type="line"/>
      <point x="223" y="727"/>
      <point x="139" y="839"/>
      <point x="139" y="978" type="curve" smooth="yes"/>
      <point x="139" y="1095"/>
      <point x="219" y="1222"/>
      <point x="401" y="1265" type="curve"/>
      <point x="487" y="1219" type="line"/>
      <point x="292" y="1186"/>
      <point x="224" y="1055"/>
      <point x="224" y="965" type="curve" smooth="yes"/>
      <point x="224" y="858"/>
      <point x="307" y="760"/>
    </contour>
    <contour>
      <point x="1441" y="1198" type="line"/>
      <point x="-30" y="1198" type="line"/>
      <point x="-30" y="1274" type="line"/>
      <point x="1441" y="1274" type="line"/>
    </contour>
    <contour>
      <point x="1072" y="1244" type="line"/>
      <point x="1161" y="1244" type="line"/>
      <point x="1161" y="941" type="line"/>
      <point x="1072" y="941" type="line"/>
    </contour>
    <contour>
      <point x="612" y="79" type="move" name="btm"/>
    </contour>
    <contour>
      <point x="991.0" y="1274.0" type="move" name="top"/>
    </contour>
  </outline>
</glyph>
<glyph name="jhadeva" format="1">
  <advance width="1519"/>
  <unicode hex="091D"/>
  <outline>
    <contour>
      <point x="1233" y="529" type="curve"/>
      <point x="1233" y="438" type="line"/>
      <point x="1187" y="412"/>
      <point x="1104" y="391"/>
      <point x="1005" y="391" type="curve" smooth="yes"/>
      <point x="931" y="391"/>
      <point x="863" y="401"/>
      <point x="808" y="414" type="curve"/>
      <point x="808" y="495" type="line"/>
      <point x="869" y="475"/>
      <point x="923" y="470"/>
      <point x="1003" y="470" type="curve" smooth="yes"/>
      <point x="1086" y="470"/>
      <point x="1171" y="489"/>
    </contour>
    <contour>
      <point x="1180" y="1226" type="line"/>
      <point x="1269" y="1226" type="line"/>
      <point x="1269" y="0" type="line"/>
      <point x="1180" y="0" type="line"/>
    </contour>
    <contour>
      <point x="1549" y="1198" type="line"/>
      <point x="942" y="1198" type="line"/>
      <point x="942" y="1274" type="line"/>
      <point x="1549" y="1274" type="line"/>
    </contour>
    <component base="ideva"/>
    <contour>
      <point x="1180" y="1274" type="move" name="top"/>
    </contour>
  </outline>
</glyph>
<glyph name="nyadeva" format="1">
  <advance width="1604"/>
  <unicode hex="091E"/>
  <outline>
    <contour>
      <point x="818" y="647" type="line"/>
      <point x="889" y="627"/>
      <point x="963" y="618"/>
      <point x="1043" y="618" type="curve" smooth="yes"/>
      <point x="1136" y="618"/>
      <point x="1240" y="638"/>
      <point x="1312" y="681" type="curve"/>
      <point x="1312" y="590" type="line"/>
      <point x="1255" y="559"/>
      <point x="1147" y="538"/>
      <point x="1048" y="538" type="curve" smooth="yes"/>
      <point x="964" y="538"/>
      <point x="873" y="551"/>
      <point x="818" y="566" type="curve"/>
    </contour>
    <contour>
      <point x="880" y="567" type="curve" smooth="yes"/>
      <point x="880" y="397"/>
      <point x="754" y="256"/>
      <point x="580" y="256" type="curve" smooth="yes"/>
      <point x="407" y="256"/>
      <point x="276" y="326"/>
      <point x="83" y="524" type="curve"/>
      <point x="126" y="595" type="line"/>
      <point x="304" y="400"/>
      <point x="437" y="338"/>
      <point x="561" y="338" type="curve" smooth="yes"/>
      <point x="713" y="338"/>
      <point x="801" y="445"/>
      <point x="801" y="578" type="curve" smooth="yes"/>
      <point x="801" y="703"/>
      <point x="696" y="810"/>
      <point x="561" y="811" type="curve" smooth="yes"/>
      <point x="475" y="812"/>
      <point x="395" y="772"/>
      <point x="329" y="718" type="curve"/>
      <point x="286" y="786" type="line"/>
      <point x="357" y="842"/>
      <point x="443" y="889"/>
      <point x="551" y="890" type="curve" smooth="yes"/>
      <point x="743" y="892"/>
      <point x="880" y="753"/>
    </contour>
    <contour>
      <point x="-30" y="1198" type="curve"/>
      <point x="-30" y="1274" type="line"/>
      <point x="1634" y="1274" type="line"/>
      <point x="1634" y="1198" type="line"/>
      <point x="1634" y="1198"/>
      <point x="-30" y="1198"/>
    </contour>
    <contour>
      <point x="1265" y="1226" type="line"/>
      <point x="1354" y="1226" type="line"/>
      <point x="1354" y="0" type="line"/>
      <point x="1265" y="0" type="line"/>
    </contour>
    <contour>
      <point x="1265" y="1274" type="move" name="top"/>
    </contour>
  </outline>
</glyph>
<glyph name="ttadeva" format="1">
  <advance width="1110"/>
  <unicode hex="091F"/>
  <outline>
    <contour>
      <point x="771" y="1238" type="line"/>
      <point x="860" y="1238" type="line"/>
      <point x="860" y="810" type="line"/>
      <point x="605" y="810" type="line" smooth="yes"/>
      <point x="354" y="810"/>
      <point x="225" y="695"/>
      <point x="225" y="503" type="curve" smooth="yes"/>
      <point x="225" y="318"/>
      <point x="379" y="179"/>
      <point x="611" y="179" type="curve" smooth="yes"/>
      <point x="714" y="179"/>
      <point x="796" y="196"/>
      <point x="905" y="240" type="curve"/>
      <point x="929" y="162" type="line"/>
      <point x="809" y="114"/>
      <point x="728" y="100"/>
      <point x="617" y="100" type="curve" smooth="yes"/>
      <point x="332" y="100"/>
      <point x="140" y="279"/>
      <point x="140" y="519" type="curve" smooth="yes"/>
      <point x="140" y="736"/>
      <point x="299" y="886"/>
      <point x="570" y="886" type="curve" smooth="yes"/>
      <point x="810" y="886" type="line"/>
      <point x="771" y="855" type="line"/>
    </contour>
    <contour>
      <point x="1140" y="1198" type="line"/>
      <point x="-30" y="1198" type="line"/>
      <point x="-30" y="1274" type="line"/>
      <point x="1140" y="1274" type="line"/>
    </contour>
    <contour>
      <point x="562" y="99" type="move" name="btm"/>
    </contour>
    <contour>
      <point x="754" y="1274" type="move" name="top"/>
    </contour>
  </outline>
</glyph>
<glyph name="tthadeva" format="1">
  <advance width="1209"/>
  <unicode hex="0920"/>
  <outline>
    <contour>
      <point x="1015" y="505" type="curve" smooth="yes"/>
      <point x="1015" y="614"/>
      <point x="980" y="708"/>
      <point x="875" y="810" type="curve"/>
      <point x="608" y="810" type="line" smooth="yes"/>
      <point x="356" y="810"/>
      <point x="225" y="699"/>
      <point x="225" y="502" type="curve" smooth="yes"/>
      <point x="225" y="319"/>
      <point x="392" y="180"/>
      <point x="616" y="180" type="curve" smooth="yes"/>
      <point x="857" y="180"/>
      <point x="1015" y="315"/>
    </contour>
    <contour>
      <point x="1239" y="1198" type="line"/>
      <point x="-30" y="1198" type="line"/>
      <point x="-30" y="1274" type="line"/>
      <point x="1239" y="1274" type="line"/>
    </contour>
    <contour>
      <point x="870" y="1238" type="line"/>
      <point x="959" y="1238" type="line"/>
      <point x="959" y="786" type="line"/>
      <point x="934" y="866" type="line"/>
      <point x="1043" y="754"/>
      <point x="1093" y="646"/>
      <point x="1093" y="495" type="curve" smooth="yes"/>
      <point x="1093" y="267"/>
      <point x="897" y="100"/>
      <point x="619" y="100" type="curve" smooth="yes"/>
      <point x="351" y="100"/>
      <point x="140" y="281"/>
      <point x="140" y="521" type="curve" smooth="yes"/>
      <point x="140" y="744"/>
      <point x="312" y="886"/>
      <point x="563" y="886" type="curve" smooth="yes"/>
      <point x="909" y="886" type="line"/>
      <point x="870" y="855" type="line"/>
    </contour>
    <contour>
      <point x="562" y="99" type="move" name="btm"/>
    </contour>
    <contour>
      <point x="843" y="1274" type="move" name="top"/>
    </contour>
  </outline>
</glyph>
<glyph name="ddadeva" format="1">
  <advance width="1122"/>
  <unicode hex="0921"/>
  <outline>
    <contour>
      <point x="783" y="1238" type="line"/>
      <point x="872" y="1238" type="line"/>
      <point x="872" y="875" type="line"/>
      <point x="444" y="875" type="line" smooth="yes"/>
      <point x="310" y="875"/>
      <point x="256" y="811"/>
      <point x="256" y="730" type="curve" smooth="yes"/>
      <point x="256" y="656"/>
      <point x="322" y="581"/>
      <point x="426" y="548" type="curve"/>
      <point x="367" y="548" type="line"/>
      <point x="458" y="590"/>
      <point x="553" y="623"/>
      <point x="666" y="623" type="curve" smooth="yes"/>
      <point x="845" y="623"/>
      <point x="977" y="524"/>
      <point x="977" y="359" type="curve" smooth="yes"/>
      <point x="977" y="180"/>
      <point x="841" y="61"/>
      <point x="625" y="61" type="curve" smooth="yes"/>
      <point x="447" y="61"/>
      <point x="308" y="101"/>
      <point x="139" y="196" type="curve"/>
      <point x="163" y="273" type="line"/>
      <point x="312" y="176"/>
      <point x="453" y="136"/>
      <point x="615" y="136" type="curve" smooth="yes"/>
      <point x="804" y="136"/>
      <point x="899" y="230"/>
      <point x="899" y="363" type="curve" smooth="yes"/>
      <point x="899" y="477"/>
      <point x="808" y="544"/>
      <point x="662" y="544" type="curve" smooth="yes"/>
      <point x="564" y="544"/>
      <point x="471" y="512"/>
      <point x="402" y="476" type="curve"/>
      <point x="397" y="476" type="line"/>
      <point x="250" y="542"/>
      <point x="178" y="638"/>
      <point x="178" y="743" type="curve" smooth="yes"/>
      <point x="178" y="846"/>
      <point x="256" y="951"/>
      <point x="453" y="951" type="curve" smooth="yes"/>
      <point x="822" y="951" type="line"/>
      <point x="783" y="912" type="line"/>
    </contour>
    <contour>
      <point x="1152" y="1198" type="line"/>
      <point x="-30" y="1198" type="line"/>
      <point x="-30" y="1274" type="line"/>
      <point x="1152" y="1274" type="line"/>
    </contour>
    <contour>
      <point x="536" y="75" type="move" name="btm"/>
    </contour>
    <contour>
      <point x="782.0" y="1274.0" type="move" name="top"/>
    </contour>
  </outline>
</glyph>
<glyph name="ddhadeva" format="1">
  <advance width="1095"/>
  <unicode hex="0922"/>
  <outline>
    <contour>
      <point x="1125" y="1198" type="line"/>
      <point x="-30" y="1198" type="line"/>
      <point x="-30" y="1274" type="line"/>
      <point x="1125" y="1274" type="line"/>
    </contour>
    <contour>
      <point x="756" y="1228" type="line"/>
      <point x="845" y="1228" type="line"/>
      <point x="845" y="810" type="line"/>
      <point x="610" y="810" type="line" smooth="yes"/>
      <point x="364" y="810"/>
      <point x="225" y="707"/>
      <point x="225" y="507" type="curve" smooth="yes"/>
      <point x="225" y="324"/>
      <point x="401" y="154"/>
      <point x="643" y="154" type="curve" smooth="yes"/>
      <point x="849" y="154"/>
      <point x="922" y="233"/>
      <point x="922" y="318" type="curve" smooth="yes"/>
      <point x="922" y="388"/>
      <point x="868" y="450"/>
      <point x="761" y="450" type="curve" smooth="yes"/>
      <point x="654" y="450"/>
      <point x="599" y="383"/>
      <point x="599" y="291" type="curve" smooth="yes"/>
      <point x="599" y="232"/>
      <point x="617" y="184"/>
      <point x="655" y="135" type="curve"/>
      <point x="576" y="129" type="line"/>
      <point x="541" y="181"/>
      <point x="521" y="242"/>
      <point x="521" y="306" type="curve" smooth="yes"/>
      <point x="521" y="430"/>
      <point x="606" y="527"/>
      <point x="752" y="527" type="curve" smooth="yes"/>
      <point x="905" y="527"/>
      <point x="998" y="429"/>
      <point x="998" y="308" type="curve" smooth="yes"/>
      <point x="998" y="186"/>
      <point x="885" y="81"/>
      <point x="668" y="81" type="curve" smooth="yes"/>
      <point x="342" y="81"/>
      <point x="140" y="296"/>
      <point x="140" y="535" type="curve" smooth="yes"/>
      <point x="140" y="752"/>
      <point x="310" y="886"/>
      <point x="560" y="886" type="curve" smooth="yes"/>
      <point x="797" y="886" type="line"/>
      <point x="756" y="852" type="line"/>
    </contour>
    <contour>
      <point x="572.0" y="95.0" type="move" name="btm"/>
    </contour>
    <contour>
      <point x="743.0" y="1274.0" type="move" name="top"/>
    </contour>
  </outline>
</glyph>
<glyph name="tadeva" format="1">
  <advance width="1137"/>
  <unicode hex="0924"/>
  <outline>
    <contour>
      <point x="844" y="886" type="line"/>
      <point x="844" y="810" type="line"/>
      <point x="546" y="810" type="line" smooth="yes"/>
      <point x="327" y="810"/>
      <point x="229" y="706"/>
      <point x="229" y="552" type="curve" smooth="yes"/>
      <point x="229" y="418"/>
      <point x="270" y="286"/>
      <point x="456" y="32" type="curve"/>
      <point x="381" y="-2" type="line"/>
      <point x="199" y="247"/>
      <point x="144" y="416"/>
      <point x="144" y="567" type="curve" smooth="yes"/>
      <point x="144" y="751"/>
      <point x="265" y="886"/>
      <point x="513" y="886" type="curve" smooth="yes"/>
    </contour>
    <contour>
      <point x="-30" y="1198" type="curve"/>
      <point x="-30" y="1274" type="line"/>
      <point x="1167" y="1274" type="line"/>
      <point x="1167" y="1198" type="line"/>
      <point x="1167" y="1198"/>
      <point x="-30" y="1198"/>
    </contour>
    <contour>
      <point x="798" y="1226" type="line"/>
      <point x="887" y="1226" type="line"/>
      <point x="887" y="0" type="line"/>
      <point x="798" y="0" type="line"/>
    </contour>
    <contour>
      <point x="798" y="1274" type="move" name="top"/>
    </contour>
  </outline>
</glyph>
<glyph name="thadeva" format="1">
  <advance width="1262"/>
  <unicode hex="0925"/>
  <outline>
    <contour>
      <point x="607" y="1013" type="curve" smooth="yes"/>
      <point x="607" y="820"/>
      <point x="459" y="674"/>
      <point x="244" y="613" type="curve"/>
      <point x="251" y="676" type="line"/>
      <point x="331" y="527"/>
      <point x="484" y="439"/>
      <point x="618" y="439" type="curve" smooth="yes"/>
      <point x="752" y="439"/>
      <point x="871" y="497"/>
      <point x="975" y="633" type="curve"/>
      <point x="975" y="520" type="line"/>
      <point x="887" y="423"/>
      <point x="775" y="361"/>
      <point x="623" y="361" type="curve" smooth="yes"/>
      <point x="457" y="361"/>
      <point x="283" y="461"/>
      <point x="166" y="662" type="curve"/>
      <point x="166" y="667" type="line"/>
      <point x="421" y="747"/>
      <point x="529" y="853"/>
      <point x="529" y="1022" type="curve" smooth="yes"/>
      <point x="529" y="1136"/>
      <point x="449" y="1215"/>
      <point x="347" y="1215" type="curve" smooth="yes"/>
      <point x="267" y="1215"/>
      <point x="225" y="1161"/>
      <point x="225" y="1102" type="curve" smooth="yes"/>
      <point x="225" y="1016"/>
      <point x="302" y="940"/>
      <point x="531" y="940" type="curve"/>
      <point x="496" y="866" type="line"/>
      <point x="271" y="866"/>
      <point x="143" y="972"/>
      <point x="143" y="1111" type="curve" smooth="yes"/>
      <point x="143" y="1209"/>
      <point x="218" y="1297"/>
      <point x="341" y="1297" type="curve" smooth="yes"/>
      <point x="489" y="1297"/>
      <point x="607" y="1181"/>
    </contour>
    <contour>
      <point x="923" y="1226" type="line"/>
      <point x="1012" y="1226" type="line"/>
      <point x="1012" y="0" type="line"/>
      <point x="923" y="0" type="line"/>
    </contour>
    <contour>
      <point x="1292" y="1198" type="line"/>
      <point x="805" y="1198" type="line"/>
      <point x="805" y="1274" type="line"/>
      <point x="1292" y="1274" type="line"/>
    </contour>
    <contour>
      <point x="923.0" y="1274.0" type="move" name="top"/>
    </contour>
  </outline>
</glyph>
<glyph name="dadeva" format="1">
  <advance width="1042"/>
  <unicode hex="0926"/>
  <outline>
    <contour>
      <point x="-30" y="1198" type="curve"/>
      <point x="-30" y="1274" type="line"/>
      <point x="1072" y="1274" type="line"/>
      <point x="1072" y="1198" type="line"/>
      <point x="1072" y="1198"/>
      <point x="-30" y="1198"/>
    </contour>
    <contour>
      <point x="706" y="201" type="line"/>
      <point x="776" y="236" type="line"/>
      <point x="951" y="-128" type="line"/>
      <point x="877" y="-158" type="line"/>
    </contour>
    <contour>
      <point x="576" y="160" type="curve" smooth="yes"/>
      <point x="292" y="160"/>
      <point x="128" y="342"/>
      <point x="128" y="563" type="curve" smooth="yes"/>
      <point x="128" y="736"/>
      <point x="264" y="886"/>
      <point x="524" y="886" type="curve" smooth="yes"/>
      <point x="728" y="886" type="line"/>
      <point x="689" y="840" type="line"/>
      <point x="689" y="1248" type="line"/>
      <point x="778" y="1248" type="line"/>
      <point x="778" y="810" type="line"/>
      <point x="567" y="810" type="line" smooth="yes"/>
      <point x="302" y="810"/>
      <point x="213" y="684"/>
      <point x="213" y="538" type="curve" smooth="yes"/>
      <point x="213" y="384"/>
      <point x="342" y="240"/>
      <point x="572" y="240" type="curve" smooth="yes"/>
      <point x="632" y="240"/>
      <point x="677" y="249"/>
      <point x="762" y="281" type="curve"/>
      <point x="690" y="231" type="line"/>
      <point x="665" y="277"/>
      <point x="653" y="300"/>
      <point x="653" y="327" type="curve" smooth="yes"/>
      <point x="653" y="354"/>
      <point x="672" y="378"/>
      <point x="731" y="378" type="curve" smooth="yes"/>
      <point x="818" y="378"/>
      <point x="888" y="344"/>
      <point x="888" y="303" type="curve" smooth="yes"/>
      <point x="888" y="241"/>
      <point x="759" y="160"/>
    </contour>
    <contour>
      <point x="866" y="-133" type="move" name="btm"/>
    </contour>
    <contour>
      <point x="689" y="1274" type="move" name="top"/>
    </contour>
  </outline>
</glyph>
<glyph name="dhadeva" format="1">
  <advance width="1238"/>
  <unicode hex="0927"/>
  <outline>
    <contour>
      <point x="661" y="723" type="line"/>
      <point x="651" y="723" type="line" smooth="yes"/>
      <point x="408" y="723"/>
      <point x="336" y="603"/>
      <point x="336" y="493" type="curve" smooth="yes"/>
      <point x="336" y="382"/>
      <point x="434" y="294"/>
      <point x="566" y="294" type="curve" smooth="yes"/>
      <point x="693" y="294"/>
      <point x="814" y="339"/>
      <point x="918" y="451" type="curve"/>
      <point x="918" y="341" type="line"/>
      <point x="827" y="263"/>
      <point x="707" y="217"/>
      <point x="583" y="217" type="curve" smooth="yes"/>
      <point x="392" y="217"/>
      <point x="256" y="335"/>
      <point x="256" y="507" type="curve" smooth="yes"/>
      <point x="256" y="640"/>
      <point x="356" y="794"/>
      <point x="625" y="794" type="curve" smooth="yes"/>
      <point x="638" y="794" type="line"/>
    </contour>
    <contour>
      <point x="400" y="701" type="curve"/>
      <point x="165" y="752"/>
      <point x="34" y="897"/>
      <point x="34" y="1075" type="curve" smooth="yes"/>
      <point x="34" y="1224"/>
      <point x="139" y="1337"/>
      <point x="288" y="1337" type="curve" smooth="yes"/>
      <point x="420" y="1337"/>
      <point x="492" y="1251"/>
      <point x="492" y="1150" type="curve" smooth="yes"/>
      <point x="492" y="1046"/>
      <point x="388" y="919"/>
      <point x="156" y="894" type="curve"/>
      <point x="112" y="956" type="line"/>
      <point x="331" y="980"/>
      <point x="419" y="1077"/>
      <point x="419" y="1157" type="curve" smooth="yes"/>
      <point x="419" y="1218"/>
      <point x="372" y="1262"/>
      <point x="297" y="1262" type="curve" smooth="yes"/>
      <point x="184" y="1262"/>
      <point x="109" y="1173"/>
      <point x="109" y="1065" type="curve" smooth="yes"/>
      <point x="109" y="916"/>
      <point x="228" y="797"/>
      <point x="483" y="757" type="curve"/>
      <point x="483" y="757"/>
      <point x="400" y="701"/>
    </contour>
    <contour>
      <point x="899" y="1226" type="line"/>
      <point x="988" y="1226" type="line"/>
      <point x="988" y="0" type="line"/>
      <point x="899" y="0" type="line"/>
    </contour>
    <contour>
      <point x="1268" y="1198" type="line"/>
      <point x="791" y="1198" type="line"/>
      <point x="791" y="1274" type="line"/>
      <point x="1268" y="1274" type="line"/>
    </contour>
    <contour>
      <point x="899.0" y="1274.0" type="move" name="top"/>
    </contour>
  </outline>
</glyph>
<glyph name="nadeva" format="1">
  <advance width="1157"/>
  <unicode hex="0928"/>
  <outline>
    <contour>
      <point x="831" y="771" type="line"/>
      <point x="831" y="695" type="line"/>
      <point x="245" y="695" type="line"/>
      <point x="308" y="746" type="line"/>
      <point x="308" y="487" type="line" smooth="yes"/>
      <point x="308" y="453"/>
      <point x="293" y="437"/>
      <point x="274" y="437" type="curve" smooth="yes"/>
      <point x="261" y="437"/>
      <point x="252" y="442"/>
      <point x="240" y="454" type="curve" smooth="yes"/>
      <point x="207" y="487"/>
      <point x="151" y="626"/>
      <point x="151" y="718" type="curve" smooth="yes"/>
      <point x="151" y="750"/>
      <point x="169" y="771"/>
      <point x="207" y="771" type="curve" smooth="yes"/>
    </contour>
    <contour>
      <point x="-30" y="1198" type="curve"/>
      <point x="-30" y="1274" type="line"/>
      <point x="1187" y="1274" type="line"/>
      <point x="1187" y="1198" type="line"/>
      <point x="1187" y="1198"/>
      <point x="-30" y="1198"/>
    </contour>
    <contour>
      <point x="818" y="1226" type="line"/>
      <point x="907" y="1226" type="line"/>
      <point x="907" y="0" type="line"/>
      <point x="818" y="0" type="line"/>
    </contour>
    <contour>
      <point x="818" y="1274" type="move" name="top"/>
    </contour>
  </outline>
</glyph>
<glyph name="phadeva" format="1">
  <advance width="1519"/>
  <unicode hex="092B"/>
  <outline>
    <contour>
      <point x="257" y="1240" type="line"/>
      <point x="257" y="794" type="line" smooth="yes"/>
      <point x="257" y="624"/>
      <point x="341" y="549"/>
      <point x="495" y="549" type="curve" smooth="yes"/>
      <point x="593" y="549"/>
      <point x="684" y="575"/>
      <point x="776" y="631" type="curve"/>
      <point x="776" y="532" type="line"/>
      <point x="693" y="492"/>
      <point x="603" y="468"/>
      <point x="515" y="468" type="curve" smooth="yes"/>
      <point x="303" y="468"/>
      <point x="168" y="575"/>
      <point x="168" y="812" type="curve" smooth="yes"/>
      <point x="168" y="1240" type="line"/>
    </contour>
    <contour>
      <point x="-30" y="1198" type="curve"/>
      <point x="-30" y="1274" type="line"/>
      <point x="1549" y="1274" type="line"/>
      <point x="1549" y="1198" type="line"/>
      <point x="1549" y="1198"/>
      <point x="-30" y="1198"/>
    </contour>
    <contour>
      <point x="743" y="1226" type="line"/>
      <point x="832" y="1226" type="line"/>
      <point x="832" y="0" type="line"/>
      <point x="743" y="0" type="line"/>
    </contour>
    <contour>
      <point x="824" y="559" type="curve"/>
      <point x="803" y="646" type="line"/>
      <point x="873" y="702"/>
      <point x="987" y="763"/>
      <point x="1101" y="763" type="curve" smooth="yes"/>
      <point x="1293" y="763"/>
      <point x="1390" y="636"/>
      <point x="1390" y="475" type="curve" smooth="yes"/>
      <point x="1390" y="347"/>
      <point x="1339" y="231"/>
      <point x="1258" y="124" type="curve"/>
      <point x="1184" y="156" type="line"/>
      <point x="1265" y="261"/>
      <point x="1313" y="375"/>
      <point x="1313" y="477" type="curve" smooth="yes"/>
      <point x="1313" y="604"/>
      <point x="1240" y="683"/>
      <point x="1107" y="683" type="curve" smooth="yes"/>
      <point x="1004" y="683"/>
      <point x="900" y="624"/>
    </contour>
    <contour>
      <point x="743.0" y="0.0" type="move" name="btm"/>
    </contour>
    <contour>
      <point x="743.0" y="1274.0" type="move" name="top"/>
    </contour>
  </outline>
</glyph>
<glyph name="badeva" format="1">
  <advance width="1136"/>
  <unicode hex="092C"/>
  <outline>
    <contour>
      <point x="754" y="419" type="line"/>
      <point x="694" y="372" type="line"/>
      <point x="303" y="822" type="line"/>
      <point x="363" y="869" type="line"/>
    </contour>
    <contour>
      <point x="1166" y="1198" type="line"/>
      <point x="-30" y="1198" type="line"/>
      <point x="-30" y="1274" type="line"/>
      <point x="1166" y="1274" type="line"/>
    </contour>
    <contour>
      <point x="827" y="507" type="curve"/>
      <point x="825" y="402" type="line"/>
      <point x="743" y="325"/>
      <point x="632" y="282"/>
      <point x="510" y="282" type="curve" smooth="yes"/>
      <point x="289" y="282"/>
      <point x="134" y="444"/>
      <point x="134" y="649" type="curve" smooth="yes"/>
      <point x="134" y="834"/>
      <point x="281" y="945"/>
      <point x="477" y="945" type="curve" smooth="yes"/>
      <point x="609" y="945"/>
      <point x="725" y="916"/>
      <point x="853" y="864" type="curve"/>
      <point x="853" y="782" type="line"/>
      <point x="718" y="842"/>
      <point x="603" y="865"/>
      <point x="504" y="865" type="curve" smooth="yes"/>
      <point x="305" y="865"/>
      <point x="215" y="768"/>
      <point x="215" y="630" type="curve" smooth="yes"/>
      <point x="215" y="486"/>
      <point x="324" y="358"/>
      <point x="502" y="358" type="curve" smooth="yes"/>
      <point x="613" y="358"/>
      <point x="730" y="404"/>
    </contour>
    <contour>
      <point x="797" y="1226" type="line"/>
      <point x="886" y="1226" type="line"/>
      <point x="886" y="0" type="line"/>
      <point x="797" y="0" type="line"/>
    </contour>
    <contour>
      <point x="797" y="1274" type="move" name="top"/>
    </contour>
  </outline>
</glyph>
<glyph name="bhadeva" format="1">
  <advance width="1316"/>
  <unicode hex="092D"/>
  <outline>
    <contour>
      <point x="977" y="1226" type="line"/>
      <point x="1066" y="1226" type="line"/>
      <point x="1066" y="0" type="line"/>
      <point x="977" y="0" type="line"/>
    </contour>
    <contour>
      <point x="1346" y="1198" type="line"/>
      <point x="819" y="1198" type="line"/>
      <point x="819" y="1274" type="line"/>
      <point x="1346" y="1274" type="line"/>
    </contour>
    <contour>
      <point x="460" y="645" type="line"/>
      <point x="433" y="616" type="line"/>
      <point x="433" y="1032" type="line" smooth="yes"/>
      <point x="433" y="1152"/>
      <point x="377" y="1224"/>
      <point x="261" y="1224" type="curve" smooth="yes"/>
      <point x="170" y="1224"/>
      <point x="119" y="1166"/>
      <point x="119" y="1088" type="curve" smooth="yes"/>
      <point x="119" y="985"/>
      <point x="215" y="890"/>
      <point x="474" y="879" type="curve"/>
      <point x="444" y="809" type="line"/>
      <point x="179" y="825"/>
      <point x="37" y="935"/>
      <point x="37" y="1103" type="curve" smooth="yes"/>
      <point x="37" y="1204"/>
      <point x="114" y="1306"/>
      <point x="251" y="1306" type="curve" smooth="yes"/>
      <point x="437" y="1306"/>
      <point x="522" y="1194"/>
      <point x="522" y="1023" type="curve" smooth="yes"/>
      <point x="522" y="621" type="line"/>
      <point x="490" y="645" type="line"/>
      <point x="1035" y="645" type="line"/>
      <point x="1035" y="569" type="line"/>
      <point x="492" y="569" type="line"/>
      <point x="522" y="590" type="line"/>
      <point x="522" y="453" type="line" smooth="yes"/>
      <point x="522" y="427"/>
      <point x="512" y="413"/>
      <point x="492" y="413" type="curve" smooth="yes"/>
      <point x="471" y="413"/>
      <point x="436" y="435"/>
      <point x="396" y="475" type="curve" smooth="yes"/>
      <point x="344" y="527"/>
      <point x="309" y="582"/>
      <point x="309" y="609" type="curve" smooth="yes"/>
      <point x="309" y="631"/>
      <point x="321" y="645"/>
      <point x="355" y="645" type="curve" smooth="yes"/>
    </contour>
    <contour>
      <point x="977" y="1274" type="move" name="top"/>
    </contour>
  </outline>
</glyph>
<glyph name="madeva" format="1">
  <advance width="1172"/>
  <unicode hex="092E"/>
  <outline>
    <contour>
      <point x="-30" y="1198" type="curve"/>
      <point x="-30" y="1274" type="line"/>
      <point x="1202" y="1274" type="line"/>
      <point x="1202" y="1198" type="line"/>
      <point x="1202" y="1198"/>
      <point x="-30" y="1198"/>
    </contour>
    <contour>
      <point x="833" y="1226" type="line"/>
      <point x="922" y="1226" type="line"/>
      <point x="922" y="0" type="line"/>
      <point x="833" y="0" type="line"/>
    </contour>
    <contour>
      <point x="121" y="609" type="curve" smooth="yes"/>
      <point x="121" y="631"/>
      <point x="133" y="645"/>
      <point x="167" y="645" type="curve" smooth="yes"/>
      <point x="272" y="645" type="line"/>
      <point x="245" y="615" type="line"/>
      <point x="245" y="1238" type="line"/>
      <point x="334" y="1238" type="line"/>
      <point x="334" y="621" type="line"/>
      <point x="302" y="645" type="line"/>
      <point x="891" y="645" type="line"/>
      <point x="891" y="569" type="line"/>
      <point x="304" y="569" type="line"/>
      <point x="334" y="590" type="line"/>
      <point x="334" y="453" type="line" smooth="yes"/>
      <point x="334" y="427"/>
      <point x="324" y="413"/>
      <point x="304" y="413" type="curve" smooth="yes"/>
      <point x="283" y="413"/>
      <point x="248" y="435"/>
      <point x="208" y="475" type="curve" smooth="yes"/>
      <point x="156" y="527"/>
      <point x="121" y="582"/>
    </contour>
    <contour>
      <point x="833" y="1274" type="move" name="top"/>
    </contour>
  </outline>
</glyph>
<glyph name="yadeva" format="1">
  <advance width="1207"/>
  <unicode hex="092F"/>
  <outline>
    <contour>
      <point x="-30" y="1198" type="curve"/>
      <point x="-30" y="1274" type="line"/>
      <point x="1237" y="1274" type="line"/>
      <point x="1237" y="1198" type="line"/>
      <point x="1237" y="1198"/>
      <point x="-30" y="1198"/>
    </contour>
    <contour>
      <point x="402" y="1218" type="line"/>
      <point x="491" y="1218" type="line"/>
      <point x="491" y="1015" type="line" smooth="yes"/>
      <point x="491" y="812"/>
      <point x="397" y="684"/>
      <point x="191" y="603" type="curve"/>
      <point x="198" y="666" type="line"/>
      <point x="278" y="515"/>
      <point x="432" y="409"/>
      <point x="575" y="409" type="curve" smooth="yes"/>
      <point x="698" y="409"/>
      <point x="816" y="458"/>
      <point x="920" y="594" type="curve"/>
      <point x="919" y="479" type="line"/>
      <point x="832" y="382"/>
      <point x="721" y="330"/>
      <point x="580" y="330" type="curve" smooth="yes"/>
      <point x="401" y="330"/>
      <point x="228" y="450"/>
      <point x="112" y="652" type="curve"/>
      <point x="112" y="657" type="line"/>
      <point x="358" y="757"/>
      <point x="402" y="857"/>
      <point x="402" y="1024" type="curve" smooth="yes"/>
    </contour>
    <contour>
      <point x="868" y="1226" type="line"/>
      <point x="957" y="1226" type="line"/>
      <point x="957" y="0" type="line"/>
      <point x="868" y="0" type="line"/>
    </contour>
    <contour>
      <point x="868" y="1274" type="move" name="top"/>
    </contour>
  </outline>
</glyph>
<glyph name="rradeva" format="1">
  <advance width="818"/>
  <unicode hex="0931"/>
  <outline>
    <component base="nuktadeva" xOffset="928" yOffset="316"/>
    <component base="radeva"/>
    <contour>
      <point x="517.0" y="1274.0" type="move" name="top"/>
    </contour>
    <contour>
      <point x="369.0" y="-23.0" type="move" name="btm"/>
    </contour>
  </outline>
</glyph>
<glyph name="ladeva" format="1">
  <advance width="1416"/>
  <unicode hex="0932"/>
  <outline>
    <contour>
      <point x="835" y="660" type="curve"/>
      <point x="781" y="600" type="line"/>
      <point x="663" y="740"/>
      <point x="556" y="795"/>
      <point x="439" y="795" type="curve" smooth="yes"/>
      <point x="301" y="795"/>
      <point x="204" y="689"/>
      <point x="204" y="559" type="curve" smooth="yes"/>
      <point x="204" y="402"/>
      <point x="280" y="283"/>
      <point x="491" y="94" type="curve"/>
      <point x="430" y="42" type="line"/>
      <point x="231" y="226"/>
      <point x="122" y="375"/>
      <point x="122" y="572" type="curve" smooth="yes"/>
      <point x="122" y="740"/>
      <point x="244" y="876"/>
      <point x="435" y="876" type="curve" smooth="yes"/>
      <point x="579" y="876"/>
      <point x="703" y="813"/>
    </contour>
    <contour>
      <point x="1077" y="1226" type="line"/>
      <point x="1166" y="1226" type="line"/>
      <point x="1166" y="0" type="line"/>
      <point x="1077" y="0" type="line"/>
    </contour>
    <contour>
      <point x="-30" y="1198" type="curve"/>
      <point x="-30" y="1274" type="line"/>
      <point x="1446" y="1274" type="line"/>
      <point x="1446" y="1198" type="line"/>
      <point x="1446" y="1198"/>
      <point x="-30" y="1198"/>
    </contour>
    <contour>
      <point x="1105" y="910" type="line"/>
      <point x="1105" y="799" type="line"/>
      <point x="608" y="353" type="line"/>
      <point x="552" y="412" type="line"/>
    </contour>
    <contour>
      <point x="1077" y="1274" type="move" name="top"/>
    </contour>
  </outline>
</glyph>
<glyph name="lladeva" format="1">
  <advance width="1571"/>
  <unicode hex="0933"/>
  <outline>
    <contour>
      <point x="1601" y="1198" type="line"/>
      <point x="-30" y="1198" type="line"/>
      <point x="-30" y="1274" type="line"/>
      <point x="1601" y="1274" type="line"/>
    </contour>
    <contour>
      <point x="732" y="532" type="curve" smooth="yes"/>
      <point x="826" y="757"/>
      <point x="935" y="886"/>
      <point x="1111" y="886" type="curve" smooth="yes"/>
      <point x="1301" y="886"/>
      <point x="1427" y="730"/>
      <point x="1427" y="511" type="curve" smooth="yes"/>
      <point x="1427" y="292"/>
      <point x="1283" y="165"/>
      <point x="1112" y="165" type="curve" smooth="yes"/>
      <point x="955" y="165"/>
      <point x="832" y="236"/>
      <point x="687" y="373" type="curve"/>
      <point x="729" y="439" type="line"/>
      <point x="855" y="305"/>
      <point x="995" y="243"/>
      <point x="1106" y="243" type="curve" smooth="yes"/>
      <point x="1249" y="243"/>
      <point x="1350" y="356"/>
      <point x="1350" y="532" type="curve" smooth="yes"/>
      <point x="1350" y="686"/>
      <point x="1237" y="804"/>
      <point x="1116" y="804" type="curve" smooth="yes"/>
      <point x="980" y="804"/>
      <point x="884" y="700"/>
      <point x="809" y="509" type="curve" smooth="yes"/>
      <point x="722" y="286"/>
      <point x="604" y="165"/>
      <point x="440" y="165" type="curve" smooth="yes"/>
      <point x="281" y="165"/>
      <point x="119" y="287"/>
      <point x="119" y="526" type="curve" smooth="yes"/>
      <point x="119" y="734"/>
      <point x="259" y="886"/>
      <point x="440" y="886" type="curve" smooth="yes"/>
      <point x="604" y="886"/>
      <point x="728" y="802"/>
      <point x="856" y="673" type="curve"/>
      <point x="824" y="597" type="line"/>
      <point x="679" y="747"/>
      <point x="565" y="804"/>
      <point x="450" y="804" type="curve" smooth="yes"/>
      <point x="306" y="804"/>
      <point x="201" y="695"/>
      <point x="201" y="507" type="curve" smooth="yes"/>
      <point x="201" y="340"/>
      <point x="315" y="243"/>
      <point x="425" y="243" type="curve" smooth="yes"/>
      <point x="552" y="243"/>
      <point x="651" y="339"/>
    </contour>
    <contour>
      <point x="1321" y="773" type="line"/>
      <point x="1232" y="773" type="line"/>
      <point x="1232" y="1226" type="line"/>
      <point x="1321" y="1226" type="line"/>
    </contour>
    <contour>
      <point x="1064" y="32" type="move" name="btm"/>
    </contour>
    <contour>
      <point x="1166" y="1274" type="move" name="top"/>
    </contour>
  </outline>
</glyph>
<glyph name="vadeva" format="1">
  <advance width="1136"/>
  <unicode hex="0935"/>
  <outline>
    <contour>
      <point x="1166" y="1198" type="line"/>
      <point x="-30" y="1198" type="line"/>
      <point x="-30" y="1274" type="line"/>
      <point x="1166" y="1274" type="line"/>
    </contour>
    <contour>
      <point x="827" y="510" type="curve"/>
      <point x="825" y="405" type="line"/>
      <point x="743" y="328"/>
      <point x="632" y="284"/>
      <point x="510" y="284" type="curve" smooth="yes"/>
      <point x="289" y="284"/>
      <point x="134" y="444"/>
      <point x="134" y="649" type="curve" smooth="yes"/>
      <point x="134" y="834"/>
      <point x="281" y="944"/>
      <point x="477" y="944" type="curve" smooth="yes"/>
      <point x="609" y="944"/>
      <point x="725" y="915"/>
      <point x="853" y="863" type="curve"/>
      <point x="853" y="781" type="line"/>
      <point x="718" y="841"/>
      <point x="603" y="864"/>
      <point x="504" y="864" type="curve" smooth="yes"/>
      <point x="305" y="864"/>
      <point x="215" y="768"/>
      <point x="215" y="630" type="curve" smooth="yes"/>
      <point x="215" y="486"/>
      <point x="324" y="360"/>
      <point x="502" y="360" type="curve" smooth="yes"/>
      <point x="613" y="360"/>
      <point x="730" y="407"/>
    </contour>
    <contour>
      <point x="797" y="1226" type="line"/>
      <point x="886" y="1226" type="line"/>
      <point x="886" y="0" type="line"/>
      <point x="797" y="0" type="line"/>
    </contour>
    <contour>
      <point x="797" y="1274" type="move" name="top"/>
    </contour>
  </outline>
</glyph>
<glyph name="shadeva" format="1">
  <advance width="1417"/>
  <unicode hex="0936"/>
  <outline>
    <contour>
      <point x="339" y="535" type="line"/>
      <point x="735" y="72" type="line"/>
      <point x="672" y="19" type="line"/>
      <point x="278" y="484" type="line"/>
    </contour>
    <contour>
      <point x="743" y="584"/>
      <point x="388" y="418"/>
      <point x="189" y="418" type="curve" smooth="yes"/>
      <point x="139" y="418"/>
      <point x="120" y="450"/>
      <point x="120" y="501" type="curve" smooth="yes"/>
      <point x="120" y="561"/>
      <point x="158" y="636"/>
      <point x="215" y="636" type="curve" smooth="yes"/>
      <point x="256" y="636"/>
      <point x="301" y="596"/>
      <point x="360" y="516" type="curve"/>
      <point x="265" y="506" type="line"/>
      <point x="508" y="565"/>
      <point x="666" y="720"/>
      <point x="666" y="922" type="curve" smooth="yes"/>
      <point x="666" y="1076"/>
      <point x="551" y="1223"/>
      <point x="386" y="1223" type="curve" smooth="yes"/>
      <point x="264" y="1223"/>
      <point x="223" y="1156"/>
      <point x="223" y="1087" type="curve" smooth="yes"/>
      <point x="223" y="969"/>
      <point x="363" y="878"/>
      <point x="697" y="879" type="curve"/>
      <point x="671" y="805" type="line"/>
      <point x="294" y="808"/>
      <point x="142" y="931"/>
      <point x="142" y="1102" type="curve" smooth="yes"/>
      <point x="142" y="1204"/>
      <point x="217" y="1304"/>
      <point x="376" y="1304" type="curve" smooth="yes"/>
      <point x="584" y="1304"/>
      <point x="743" y="1141"/>
      <point x="743" y="921" type="curve" smooth="yes"/>
    </contour>
    <contour>
      <point x="1078" y="1226" type="line"/>
      <point x="1167" y="1226" type="line"/>
      <point x="1167" y="0" type="line"/>
      <point x="1078" y="0" type="line"/>
    </contour>
    <contour>
      <point x="1447" y="1198" type="line"/>
      <point x="830" y="1198" type="line"/>
      <point x="830" y="1274" type="line"/>
      <point x="1447" y="1274" type="line"/>
    </contour>
    <contour>
      <point x="1078" y="1274" type="move" name="top"/>
    </contour>
  </outline>
</glyph>
<glyph name="ssadeva" format="1">
  <advance width="1100"/>
  <unicode hex="0937"/>
  <outline>
    <contour>
      <point x="808" y="569" type="line"/>
      <point x="744" y="522" type="line"/>
      <point x="205" y="1181" type="line"/>
      <point x="269" y="1228" type="line"/>
    </contour>
    <contour>
      <point x="1130" y="1198" type="line"/>
      <point x="-30" y="1198" type="line"/>
      <point x="-30" y="1274" type="line"/>
      <point x="1130" y="1274" type="line"/>
    </contour>
    <contour>
      <point x="254" y="1240" type="line"/>
      <point x="254" y="755" type="line" smooth="yes"/>
      <point x="254" y="580"/>
      <point x="345" y="510"/>
      <point x="497" y="510" type="curve" smooth="yes"/>
      <point x="598" y="510"/>
      <point x="699" y="537"/>
      <point x="794" y="601" type="curve"/>
      <point x="794" y="502" type="line"/>
      <point x="714" y="459"/>
      <point x="611" y="429"/>
      <point x="514" y="429" type="curve" smooth="yes"/>
      <point x="306" y="429"/>
      <point x="168" y="534"/>
      <point x="168" y="772" type="curve" smooth="yes"/>
      <point x="168" y="1240" type="line"/>
    </contour>
    <contour>
      <point x="761" y="1226" type="line"/>
      <point x="850" y="1226" type="line"/>
      <point x="850" y="0" type="line"/>
      <point x="761" y="0" type="line"/>
    </contour>
    <contour>
      <point x="761" y="1274" type="move" name="top"/>
    </contour>
  </outline>
</glyph>
<glyph name="sadeva" format="1">
  <advance width="1404"/>
  <unicode hex="0938"/>
  <outline>
    <contour>
      <point x="674" y="53" type="line"/>
      <point x="610" y="4" type="line"/>
      <point x="79" y="745" type="line" smooth="yes"/>
      <point x="65" y="765"/>
      <point x="55" y="777"/>
      <point x="55" y="795" type="curve" smooth="yes"/>
      <point x="55" y="816"/>
      <point x="72" y="833"/>
      <point x="96" y="833" type="curve" smooth="yes"/>
      <point x="110" y="833"/>
      <point x="123" y="826"/>
      <point x="134" y="810" type="curve" smooth="yes"/>
      <point x="308" y="565" type="line"/>
      <point x="322" y="545" type="line"/>
    </contour>
    <contour>
      <point x="218" y="580" type="line"/>
      <point x="409" y="621"/>
      <point x="497" y="743"/>
      <point x="497" y="930" type="curve" smooth="yes"/>
      <point x="497" y="1228" type="line"/>
      <point x="586" y="1228" type="line"/>
      <point x="586" y="917" type="line" smooth="yes"/>
      <point x="586" y="744"/>
      <point x="522" y="569"/>
      <point x="272" y="514" type="curve"/>
    </contour>
    <contour>
      <point x="-30" y="1198" type="line"/>
      <point x="-30" y="1274" type="line"/>
      <point x="1434" y="1274" type="line"/>
      <point x="1434" y="1198" type="line"/>
    </contour>
    <contour>
      <point x="461" y="630" type="curve"/>
      <point x="483" y="705" type="line"/>
      <point x="609" y="653"/>
      <point x="735" y="632"/>
      <point x="819" y="632" type="curve" smooth="yes"/>
      <point x="914" y="632"/>
      <point x="1023" y="651"/>
      <point x="1087" y="679" type="curve"/>
      <point x="1087" y="594" type="line"/>
      <point x="1041" y="572"/>
      <point x="939" y="552"/>
      <point x="835" y="552" type="curve" smooth="yes"/>
      <point x="723" y="552"/>
      <point x="593" y="576"/>
    </contour>
    <contour>
      <point x="1065" y="1226" type="line"/>
      <point x="1154" y="1226" type="line"/>
      <point x="1154" y="0" type="line"/>
      <point x="1065" y="0" type="line"/>
    </contour>
    <contour>
      <point x="1065" y="1274" type="move" name="top"/>
    </contour>
  </outline>
</glyph>
<glyph name="hadeva" format="1">
  <advance width="1144"/>
  <unicode hex="0939"/>
  <outline>
    <contour>
      <point x="806" y="1238" type="line"/>
      <point x="895" y="1238" type="line"/>
      <point x="895" y="875" type="line"/>
      <point x="402" y="875" type="line" smooth="yes"/>
      <point x="268" y="875"/>
      <point x="209" y="809"/>
      <point x="209" y="731" type="curve" smooth="yes"/>
      <point x="209" y="634"/>
      <point x="280" y="570"/>
      <point x="390" y="534" type="curve"/>
      <point x="347" y="468" type="line"/>
      <point x="211" y="528"/>
      <point x="131" y="629"/>
      <point x="131" y="739" type="curve" smooth="yes"/>
      <point x="131" y="858"/>
      <point x="212" y="951"/>
      <point x="412" y="951" type="curve" smooth="yes"/>
      <point x="845" y="951" type="line"/>
      <point x="806" y="912" type="line"/>
    </contour>
    <contour>
      <point x="618" y="621" type="curve" smooth="yes"/>
      <point x="843" y="621"/>
      <point x="976" y="498"/>
      <point x="976" y="339" type="curve" smooth="yes"/>
      <point x="976" y="262"/>
      <point x="950" y="191"/>
      <point x="913" y="133" type="curve"/>
      <point x="839" y="160" type="line"/>
      <point x="876" y="211"/>
      <point x="897" y="275"/>
      <point x="897" y="338" type="curve" smooth="yes"/>
      <point x="897" y="443"/>
      <point x="805" y="540"/>
      <point x="622" y="541" type="curve" smooth="yes"/>
      <point x="437" y="542"/>
      <point x="331" y="417"/>
      <point x="331" y="260" type="curve" smooth="yes"/>
      <point x="331" y="70"/>
      <point x="484" y="-80"/>
      <point x="889" y="-125" type="curve"/>
      <point x="866" y="-199" type="line"/>
      <point x="455" y="-158"/>
      <point x="249" y="20"/>
      <point x="249" y="272" type="curve" smooth="yes"/>
      <point x="249" y="462"/>
      <point x="384" y="621"/>
    </contour>
    <contour>
      <point x="1174" y="1198" type="line"/>
      <point x="-30" y="1198" type="line"/>
      <point x="-30" y="1274" type="line"/>
      <point x="1174" y="1274" type="line"/>
    </contour>
    <contour>
      <point x="806" y="1274" type="move" name="top"/>
    </contour>
  </outline>
</glyph>
<glyph name="aavowelsigndeva" format="1">
  <advance width="567"/>
  <unicode hex="093E"/>
  <outline>
    <contour>
      <point x="228" y="1226" type="line"/>
      <point x="317" y="1226" type="line"/>
      <point x="317" y="0" type="line"/>
      <point x="228" y="0" type="line"/>
    </contour>
    <contour>
      <point x="597" y="1198" type="line"/>
      <point x="-30" y="1198" type="line"/>
      <point x="-30" y="1274" type="line"/>
      <point x="597" y="1274" type="line"/>
    </contour>
  </outline>
</glyph>
<glyph name="iivowelsigndeva" format="1">
  <advance width="567"/>
  <unicode hex="0940"/>
  <outline>
    <contour>
      <point x="232" y="1239" type="curve"/>
      <point x="141" y="1497"/>
      <point x="-21" y="1660"/>
      <point x="-178" y="1660" type="curve" smooth="yes"/>
      <point x="-290" y="1660"/>
      <point x="-345" y="1581"/>
      <point x="-345" y="1493" type="curve" smooth="yes"/>
      <point x="-345" y="1419"/>
      <point x="-320" y="1344"/>
      <point x="-257" y="1260" type="curve"/>
      <point x="-350" y="1260" type="line"/>
      <point x="-398" y="1344"/>
      <point x="-426" y="1420"/>
      <point x="-426" y="1504" type="curve" smooth="yes"/>
      <point x="-426" y="1630"/>
      <point x="-337" y="1741"/>
      <point x="-188" y="1741" type="curve" smooth="yes"/>
      <point x="14" y="1741"/>
      <point x="199" y="1576"/>
      <point x="321" y="1239" type="curve"/>
      <point x="321" y="1239"/>
      <point x="232" y="1239"/>
    </contour>
    <component base="aavowelsigndeva"/>
  </outline>
</glyph>
<glyph name="eshortvowelsigndeva" format="1">
  <advance width="0"/>
  <unicode hex="0946"/>
  <outline>
    <contour>
      <point x="-342" y="1244" type="line"/>
      <point x="-342" y="1397" type="line" smooth="yes"/>
      <point x="-342" y="1484"/>
      <point x="-386" y="1529"/>
      <point x="-452" y="1529" type="curve" smooth="yes"/>
      <point x="-529" y="1529"/>
      <point x="-608" y="1480"/>
      <point x="-711" y="1480" type="curve" smooth="yes"/>
      <point x="-811" y="1480"/>
      <point x="-880" y="1520"/>
      <point x="-953" y="1599" type="curve"/>
      <point x="-916" y="1664" type="line"/>
      <point x="-835" y="1587"/>
      <point x="-786" y="1561"/>
      <point x="-716" y="1561" type="curve" smooth="yes"/>
      <point x="-632" y="1561"/>
      <point x="-543" y="1617"/>
      <point x="-443" y="1617" type="curve" smooth="yes"/>
      <point x="-338" y="1617"/>
      <point x="-253" y="1543"/>
      <point x="-253" y="1407" type="curve" smooth="yes"/>
      <point x="-253" y="1244" type="line"/>
    </contour>
    <contour>
      <point x="-342.0" y="1274.0" type="move" name="_top"/>
    </contour>
  </outline>
</glyph>
<glyph name="aivowelsigndeva" format="1">
  <advance width="0"/>
  <unicode hex="0948"/>
  <outline>
    <contour>
      <point x="-474" y="1244" type="line"/>
      <point x="-1046" y="1610" type="line"/>
      <point x="-1001" y="1685" type="line"/>
      <point x="-328" y="1244" type="line"/>
    </contour>
    <contour>
      <point x="-341" y="1243" type="line"/>
      <point x="-576" y="1787" type="line"/>
      <point x="-494" y="1818" type="line"/>
      <point x="-247" y="1244" type="line"/>
    </contour>
    <contour>
      <point x="-342" y="1274" type="move" name="_top"/>
    </contour>
  </outline>
</glyph>
<glyph name="viramadeva" format="1">
  <advance width="0"/>
  <unicode hex="094D"/>
  <outline>
    <contour>
      <point x="-360" y="-99" type="line"/>
      <point x="87" y="-341" type="line"/>
      <point x="51" y="-405" type="line"/>
      <point x="-396" y="-164" type="line"/>
    </contour>
    <contour>
      <point x="-339" y="0" type="move" name="_btm"/>
    </contour>
  </outline>
</glyph>
<glyph name="awvowelsigndevaKSH" format="1">
  <advance width="567"/>
  <unicode hex="094F"/>
  <outline>
    <contour>
      <point x="228" y="1244" type="line"/>
      <point x="228" y="1525" type="line" smooth="yes"/>
      <point x="228" y="1598"/>
      <point x="197" y="1640"/>
      <point x="137" y="1640" type="curve" smooth="yes"/>
      <point x="67" y="1640"/>
      <point x="11" y="1602"/>
      <point x="-82" y="1602" type="curve" smooth="yes"/>
      <point x="-172" y="1602"/>
      <point x="-244" y="1641"/>
      <point x="-310" y="1710" type="curve"/>
      <point x="-276" y="1775" type="line"/>
      <point x="-203" y="1706"/>
      <point x="-144" y="1684"/>
      <point x="-86" y="1684" type="curve" smooth="yes"/>
      <point x="-11" y="1684"/>
      <point x="56" y="1726"/>
      <point x="146" y="1726" type="curve" smooth="yes"/>
      <point x="245" y="1726"/>
      <point x="317" y="1655"/>
      <point x="317" y="1533" type="curve" smooth="yes"/>
      <point x="317" y="1244" type="line"/>
    </contour>
    <contour>
      <point x="220" y="1224" type="line"/>
      <point x="150" y="1319" type="line" smooth="yes"/>
      <point x="100" y="1387"/>
      <point x="56" y="1418"/>
      <point x="-17" y="1418" type="curve" smooth="yes"/>
      <point x="-94" y="1418"/>
      <point x="-189" y="1380"/>
      <point x="-282" y="1380" type="curve" smooth="yes"/>
      <point x="-372" y="1380"/>
      <point x="-463" y="1419"/>
      <point x="-535" y="1497" type="curve"/>
      <point x="-501" y="1563" type="line"/>
      <point x="-422" y="1488"/>
      <point x="-354" y="1463"/>
      <point x="-286" y="1463" type="curve" smooth="yes"/>
      <point x="-211" y="1463"/>
      <point x="-98" y="1507"/>
      <point x="-8" y="1507" type="curve" smooth="yes"/>
      <point x="87" y="1507"/>
      <point x="156" y="1461"/>
      <point x="230" y="1352" type="curve" smooth="yes"/>
      <point x="323" y="1224" type="line"/>
    </contour>
    <component base="aavowelsigndeva"/>
  </outline>
</glyph>
<glyph name="uni0954" format="1">
  <advance width="0"/>
  <unicode hex="0954"/>
  <outline>
    <contour>
      <point x="-199" y="1813" type="line"/>
      <point x="-54" y="1813" type="line"/>
      <point x="-260" y="1467" type="line"/>
      <point x="-329" y="1467" type="line"/>
    </contour>
    <contour>
      <point x="0" y="-30" type="move" name="x4"/>
    </contour>
    <contour>
      <point x="-342" y="1274" type="move" name="_top"/>
    </contour>
  </outline>
</glyph>
<glyph name="uevowelsigndevaKSH" format="1">
  <advance width="0"/>
  <unicode hex="0956"/>
  <outline>
    <contour>
      <point x="86" y="-202" type="line"/>
      <point x="-6" y="-304"/>
      <point x="-136" y="-364"/>
      <point x="-280" y="-364" type="curve" smooth="yes"/>
      <point x="-425" y="-364"/>
      <point x="-558" y="-311"/>
      <point x="-671" y="-212" type="curve"/>
      <point x="-639" y="-139" type="line"/>
      <point x="-530" y="-237"/>
      <point x="-405" y="-279"/>
      <point x="-291" y="-279" type="curve" smooth="yes"/>
      <point x="-159" y="-279"/>
      <point x="-39" y="-229"/>
      <point x="51" y="-133" type="curve"/>
    </contour>
    <contour>
      <point x="-339" y="0" type="move" name="_btm"/>
    </contour>
  </outline>
</glyph>
<glyph name="uuevowelsigndevaKSH" format="1">
  <advance width="0"/>
  <unicode hex="0957"/>
  <outline>
    <component base="uevowelsigndevaKSH" yScale="0.92" yOffset="-11"/>
    <component base="uevowelsigndevaKSH" xScale="1.05" yScale="0.9" xOffset="14" yOffset="-239"/>
    <contour>
      <point x="-339" y="0" type="move" name="_btm"/>
    </contour>
  </outline>
</glyph>
<glyph name="khhadeva" format="1">
  <advance width="1593"/>
  <unicode hex="0959"/>
  <outline>
    <component base="nuktadeva" xOffset="960" yOffset="316"/>
    <component base="khadeva"/>
    <contour>
      <point x="1254" y="1274" type="move" name="top"/>
    </contour>
  </outline>
</glyph>
<glyph name="ghhadeva" format="1">
  <advance width="1183"/>
  <unicode hex="095A"/>
  <outline>
    <component base="nuktadeva" xOffset="1081" yOffset="316"/>
    <component base="gadeva"/>
    <contour>
      <point x="844" y="1274" type="move" name="top"/>
    </contour>
  </outline>
</glyph>
<glyph name="fadeva" format="1">
  <advance width="1529"/>
  <unicode hex="095E"/>
  <outline>
    <component base="phadeva"/>
    <component base="nuktadeva" xOffset="1035" yOffset="385"/>
    <contour>
      <point x="743" y="0" type="move" name="btm"/>
    </contour>
    <contour>
      <point x="743.0" y="1274.0" type="move" name="top"/>
    </contour>
  </outline>
</glyph>
<glyph name="rrvocalicdeva" format="1">
  <advance width="1579"/>
  <unicode hex="0960"/>
  <outline>
    <contour>
      <point x="794" y="637" type="line"/>
      <point x="828" y="633"/>
      <point x="856" y="630"/>
      <point x="909" y="630" type="curve" smooth="yes"/>
      <point x="1027" y="630"/>
      <point x="1135" y="664"/>
      <point x="1204" y="739" type="curve"/>
      <point x="1174" y="670" type="line"/>
      <point x="1136" y="712"/>
      <point x="1127" y="735"/>
      <point x="1127" y="759" type="curve" smooth="yes"/>
      <point x="1127" y="786"/>
      <point x="1149" y="811"/>
      <point x="1212" y="810" type="curve" smooth="yes"/>
      <point x="1274" y="809"/>
      <point x="1318" y="786"/>
      <point x="1318" y="751" type="curve" smooth="yes"/>
      <point x="1318" y="683"/>
      <point x="1125" y="551"/>
      <point x="911" y="551" type="curve" smooth="yes"/>
      <point x="861" y="551"/>
      <point x="821" y="555"/>
      <point x="765" y="565" type="curve"/>
    </contour>
    <contour>
      <point x="1040" y="1198" type="line"/>
      <point x="1040" y="1274" type="line"/>
      <point x="1609" y="1274" type="line"/>
      <point x="1609" y="1198" type="line"/>
    </contour>
    <contour>
      <point x="1212" y="175" type="curve" smooth="yes"/>
      <point x="1212" y="102"/>
      <point x="1277" y="46"/>
      <point x="1372" y="46" type="curve" smooth="yes"/>
      <point x="1429" y="46"/>
      <point x="1479" y="53"/>
      <point x="1541" y="85" type="curve"/>
      <point x="1557" y="14" type="line"/>
      <point x="1502" y="-14"/>
      <point x="1441" y="-26"/>
      <point x="1372" y="-26" type="curve" smooth="yes"/>
      <point x="1246" y="-26"/>
      <point x="1139" y="60"/>
      <point x="1139" y="182" type="curve" smooth="yes"/>
      <point x="1139" y="287"/>
      <point x="1225" y="384"/>
      <point x="1391" y="440" type="curve"/>
      <point x="1364" y="404" type="line"/>
      <point x="1190" y="656" type="line"/>
      <point x="1248" y="700" type="line"/>
      <point x="1441" y="410" type="line"/>
      <point x="1433" y="381" type="line"/>
      <point x="1287" y="334"/>
      <point x="1212" y="260"/>
    </contour>
    <component base="taradeva"/>
    <contour>
      <point x="-30.0" y="-30.0" type="move" name="x92"/>
    </contour>
    <contour>
      <point x="731.0" y="1274.0" type="move" name="top"/>
    </contour>
  </outline>
</glyph>
<glyph name="onedeva" format="1">
  <advance width="810"/>
  <unicode hex="0967"/>
  <outline>
    <contour>
      <point x="174" y="459" type="line"/>
      <point x="451" y="710" type="line" smooth="yes"/>
      <point x="584" y="830"/>
      <point x="624" y="901"/>
      <point x="624" y="997" type="curve" smooth="yes"/>
      <point x="624" y="1116"/>
      <point x="534" y="1205"/>
      <point x="406" y="1205" type="curve" smooth="yes"/>
      <point x="274" y="1205"/>
      <point x="200" y="1114"/>
      <point x="200" y="1009" type="curve" smooth="yes"/>
      <point x="200" y="887"/>
      <point x="328" y="778"/>
      <point x="579" y="784" type="curve"/>
      <point x="522" y="716" type="line"/>
      <point x="273" y="717"/>
      <point x="120" y="857"/>
      <point x="120" y="1023" type="curve" smooth="yes"/>
      <point x="120" y="1160"/>
      <point x="229" y="1282"/>
      <point x="400" y="1283" type="curve" smooth="yes"/>
      <point x="581" y="1284"/>
      <point x="700" y="1152"/>
      <point x="700" y="993" type="curve" smooth="yes"/>
      <point x="700" y="885"/>
      <point x="643" y="783"/>
      <point x="531" y="679" type="curve" smooth="yes"/>
      <point x="251" y="419" type="line"/>
      <point x="246" y="484" type="line"/>
      <point x="590" y="217" type="line" smooth="yes"/>
      <point x="650" y="170"/>
      <point x="681" y="118"/>
      <point x="682" y="61" type="curve" smooth="yes"/>
      <point x="683" y="5"/>
      <point x="666" y="-33"/>
      <point x="630" y="-77" type="curve"/>
      <point x="559" y="-55" type="line"/>
      <point x="590" y="-17"/>
      <point x="610" y="18"/>
      <point x="610" y="58" type="curve" smooth="yes"/>
      <point x="610" y="94"/>
      <point x="588" y="129"/>
      <point x="532" y="172" type="curve" smooth="yes"/>
      <point x="174" y="445" type="line"/>
    </contour>
  </outline>
</glyph>
<glyph name="sixdeva" format="1">
  <advance width="912"/>
  <unicode hex="096C"/>
  <outline>
    <contour>
      <point x="724" y="225" type="line"/>
      <point x="794" y="260" type="line"/>
      <point x="931" y="-47" type="line"/>
      <point x="857" y="-77" type="line"/>
    </contour>
    <contour>
      <point x="291" y="459" type="curve" smooth="yes"/>
      <point x="291" y="344"/>
      <point x="402" y="235"/>
      <point x="565" y="235" type="curve" smooth="yes"/>
      <point x="645" y="235"/>
      <point x="695" y="249"/>
      <point x="790" y="291" type="curve"/>
      <point x="715" y="243" type="line"/>
      <point x="690" y="289"/>
      <point x="677" y="322"/>
      <point x="677" y="349" type="curve" smooth="yes"/>
      <point x="677" y="376"/>
      <point x="698" y="399"/>
      <point x="756" y="399" type="curve" smooth="yes"/>
      <point x="843" y="399"/>
      <point x="906" y="368"/>
      <point x="906" y="327" type="curve" smooth="yes"/>
      <point x="906" y="270"/>
      <point x="779" y="159"/>
      <point x="573" y="159" type="curve" smooth="yes"/>
      <point x="351" y="159"/>
      <point x="212" y="299"/>
      <point x="212" y="480" type="curve" smooth="yes"/>
      <point x="212" y="644"/>
      <point x="351" y="812"/>
      <point x="671" y="812" type="curve" smooth="yes"/>
      <point x="671" y="812"/>
      <point x="704" y="738"/>
      <point x="704" y="738" type="curve" smooth="yes"/>
      <point x="399" y="738"/>
      <point x="291" y="610"/>
    </contour>
    <contour>
      <point x="313" y="661" type="line"/>
      <point x="204" y="722"/>
      <point x="118" y="825"/>
      <point x="118" y="961" type="curve" smooth="yes"/>
      <point x="118" y="1103"/>
      <point x="232" y="1256"/>
      <point x="569" y="1256" type="curve"/>
      <point x="596" y="1180" type="line"/>
      <point x="292" y="1180"/>
      <point x="197" y="1073"/>
      <point x="197" y="949" type="curve" smooth="yes"/>
      <point x="197" y="842"/>
      <point x="262" y="770"/>
      <point x="382" y="708" type="curve"/>
    </contour>
  </outline>
</glyph>
<glyph name="sevendeva" format="1">
  <advance width="1141"/>
  <unicode hex="096D"/>
  <outline>
    <contour>
      <point x="975" y="469" type="curve"/>
      <point x="974" y="468"/>
      <point x="935" y="400"/>
      <point x="935" y="400" type="curve"/>
      <point x="595" y="462"/>
      <point x="462" y="624"/>
      <point x="462" y="781" type="curve" smooth="yes"/>
      <point x="462" y="926"/>
      <point x="550" y="1024"/>
      <point x="698" y="1024" type="curve" smooth="yes"/>
      <point x="881" y="1024"/>
      <point x="1031" y="863"/>
      <point x="1031" y="585" type="curve" smooth="yes"/>
      <point x="1031" y="355"/>
      <point x="854" y="153"/>
      <point x="625" y="153" type="curve" smooth="yes"/>
      <point x="344" y="153"/>
      <point x="160" y="357"/>
      <point x="160" y="757" type="curve" smooth="yes"/>
      <point x="160" y="929"/>
      <point x="201" y="1127"/>
      <point x="243" y="1254" type="curve"/>
      <point x="323" y="1225" type="line"/>
      <point x="275" y="1075"/>
      <point x="242" y="893"/>
      <point x="242" y="720" type="curve" smooth="yes"/>
      <point x="242" y="387"/>
      <point x="421" y="234"/>
      <point x="605" y="234" type="curve" smooth="yes"/>
      <point x="810" y="234"/>
      <point x="951" y="394"/>
      <point x="951" y="611" type="curve" smooth="yes"/>
      <point x="951" y="794"/>
      <point x="842" y="942"/>
      <point x="712" y="942" type="curve" smooth="yes"/>
      <point x="605" y="942"/>
      <point x="547" y="874"/>
      <point x="547" y="774" type="curve" smooth="yes"/>
      <point x="547" y="647"/>
      <point x="651" y="535"/>
    </contour>
  </outline>
</glyph>
<glyph name="ninedeva" format="1">
  <advance width="900"/>
  <unicode hex="096F"/>
  <outline>
    <contour>
      <point x="330" y="683" type="curve" smooth="yes"/>
      <point x="670" y="294" type="line" smooth="yes"/>
      <point x="748" y="204"/>
      <point x="776" y="139"/>
      <point x="776" y="82" type="curve" smooth="yes"/>
      <point x="776" y="26"/>
      <point x="750" y="-25"/>
      <point x="708" y="-70" type="curve"/>
      <point x="637" y="-36" type="line"/>
      <point x="681" y="10"/>
      <point x="698" y="49"/>
      <point x="698" y="90" type="curve" smooth="yes"/>
      <point x="698" y="129"/>
      <point x="674" y="169"/>
      <point x="615" y="237" type="curve" smooth="yes"/>
      <point x="284" y="618" type="line" smooth="yes"/>
      <point x="172" y="746"/>
      <point x="100" y="849"/>
      <point x="100" y="990" type="curve" smooth="yes"/>
      <point x="100" y="1138"/>
      <point x="218" y="1281"/>
      <point x="405" y="1281" type="curve" smooth="yes"/>
      <point x="609" y="1281"/>
      <point x="725" y="1131"/>
      <point x="725" y="977" type="curve" smooth="yes"/>
      <point x="725" y="788"/>
      <point x="580" y="668"/>
      <point x="356" y="637" type="curve"/>
      <point x="302" y="702" type="line"/>
      <point x="515" y="730"/>
      <point x="643" y="819"/>
      <point x="643" y="983" type="curve" smooth="yes"/>
      <point x="643" y="1094"/>
      <point x="558" y="1203"/>
      <point x="412" y="1203" type="curve" smooth="yes"/>
      <point x="279" y="1203"/>
      <point x="184" y="1094"/>
      <point x="184" y="973" type="curve" smooth="yes"/>
      <point x="184" y="866"/>
      <point x="242" y="784"/>
    </contour>
  </outline>
</glyph>
<glyph name="zhadeva" format="1">
  <advance width="1511"/>
  <unicode hex="0979"/>
  <outline>
    <component base="nuktadeva" xScale="0.88" yScale="0.88" xOffset="1240" yOffset="67"/>
    <component base="nuktadeva" xScale="0.88" yScale="0.88" xOffset="1448" yOffset="221"/>
    <component base="jadeva"/>
    <component base="nuktadeva" xScale="0.88" yScale="0.88" xOffset="1016" yOffset="221"/>
    <contour>
      <point x="1172" y="1274" type="move" name="top"/>
    </contour>
  </outline>
</glyph>
<glyph name="uni097D" format="1">
  <advance width="1030"/>
  <unicode hex="097D"/>
  <outline>
    <contour>
      <point x="478" y="626" type="line"/>
      <point x="478" y="3" type="line"/>
      <point x="389" y="3" type="line"/>
      <point x="389" y="680" type="line"/>
      <point x="400" y="680" type="line" smooth="yes"/>
      <point x="614" y="680"/>
      <point x="796" y="798"/>
      <point x="796" y="971" type="curve" smooth="yes"/>
      <point x="796" y="1107"/>
      <point x="695" y="1204"/>
      <point x="547" y="1204" type="curve" smooth="yes"/>
      <point x="426" y="1204"/>
      <point x="321" y="1166"/>
      <point x="247" y="1116" type="curve"/>
      <point x="215" y="1187" type="line"/>
      <point x="292" y="1232"/>
      <point x="396" y="1280"/>
      <point x="543" y="1280" type="curve" smooth="yes"/>
      <point x="736" y="1280"/>
      <point x="874" y="1168"/>
      <point x="874" y="960" type="curve" smooth="yes"/>
      <point x="874" y="734"/>
      <point x="639" y="607"/>
      <point x="437" y="607" type="curve"/>
    </contour>
  </outline>
</glyph>
<glyph name="uni200D" format="1">
  <advance width="0"/>
  <unicode hex="200D"/>
  <outline>
    <contour>
      <point x="-20" y="1332" type="line"/>
      <point x="20" y="1332" type="line"/>
      <point x="20" y="-355" type="line"/>
      <point x="-20" y="-355" type="line"/>
    </contour>
    <contour>
      <point x="-236" y="1097" type="curve"/>
      <point x="-266" y="1126" type="line"/>
      <point x="-266" y="1126"/>
      <point x="235" y="1613"/>
      <point x="235" y="1613" type="curve"/>
      <point x="266" y="1584" type="line"/>
      <point x="266" y="1584"/>
      <point x="-236" y="1097"/>
    </contour>
    <contour>
      <point x="-264" y="1585" type="curve"/>
      <point x="-235" y="1613" type="line"/>
      <point x="-235" y="1613"/>
      <point x="266" y="1127"/>
      <point x="266" y="1127" type="curve"/>
      <point x="235" y="1098" type="line"/>
      <point x="235" y="1098"/>
      <point x="-264" y="1585"/>
    </contour>
  </outline>
</glyph>
<glyph name="endash.deva" format="1">
  <advance width="1162"/>
  <unicode hex="2013"/>
  <outline>
    <contour>
      <point x="194" y="511" type="line"/>
      <point x="194" y="585" type="line"/>
      <point x="968" y="585" type="line"/>
      <point x="968" y="511" type="line"/>
    </contour>
  </outline>
</glyph>
<glyph name="endash" format="1">
  <advance width="1162"/>
  <unicode hex="2013"/>
  <outline>
    <contour>
      <point x="194" y="511" type="line"/>
      <point x="194" y="585" type="line"/>
      <point x="968" y="585" type="line"/>
      <point x="968" y="511" type="line"/>
    </contour>
  </outline>
</glyph>
<glyph name="emdash" format="1">
  <advance width="2083"/>
  <unicode hex="2014"/>
  <outline>
    <contour>
      <point x="194" y="511" type="line"/>
      <point x="194" y="585" type="line"/>
      <point x="1889" y="585" type="line"/>
      <point x="1889" y="511" type="line"/>
    </contour>
  </outline>
</glyph>
<glyph name="quoteleft.deva" format="1">
  <advance width="647"/>
  <unicode hex="2018"/>
  <outline>
    <contour>
      <point x="170" y="865" type="line"/>
      <point x="159" y="883" type="line"/>
      <point x="178" y="950"/>
      <point x="203" y="1026"/>
      <point x="232" y="1109" type="curve" smooth="yes"/>
      <point x="262" y="1192"/>
      <point x="290" y="1261"/>
      <point x="316" y="1316" type="curve"/>
      <point x="374" y="1316" type="line"/>
      <point x="356" y="1255"/>
      <point x="337" y="1178"/>
      <point x="316" y="1084" type="curve" smooth="yes"/>
      <point x="295" y="991"/>
      <point x="282" y="918"/>
      <point x="275" y="865" type="curve"/>
    </contour>
  </outline>
</glyph>
<glyph name="quoteleft" format="1">
  <advance width="529"/>
  <unicode hex="2018"/>
  <outline>
    <contour>
      <point x="151" y="865" type="line"/>
      <point x="140" y="883" type="line"/>
      <point x="159" y="950"/>
      <point x="184" y="1026"/>
      <point x="213" y="1109" type="curve" smooth="yes"/>
      <point x="243" y="1192"/>
      <point x="271" y="1261"/>
      <point x="297" y="1316" type="curve"/>
      <point x="355" y="1316" type="line"/>
      <point x="337" y="1255"/>
      <point x="318" y="1178"/>
      <point x="297" y="1084" type="curve" smooth="yes"/>
      <point x="276" y="991"/>
      <point x="263" y="918"/>
      <point x="256" y="865" type="curve"/>
    </contour>
  </outline>
</glyph>
<glyph name="quoteright" format="1">
  <advance width="495"/>
  <unicode hex="2019"/>
  <outline>
    <contour>
      <point x="344" y="1316" type="line"/>
      <point x="355" y="1298" type="line"/>
      <point x="310" y="1139"/>
      <point x="258" y="994"/>
      <point x="199" y="865" type="curve"/>
      <point x="140" y="865" type="line"/>
      <point x="157" y="922"/>
      <point x="176" y="995"/>
      <point x="195" y="1082" type="curve" smooth="yes"/>
      <point x="214" y="1169"/>
      <point x="229" y="1247"/>
      <point x="239" y="1316" type="curve"/>
    </contour>
  </outline>
</glyph>
<glyph name="quotedblleft" format="1">
  <advance width="814"/>
  <unicode hex="201C"/>
  <outline>
    <contour>
      <point x="436" y="865" type="line"/>
      <point x="425" y="883" type="line"/>
      <point x="446" y="955"/>
      <point x="471" y="1031"/>
      <point x="500" y="1112" type="curve" smooth="yes"/>
      <point x="529" y="1193"/>
      <point x="557" y="1261"/>
      <point x="582" y="1316" type="curve"/>
      <point x="641" y="1316" type="line"/>
      <point x="623" y="1257"/>
      <point x="604" y="1183"/>
      <point x="584" y="1092" type="curve" smooth="yes"/>
      <point x="565" y="1002"/>
      <point x="550" y="926"/>
      <point x="541" y="865" type="curve"/>
    </contour>
    <contour>
      <point x="151" y="865" type="line"/>
      <point x="140" y="883" type="line"/>
      <point x="159" y="950"/>
      <point x="184" y="1026"/>
      <point x="213" y="1109" type="curve" smooth="yes"/>
      <point x="243" y="1192"/>
      <point x="271" y="1261"/>
      <point x="297" y="1316" type="curve"/>
      <point x="355" y="1316" type="line"/>
      <point x="337" y="1255"/>
      <point x="318" y="1178"/>
      <point x="297" y="1084" type="curve" smooth="yes"/>
      <point x="276" y="991"/>
      <point x="263" y="918"/>
      <point x="256" y="865" type="curve"/>
    </contour>
  </outline>
</glyph>
<glyph name="quotedblright" format="1">
  <advance width="781"/>
  <unicode hex="201D"/>
  <outline>
    <contour>
      <point x="344" y="1316" type="line"/>
      <point x="355" y="1298" type="line"/>
      <point x="310" y="1139"/>
      <point x="258" y="994"/>
      <point x="199" y="865" type="curve"/>
      <point x="140" y="865" type="line"/>
      <point x="157" y="922"/>
      <point x="176" y="995"/>
      <point x="195" y="1082" type="curve" smooth="yes"/>
      <point x="214" y="1169"/>
      <point x="229" y="1247"/>
      <point x="239" y="1316" type="curve"/>
    </contour>
    <contour>
      <point x="630" y="1316" type="line"/>
      <point x="641" y="1298" type="line"/>
      <point x="620" y="1221"/>
      <point x="594" y="1143"/>
      <point x="565" y="1063" type="curve" smooth="yes"/>
      <point x="536" y="983"/>
      <point x="509" y="917"/>
      <point x="485" y="865" type="curve"/>
      <point x="425" y="865" type="line"/>
      <point x="443" y="924"/>
      <point x="462" y="998"/>
      <point x="482" y="1088" type="curve" smooth="yes"/>
      <point x="502" y="1179"/>
      <point x="516" y="1255"/>
      <point x="525" y="1316" type="curve"/>
    </contour>
  </outline>
</glyph>
<glyph name="bullet" format="1">
  <advance width="693"/>
  <unicode hex="2022"/>
  <outline>
    <contour>
      <point x="208" y="673" type="curve" smooth="yes"/>
      <point x="208" y="780"/>
      <point x="259" y="835"/>
      <point x="346" y="835" type="curve" smooth="yes"/>
      <point x="434" y="835"/>
      <point x="485" y="777"/>
      <point x="485" y="673" type="curve" smooth="yes"/>
      <point x="485" y="572"/>
      <point x="433" y="510"/>
      <point x="346" y="510" type="curve" smooth="yes"/>
      <point x="261" y="510"/>
      <point x="208" y="569"/>
    </contour>
  </outline>
</glyph>
<glyph name="minus" format="1">
  <advance width="1052"/>
  <unicode hex="2212"/>
  <outline>
    <contour>
      <point x="100" y="614" type="line"/>
      <point x="100" y="688" type="line"/>
      <point x="953" y="688" type="line"/>
      <point x="953" y="614" type="line"/>
    </contour>
  </outline>
</glyph>
<glyph name="uni25CC" format="1">
  <advance width="1044"/>
  <unicode hex="25CC"/>
  <outline>
    <contour>
      <point x="560" y="1013" type="curve" smooth="yes"/>
      <point x="560" y="996"/>
      <point x="553" y="982"/>
      <point x="534" y="982" type="curve" smooth="yes"/>
      <point x="516" y="982"/>
      <point x="510" y="997"/>
      <point x="510" y="1013" type="curve" smooth="yes"/>
      <point x="510" y="1029"/>
      <point x="516" y="1042"/>
      <point x="534" y="1042" type="curve" smooth="yes"/>
      <point x="552" y="1042"/>
      <point x="560" y="1030"/>
    </contour>
    <contour>
      <point x="282" y="906" type="curve" smooth="yes"/>
      <point x="282" y="890"/>
      <point x="275" y="875"/>
      <point x="257" y="875" type="curve" smooth="yes"/>
      <point x="239" y="875"/>
      <point x="232" y="890"/>
      <point x="232" y="906" type="curve" smooth="yes"/>
      <point x="232" y="922"/>
      <point x="239" y="936"/>
      <point x="257" y="936" type="curve" smooth="yes"/>
      <point x="275" y="936"/>
      <point x="282" y="922"/>
    </contour>
    <contour>
      <point x="838" y="906" type="curve" smooth="yes"/>
      <point x="838" y="890"/>
      <point x="831" y="875"/>
      <point x="813" y="875" type="curve" smooth="yes"/>
      <point x="795" y="875"/>
      <point x="788" y="890"/>
      <point x="788" y="906" type="curve" smooth="yes"/>
      <point x="788" y="922"/>
      <point x="795" y="936"/>
      <point x="813" y="936" type="curve" smooth="yes"/>
      <point x="831" y="936"/>
      <point x="838" y="922"/>
    </contour>
    <contour>
      <point x="935" y="638" type="curve" smooth="yes"/>
      <point x="935" y="621"/>
      <point x="926" y="608"/>
      <point x="908" y="608" type="curve" smooth="yes"/>
      <point x="890" y="608"/>
      <point x="883" y="622"/>
      <point x="883" y="638" type="curve" smooth="yes"/>
      <point x="883" y="654"/>
      <point x="890" y="668"/>
      <point x="908" y="668" type="curve" smooth="yes"/>
      <point x="926" y="668"/>
      <point x="935" y="655"/>
    </contour>
    <contour>
      <point x="185" y="638" type="curve" smooth="yes"/>
      <point x="185" y="622"/>
      <point x="178" y="608"/>
      <point x="160" y="608" type="curve" smooth="yes"/>
      <point x="142" y="608"/>
      <point x="135" y="622"/>
      <point x="135" y="638" type="curve" smooth="yes"/>
      <point x="135" y="654"/>
      <point x="142" y="668"/>
      <point x="160" y="668" type="curve" smooth="yes"/>
      <point x="178" y="668"/>
      <point x="185" y="654"/>
    </contour>
    <contour>
      <point x="282" y="370" type="curve" smooth="yes"/>
      <point x="282" y="354"/>
      <point x="275" y="340"/>
      <point x="257" y="340" type="curve" smooth="yes"/>
      <point x="239" y="340"/>
      <point x="232" y="354"/>
      <point x="232" y="370" type="curve" smooth="yes"/>
      <point x="232" y="386"/>
      <point x="239" y="401"/>
      <point x="257" y="401" type="curve" smooth="yes"/>
      <point x="275" y="401"/>
      <point x="282" y="386"/>
    </contour>
    <contour>
      <point x="838" y="370" type="curve" smooth="yes"/>
      <point x="838" y="354"/>
      <point x="831" y="340"/>
      <point x="813" y="340" type="curve" smooth="yes"/>
      <point x="795" y="340"/>
      <point x="788" y="354"/>
      <point x="788" y="370" type="curve" smooth="yes"/>
      <point x="788" y="386"/>
      <point x="795" y="401"/>
      <point x="813" y="401" type="curve" smooth="yes"/>
      <point x="831" y="401"/>
      <point x="838" y="386"/>
    </contour>
    <contour>
      <point x="560" y="263" type="curve" smooth="yes"/>
      <point x="560" y="246"/>
      <point x="553" y="233"/>
      <point x="534" y="233" type="curve" smooth="yes"/>
      <point x="516" y="233"/>
      <point x="510" y="247"/>
      <point x="510" y="263" type="curve" smooth="yes"/>
      <point x="510" y="279"/>
      <point x="516" y="294"/>
      <point x="534" y="294" type="curve" smooth="yes"/>
      <point x="553" y="294"/>
      <point x="560" y="280"/>
    </contour>
  </outline>
</glyph>
<glyph name=".notdef" format="1">
  <advance width="1009"/>
  <outline>
    <contour>
      <point x="100" y="1274" type="line"/>
      <point x="909" y="1274" type="line"/>
      <point x="909" y="0" type="line"/>
      <point x="100" y="0" type="line"/>
    </contour>
    <contour>
      <point x="820" y="76" type="line"/>
      <point x="820" y="1198" type="line"/>
      <point x="189" y="1198" type="line"/>
      <point x="189" y="76" type="line"/>
    </contour>
  </outline>
</glyph>
<glyph name="aivowelsignrephanusvaradeva" format="1">
  <advance width="0"/>
  <outline>
    <component base="aivowelsigndeva"/>
    <component base="rephanusvaradeva" xOffset="16"/>
    <contour>
      <point x="-342" y="1274" type="move" name="_top"/>
    </contour>
  </outline>
</glyph>
<glyph name="aivowelsignrephdeva" format="1">
  <advance width="0"/>
  <outline>
    <component base="aivowelsigndeva"/>
    <component base="rephdeva" xOffset="16"/>
    <contour>
      <point x="-342" y="1274" type="move" name="_top"/>
    </contour>
  </outline>
</glyph>
<glyph name="anusvaradeva2" format="1">
  <advance width="0"/>
  <outline>
    <contour>
      <point x="-59" y="1669" type="curve" smooth="yes"/>
      <point x="-13" y="1669"/>
      <point x="15" y="1638"/>
      <point x="15" y="1584" type="curve" smooth="yes"/>
      <point x="15" y="1531"/>
      <point x="-13" y="1499"/>
      <point x="-59" y="1499" type="curve" smooth="yes"/>
      <point x="-104" y="1499"/>
      <point x="-131" y="1531"/>
      <point x="-131" y="1584" type="curve" smooth="yes"/>
      <point x="-131" y="1638"/>
      <point x="-104" y="1669"/>
    </contour>
    <contour>
      <point x="-342.0" y="1274.0" type="move" name="_top"/>
    </contour>
  </outline>
</glyph>
<glyph name="bhaprehalfdeva" format="1">
  <advance width="823"/>
  <outline>
    <contour>
      <point x="445" y="645" type="line"/>
      <point x="418" y="616" type="line"/>
      <point x="418" y="1032" type="line" smooth="yes"/>
      <point x="418" y="1152"/>
      <point x="362" y="1224"/>
      <point x="246" y="1224" type="curve" smooth="yes"/>
      <point x="155" y="1224"/>
      <point x="104" y="1166"/>
      <point x="104" y="1088" type="curve" smooth="yes"/>
      <point x="104" y="985"/>
      <point x="200" y="890"/>
      <point x="459" y="879" type="curve"/>
      <point x="429" y="809" type="line"/>
      <point x="164" y="825"/>
      <point x="22" y="935"/>
      <point x="22" y="1103" type="curve" smooth="yes"/>
      <point x="22" y="1204"/>
      <point x="99" y="1306"/>
      <point x="236" y="1306" type="curve" smooth="yes"/>
      <point x="422" y="1306"/>
      <point x="507" y="1194"/>
      <point x="507" y="1023" type="curve" smooth="yes"/>
      <point x="507" y="621" type="line"/>
      <point x="475" y="645" type="line"/>
      <point x="1017" y="645" type="line"/>
      <point x="1027" y="569" type="line"/>
      <point x="477" y="569" type="line"/>
      <point x="507" y="590" type="line"/>
      <point x="507" y="453" type="line" smooth="yes"/>
      <point x="507" y="427"/>
      <point x="497" y="413"/>
      <point x="477" y="413" type="curve" smooth="yes"/>
      <point x="456" y="413"/>
      <point x="421" y="435"/>
      <point x="381" y="475" type="curve" smooth="yes"/>
      <point x="329" y="527"/>
      <point x="294" y="582"/>
      <point x="294" y="609" type="curve" smooth="yes"/>
      <point x="294" y="631"/>
      <point x="306" y="645"/>
      <point x="340" y="645" type="curve" smooth="yes"/>
    </contour>
  </outline>
</glyph>
<glyph name="bharaprehalfdeva" format="1">
  <advance width="823"/>
  <outline>
    <contour>
      <point x="1039" y="550" type="line"/>
      <point x="430" y="-12" type="line"/>
      <point x="373" y="47" type="line"/>
      <point x="987" y="610" type="line"/>
    </contour>
    <contour>
      <point x="445" y="645" type="line"/>
      <point x="418" y="615" type="line"/>
      <point x="418" y="1022" type="line" smooth="yes"/>
      <point x="418" y="1142"/>
      <point x="352" y="1222"/>
      <point x="256" y="1222" type="curve" smooth="yes"/>
      <point x="175" y="1222"/>
      <point x="124" y="1166"/>
      <point x="124" y="1088" type="curve" smooth="yes"/>
      <point x="124" y="985"/>
      <point x="220" y="890"/>
      <point x="459" y="879" type="curve"/>
      <point x="429" y="809" type="line"/>
      <point x="184" y="825"/>
      <point x="42" y="935"/>
      <point x="42" y="1103" type="curve" smooth="yes"/>
      <point x="42" y="1204"/>
      <point x="117" y="1304"/>
      <point x="246" y="1304" type="curve" smooth="yes"/>
      <point x="412" y="1304"/>
      <point x="507" y="1184"/>
      <point x="507" y="1013" type="curve" smooth="yes"/>
      <point x="507" y="621" type="line"/>
      <point x="475" y="645" type="line"/>
      <point x="1017" y="645" type="line"/>
      <point x="1027" y="569" type="line"/>
      <point x="477" y="569" type="line"/>
      <point x="507" y="590" type="line"/>
      <point x="507" y="453" type="line" smooth="yes"/>
      <point x="507" y="427"/>
      <point x="497" y="413"/>
      <point x="477" y="413" type="curve" smooth="yes"/>
      <point x="456" y="413"/>
      <point x="421" y="435"/>
      <point x="381" y="475" type="curve" smooth="yes"/>
      <point x="329" y="527"/>
      <point x="294" y="582"/>
      <point x="294" y="609" type="curve" smooth="yes"/>
      <point x="294" y="631"/>
      <point x="306" y="645"/>
      <point x="340" y="645" type="curve" smooth="yes"/>
    </contour>
  </outline>
</glyph>
<glyph name="candrabindusmalldeva" format="1">
  <advance width="0"/>
  <outline>
    <contour>
      <point x="-303" y="1799" type="curve" smooth="yes"/>
      <point x="-261" y="1799"/>
      <point x="-237" y="1771"/>
      <point x="-237" y="1721" type="curve" smooth="yes"/>
      <point x="-237" y="1671"/>
      <point x="-261" y="1642"/>
      <point x="-303" y="1642" type="curve" smooth="yes"/>
      <point x="-344" y="1642"/>
      <point x="-367" y="1671"/>
      <point x="-367" y="1721" type="curve" smooth="yes"/>
      <point x="-367" y="1771"/>
      <point x="-344" y="1799"/>
    </contour>
    <contour>
      <point x="-14" y="1605" type="line"/>
      <point x="-82" y="1490"/>
      <point x="-185" y="1435"/>
      <point x="-292" y="1435" type="curve" smooth="yes"/>
      <point x="-401" y="1435"/>
      <point x="-496" y="1488"/>
      <point x="-579" y="1601" type="curve"/>
      <point x="-529" y="1657" type="line"/>
      <point x="-452" y="1553"/>
      <point x="-371" y="1518"/>
      <point x="-294" y="1518" type="curve" smooth="yes"/>
      <point x="-214" y="1518"/>
      <point x="-130" y="1556"/>
      <point x="-68" y="1655" type="curve"/>
    </contour>
    <contour>
      <point x="0.0" y="-30.0" type="move" name="x40"/>
    </contour>
    <contour>
      <point x="-342" y="1274" type="move" name="_top"/>
    </contour>
  </outline>
</glyph>
<glyph name="caprehalfdeva" format="1">
  <advance width="945.0"/>
  <outline>
    <contour>
      <point x="94" y="810" type="curve"/>
      <point x="94" y="886" type="line"/>
      <point x="806" y="886" type="line"/>
      <point x="806" y="810" type="line"/>
      <point x="806" y="810"/>
      <point x="94" y="810"/>
    </contour>
    <contour>
      <point x="1107" y="572" type="curve"/>
      <point x="1161" y="508" type="line"/>
      <point x="1033" y="359"/>
      <point x="877" y="266"/>
      <point x="692" y="266" type="curve" smooth="yes"/>
      <point x="485" y="266"/>
      <point x="350" y="399"/>
      <point x="350" y="567" type="curve" smooth="yes"/>
      <point x="350" y="737"/>
      <point x="477" y="869"/>
      <point x="694" y="869" type="curve"/>
      <point x="734" y="810" type="line"/>
      <point x="544" y="810"/>
      <point x="433" y="692"/>
      <point x="433" y="560" type="curve" smooth="yes"/>
      <point x="433" y="440"/>
      <point x="527" y="346"/>
      <point x="687" y="346" type="curve" smooth="yes"/>
      <point x="840" y="346"/>
      <point x="984" y="418"/>
    </contour>
    <contour>
      <point x="-30" y="1198" type="curve"/>
      <point x="-30" y="1274" type="line"/>
      <point x="975" y="1274" type="line"/>
      <point x="975" y="1198" type="line"/>
      <point x="975" y="1198"/>
      <point x="-30" y="1198"/>
    </contour>
  </outline>
</glyph>
<glyph name="chaprehalfdeva" format="1">
  <advance width="1411"/>
  <outline>
    <contour>
      <point x="491" y="730" type="curve"/>
      <point x="408" y="667" type="line"/>
      <point x="223" y="727"/>
      <point x="139" y="839"/>
      <point x="139" y="978" type="curve" smooth="yes"/>
      <point x="139" y="1095"/>
      <point x="218" y="1223"/>
      <point x="400" y="1266" type="curve"/>
      <point x="487" y="1219" type="line"/>
      <point x="292" y="1186"/>
      <point x="224" y="1055"/>
      <point x="224" y="965" type="curve" smooth="yes"/>
      <point x="224" y="858"/>
      <point x="307" y="760"/>
    </contour>
    <contour>
      <point x="1441" y="1198" type="line"/>
      <point x="-30" y="1198" type="line"/>
      <point x="-30" y="1274" type="line"/>
      <point x="1441" y="1274" type="line"/>
    </contour>
    <contour>
      <point x="622" y="764" type="curve"/>
      <point x="644" y="690" type="line"/>
      <point x="642" y="690"/>
      <point x="639" y="690"/>
      <point x="637" y="690" type="curve" smooth="yes"/>
      <point x="377" y="690"/>
      <point x="302" y="562"/>
      <point x="302" y="439" type="curve" smooth="yes"/>
      <point x="302" y="299"/>
      <point x="427" y="184"/>
      <point x="640" y="184" type="curve" smooth="yes"/>
      <point x="941" y="184"/>
      <point x="1212" y="432"/>
      <point x="1212" y="684" type="curve" smooth="yes"/>
      <point x="1212" y="814"/>
      <point x="1138" y="895"/>
      <point x="1046" y="895" type="curve" smooth="yes"/>
      <point x="960" y="895"/>
      <point x="887" y="844"/>
      <point x="887" y="739" type="curve" smooth="yes"/>
      <point x="887" y="634"/>
      <point x="970" y="515"/>
      <point x="1164" y="406" type="curve"/>
      <point x="1122" y="342" type="line"/>
      <point x="918" y="456"/>
      <point x="807" y="604"/>
      <point x="807" y="753" type="curve" smooth="yes"/>
      <point x="807" y="887"/>
      <point x="915" y="974"/>
      <point x="1041" y="974" type="curve" smooth="yes"/>
      <point x="1173" y="974"/>
      <point x="1290" y="872"/>
      <point x="1290" y="678" type="curve" smooth="yes"/>
      <point x="1290" y="398"/>
      <point x="983" y="101"/>
      <point x="656" y="101" type="curve" smooth="yes"/>
      <point x="360" y="101"/>
      <point x="217" y="265"/>
      <point x="217" y="453" type="curve" smooth="yes"/>
      <point x="217" y="613"/>
      <point x="330" y="764"/>
      <point x="617" y="764" type="curve" smooth="yes"/>
      <point x="619" y="764"/>
      <point x="620" y="764"/>
    </contour>
  </outline>
</glyph>
<glyph name="dabadeva" format="1">
  <advance width="1042"/>
  <outline>
    <contour>
      <point x="586" y="-44" type="line"/>
      <point x="529" y="-87" type="line"/>
      <point x="215" y="292" type="line"/>
      <point x="268" y="332" type="line"/>
    </contour>
    <contour>
      <point x="318" y="317" type="line"/>
      <point x="200" y="247"/>
      <point x="165" y="174"/>
      <point x="165" y="91" type="curve" smooth="yes"/>
      <point x="165" y="-10"/>
      <point x="248" y="-92"/>
      <point x="377" y="-92" type="curve" smooth="yes"/>
      <point x="524" y="-92"/>
      <point x="673" y="24"/>
      <point x="724" y="218" type="curve"/>
      <point x="773" y="128" type="line"/>
      <point x="708" y="-48"/>
      <point x="556" y="-165"/>
      <point x="389" y="-165" type="curve" smooth="yes"/>
      <point x="201" y="-165"/>
      <point x="87" y="-43"/>
      <point x="87" y="99" type="curve" smooth="yes"/>
      <point x="87" y="201"/>
      <point x="134" y="291"/>
      <point x="262" y="368" type="curve"/>
    </contour>
    <component base="dadeva"/>
    <contour>
      <point x="626" y="-196" type="move" name="btm"/>
    </contour>
    <contour>
      <point x="689" y="1274" type="move" name="top"/>
    </contour>
    <contour>
      <point x="1309" y="-30" type="move" name="x77"/>
    </contour>
  </outline>
</glyph>
<glyph name="dabhadeva" format="1">
  <advance width="1470"/>
  <outline>
    <contour>
      <point x="475" y="270" type="curve"/>
      <point x="497" y="197" type="line"/>
      <point x="419" y="125"/>
      <point x="351" y="92"/>
      <point x="265" y="92" type="curve" smooth="yes"/>
      <point x="147" y="92"/>
      <point x="43" y="181"/>
      <point x="43" y="313" type="curve" smooth="yes"/>
      <point x="43" y="426"/>
      <point x="129" y="509"/>
      <point x="243" y="509" type="curve" smooth="yes"/>
      <point x="367" y="509"/>
      <point x="434" y="443"/>
      <point x="500" y="329" type="curve" smooth="yes"/>
      <point x="689" y="4" type="line"/>
      <point x="650" y="10" type="line"/>
      <point x="1136" y="259" type="line"/>
      <point x="1171" y="196" type="line"/>
      <point x="687" y="-56" type="line"/>
      <point x="704" y="-24" type="line"/>
      <point x="767" y="-145" type="line" smooth="yes"/>
      <point x="772" y="-155"/>
      <point x="774" y="-164"/>
      <point x="774" y="-171" type="curve" smooth="yes"/>
      <point x="774" y="-185"/>
      <point x="763" y="-200"/>
      <point x="734" y="-200" type="curve" smooth="yes"/>
      <point x="666" y="-200"/>
      <point x="503" y="-139"/>
      <point x="503" y="-91" type="curve" smooth="yes"/>
      <point x="503" y="-75"/>
      <point x="508" y="-64"/>
      <point x="530" y="-53" type="curve" smooth="yes"/>
      <point x="624" y="-4" type="line"/>
      <point x="624" y="-44" type="line"/>
      <point x="427" y="299" type="line" smooth="yes"/>
      <point x="368" y="402"/>
      <point x="325" y="437"/>
      <point x="246" y="437" type="curve" smooth="yes"/>
      <point x="166" y="437"/>
      <point x="118" y="373"/>
      <point x="118" y="307" type="curve" smooth="yes"/>
      <point x="118" y="233"/>
      <point x="172" y="162"/>
      <point x="273" y="162" type="curve" smooth="yes"/>
      <point x="332" y="162"/>
      <point x="395" y="192"/>
    </contour>
    <contour>
      <point x="-30" y="1198" type="curve"/>
      <point x="-30" y="1274" type="line"/>
      <point x="1500" y="1274" type="line"/>
      <point x="1500" y="1198" type="line"/>
      <point x="1500" y="1198"/>
      <point x="-30" y="1198"/>
    </contour>
    <contour>
      <point x="1132" y="211" type="line"/>
      <point x="1202" y="246" type="line"/>
      <point x="1379" y="-128" type="line"/>
      <point x="1305" y="-158" type="line"/>
    </contour>
    <contour>
      <point x="1002" y="170" type="curve" smooth="yes"/>
      <point x="718" y="170"/>
      <point x="566" y="342"/>
      <point x="566" y="563" type="curve" smooth="yes"/>
      <point x="566" y="736"/>
      <point x="702" y="886"/>
      <point x="962" y="886" type="curve" smooth="yes"/>
      <point x="1156" y="886" type="line"/>
      <point x="1117" y="840" type="line"/>
      <point x="1117" y="1248" type="line"/>
      <point x="1206" y="1248" type="line"/>
      <point x="1206" y="810" type="line"/>
      <point x="1005" y="810" type="line" smooth="yes"/>
      <point x="740" y="810"/>
      <point x="651" y="684"/>
      <point x="651" y="538" type="curve" smooth="yes"/>
      <point x="651" y="384"/>
      <point x="768" y="250"/>
      <point x="998" y="250" type="curve" smooth="yes"/>
      <point x="1058" y="250"/>
      <point x="1103" y="259"/>
      <point x="1188" y="291" type="curve"/>
      <point x="1116" y="241" type="line"/>
      <point x="1091" y="287"/>
      <point x="1079" y="310"/>
      <point x="1079" y="337" type="curve" smooth="yes"/>
      <point x="1079" y="364"/>
      <point x="1098" y="388"/>
      <point x="1157" y="388" type="curve" smooth="yes"/>
      <point x="1244" y="388"/>
      <point x="1314" y="354"/>
      <point x="1314" y="313" type="curve" smooth="yes"/>
      <point x="1314" y="251"/>
      <point x="1185" y="170"/>
    </contour>
    <contour>
      <point x="976" y="-196" type="move" name="btm"/>
    </contour>
    <contour>
      <point x="1117" y="1274" type="move" name="top"/>
    </contour>
  </outline>
</glyph>
<glyph name="dadadeva" format="1">
  <advance width="1044"/>
  <outline>
    <contour>
      <point x="698" y="41" type="line"/>
      <point x="768" y="76" type="line"/>
      <point x="925" y="-256" type="line"/>
      <point x="851" y="-286" type="line"/>
    </contour>
    <contour>
      <point x="254" y="319" type="curve" smooth="yes"/>
      <point x="254" y="197"/>
      <point x="352" y="80"/>
      <point x="558" y="80" type="curve" smooth="yes"/>
      <point x="626" y="80"/>
      <point x="673" y="88"/>
      <point x="755" y="121" type="curve"/>
      <point x="682" y="71" type="line"/>
      <point x="655" y="117"/>
      <point x="645" y="140"/>
      <point x="645" y="167" type="curve" smooth="yes"/>
      <point x="645" y="194"/>
      <point x="664" y="218"/>
      <point x="723" y="218" type="curve" smooth="yes"/>
      <point x="810" y="218"/>
      <point x="880" y="185"/>
      <point x="880" y="143" type="curve" smooth="yes"/>
      <point x="880" y="84"/>
      <point x="765" y="0"/>
      <point x="562" y="0" type="curve" smooth="yes"/>
      <point x="319" y="0"/>
      <point x="175" y="148"/>
      <point x="175" y="331" type="curve" smooth="yes"/>
      <point x="175" y="492"/>
      <point x="304" y="628"/>
      <point x="540" y="628" type="curve" smooth="yes"/>
      <point x="667" y="628"/>
      <point x="757" y="598"/>
      <point x="848" y="551" type="curve"/>
      <point x="816" y="482" type="line"/>
      <point x="738" y="522"/>
      <point x="638" y="549"/>
      <point x="550" y="549" type="curve" smooth="yes"/>
      <point x="341" y="549"/>
      <point x="254" y="441"/>
    </contour>
    <contour>
      <point x="705" y="1238" type="line"/>
      <point x="794" y="1238" type="line"/>
      <point x="794" y="875" type="line"/>
      <point x="402" y="875" type="line" smooth="yes"/>
      <point x="268" y="875"/>
      <point x="209" y="809"/>
      <point x="209" y="731" type="curve" smooth="yes"/>
      <point x="209" y="646"/>
      <point x="265" y="584"/>
      <point x="355" y="547" type="curve"/>
      <point x="313" y="485" type="line"/>
      <point x="197" y="545"/>
      <point x="131" y="640"/>
      <point x="131" y="739" type="curve" smooth="yes"/>
      <point x="131" y="858"/>
      <point x="212" y="951"/>
      <point x="412" y="951" type="curve" smooth="yes"/>
      <point x="744" y="951" type="line"/>
      <point x="705" y="912" type="line"/>
    </contour>
    <contour>
      <point x="1074" y="1198" type="line"/>
      <point x="-30" y="1198" type="line"/>
      <point x="-30" y="1274" type="line"/>
      <point x="1074" y="1274" type="line"/>
    </contour>
    <contour>
      <point x="475" y="-196" type="move" name="btm"/>
    </contour>
    <contour>
      <point x="706" y="1274" type="move" name="top"/>
    </contour>
  </outline>
</glyph>
<glyph name="dadhadeva" format="1">
  <advance width="1381.0"/>
  <outline>
    <contour>
      <point x="529" y="213" type="curve"/>
      <point x="479" y="177"/>
      <point x="422" y="155"/>
      <point x="326" y="155" type="curve" smooth="yes"/>
      <point x="168" y="155"/>
      <point x="47" y="279"/>
      <point x="47" y="434" type="curve" smooth="yes"/>
      <point x="47" y="562"/>
      <point x="126" y="649"/>
      <point x="228" y="649" type="curve" smooth="yes"/>
      <point x="325" y="649"/>
      <point x="389" y="579"/>
      <point x="389" y="476" type="curve" smooth="yes"/>
      <point x="389" y="366"/>
      <point x="312" y="266"/>
      <point x="202" y="223" type="curve"/>
      <point x="163" y="274" type="line"/>
      <point x="259" y="324"/>
      <point x="317" y="400"/>
      <point x="317" y="477" type="curve" smooth="yes"/>
      <point x="317" y="537"/>
      <point x="283" y="577"/>
      <point x="231" y="577" type="curve" smooth="yes"/>
      <point x="172" y="577"/>
      <point x="120" y="517"/>
      <point x="120" y="426" type="curve" smooth="yes"/>
      <point x="120" y="316"/>
      <point x="201" y="226"/>
      <point x="322" y="226" type="curve" smooth="yes"/>
      <point x="422" y="226"/>
      <point x="485" y="254"/>
      <point x="570" y="307" type="curve"/>
      <point x="570" y="307"/>
      <point x="529" y="213"/>
    </contour>
    <contour>
      <point x="683" y="302" type="line"/>
      <point x="550" y="228"/>
      <point x="526" y="150"/>
      <point x="526" y="78" type="curve" smooth="yes"/>
      <point x="526" y="-23"/>
      <point x="594" y="-87"/>
      <point x="710" y="-87" type="curve" smooth="yes"/>
      <point x="866" y="-87"/>
      <point x="1001" y="28"/>
      <point x="1054" y="229" type="curve"/>
      <point x="1103" y="139" type="line"/>
      <point x="1036" y="-40"/>
      <point x="893" y="-160"/>
      <point x="722" y="-160" type="curve" smooth="yes"/>
      <point x="561" y="-160"/>
      <point x="449" y="-65"/>
      <point x="449" y="83" type="curve" smooth="yes"/>
      <point x="449" y="175"/>
      <point x="476" y="264"/>
      <point x="628" y="352" type="curve"/>
    </contour>
    <contour>
      <point x="-30" y="1198" type="curve"/>
      <point x="-30" y="1274" type="line"/>
      <point x="1411" y="1274" type="line"/>
      <point x="1411" y="1198" type="line"/>
      <point x="1411" y="1198"/>
      <point x="-30" y="1198"/>
    </contour>
    <component base="dadeva" xOffset="339"/>
    <contour>
      <point x="966.0" y="-196.0" type="move" name="btm"/>
    </contour>
    <contour>
      <point x="1028.0" y="1274.0" type="move" name="top"/>
    </contour>
  </outline>
</glyph>
<glyph name="dadhayadeva" format="1">
  <advance width="2379.0"/>
  <outline>
    <contour>
      <point x="2050" y="1226" type="line"/>
      <point x="2139" y="1226" type="line"/>
      <point x="2139" y="0" type="line"/>
      <point x="2050" y="0" type="line"/>
    </contour>
    <contour>
      <point x="377" y="1198" type="curve"/>
      <point x="377" y="1274" type="line"/>
      <point x="2409" y="1274" type="line"/>
      <point x="2409" y="1198" type="line"/>
      <point x="2409" y="1198"/>
      <point x="377" y="1198"/>
    </contour>
    <contour>
      <point x="988" y="815" type="line"/>
      <point x="987" y="891" type="line"/>
      <point x="1441" y="891" type="line" smooth="yes"/>
      <point x="1635" y="891"/>
      <point x="1722" y="808"/>
      <point x="1722" y="683" type="curve" smooth="yes"/>
      <point x="1722" y="552"/>
      <point x="1589" y="467"/>
      <point x="1393" y="403" type="curve"/>
      <point x="1400" y="466" type="line"/>
      <point x="1477" y="315"/>
      <point x="1620" y="229"/>
      <point x="1757" y="229" type="curve" smooth="yes"/>
      <point x="1889" y="229"/>
      <point x="2008" y="287"/>
      <point x="2112" y="423" type="curve"/>
      <point x="2111" y="310" type="line"/>
      <point x="2024" y="213"/>
      <point x="1912" y="151"/>
      <point x="1762" y="151" type="curve" smooth="yes"/>
      <point x="1594" y="151"/>
      <point x="1430" y="250"/>
      <point x="1314" y="452" type="curve"/>
      <point x="1314" y="457" type="line"/>
      <point x="1535" y="527"/>
      <point x="1642" y="595"/>
      <point x="1642" y="689" type="curve" smooth="yes"/>
      <point x="1642" y="762"/>
      <point x="1582" y="815"/>
      <point x="1431" y="815" type="curve" smooth="yes"/>
    </contour>
    <component base="dadhadeva"/>
    <contour>
      <point x="2050" y="1274" type="move" name="top"/>
    </contour>
    <contour>
      <point x="2050" y="-230" type="move" name="btm"/>
    </contour>
  </outline>
</glyph>
<glyph name="dagadeva" format="1">
  <advance width="1042"/>
  <outline>
    <contour>
      <point x="405" y="275" type="line"/>
      <point x="459" y="-167" type="line" smooth="yes"/>
      <point x="462" y="-196"/>
      <point x="452" y="-211"/>
      <point x="427" y="-211" type="curve" smooth="yes"/>
      <point x="388" y="-211"/>
      <point x="268" y="-108"/>
      <point x="268" y="-65" type="curve" smooth="yes"/>
      <point x="268" y="-46"/>
      <point x="278" y="-36"/>
      <point x="305" y="-33" type="curve" smooth="yes"/>
      <point x="383" y="-24" type="line"/>
      <point x="362" y="-54" type="line"/>
      <point x="323" y="267" type="line"/>
    </contour>
    <component base="dadeva"/>
    <contour>
      <point x="626" y="-155" type="move" name="btm"/>
    </contour>
    <contour>
      <point x="689" y="1274" type="move" name="top"/>
    </contour>
  </outline>
</glyph>
<glyph name="daghadeva" format="1">
  <advance width="1360"/>
  <outline>
    <contour>
      <point x="508" y="213" type="curve"/>
      <point x="458" y="174"/>
      <point x="395" y="155"/>
      <point x="307" y="155" type="curve" smooth="yes"/>
      <point x="165" y="155"/>
      <point x="48" y="248"/>
      <point x="48" y="404" type="curve" smooth="yes"/>
      <point x="48" y="544"/>
      <point x="165" y="656"/>
      <point x="352" y="656" type="curve" smooth="yes"/>
      <point x="425" y="656"/>
      <point x="466" y="649"/>
      <point x="531" y="628" type="curve"/>
      <point x="524" y="561" type="line"/>
      <point x="469" y="580"/>
      <point x="419" y="589"/>
      <point x="361" y="589" type="curve" smooth="yes"/>
      <point x="209" y="589"/>
      <point x="123" y="497"/>
      <point x="123" y="394" type="curve" smooth="yes"/>
      <point x="123" y="288"/>
      <point x="205" y="227"/>
      <point x="303" y="227" type="curve" smooth="yes"/>
      <point x="393" y="227"/>
      <point x="463" y="250"/>
      <point x="549" y="307" type="curve"/>
      <point x="549" y="307"/>
      <point x="508" y="213"/>
    </contour>
    <contour>
      <point x="-30" y="1198" type="curve"/>
      <point x="-30" y="1274" type="line"/>
      <point x="1390" y="1274" type="line"/>
      <point x="1390" y="1198" type="line"/>
      <point x="1390" y="1198"/>
      <point x="-30" y="1198"/>
    </contour>
    <contour>
      <point x="658" y="297" type="line"/>
      <point x="535" y="233"/>
      <point x="505" y="150"/>
      <point x="505" y="78" type="curve" smooth="yes"/>
      <point x="505" y="-23"/>
      <point x="573" y="-87"/>
      <point x="689" y="-87" type="curve" smooth="yes"/>
      <point x="849" y="-87"/>
      <point x="984" y="30"/>
      <point x="1035" y="228" type="curve"/>
      <point x="1084" y="138" type="line"/>
      <point x="1019" y="-38"/>
      <point x="872" y="-160"/>
      <point x="701" y="-160" type="curve" smooth="yes"/>
      <point x="540" y="-160"/>
      <point x="428" y="-65"/>
      <point x="428" y="83" type="curve" smooth="yes"/>
      <point x="428" y="175"/>
      <point x="461" y="269"/>
      <point x="603" y="347" type="curve"/>
    </contour>
    <component base="dadeva" xOffset="318"/>
    <contour>
      <point x="946" y="-196" type="move" name="btm"/>
    </contour>
    <contour>
      <point x="1007" y="1274" type="move" name="top"/>
    </contour>
    <contour>
      <point x="1514" y="-30" type="move" name="x90"/>
    </contour>
    <contour>
      <point x="1282" y="-30" type="move" name="mark0"/>
    </contour>
  </outline>
</glyph>
<glyph name="darvocalicdeva" format="1">
  <advance width="1042.0"/>
  <outline>
    <contour>
      <point x="953" y="-132" type="line"/>
      <point x="949" y="-140" type="line"/>
      <point x="929" y="-140"/>
      <point x="896" y="-140"/>
      <point x="873" y="-140" type="curve" smooth="yes"/>
      <point x="732" y="-140"/>
      <point x="658" y="-213"/>
      <point x="658" y="-305" type="curve" smooth="yes"/>
      <point x="658" y="-398"/>
      <point x="735" y="-456"/>
      <point x="840" y="-456" type="curve" smooth="yes"/>
      <point x="927" y="-456"/>
      <point x="987" y="-439"/>
      <point x="1059" y="-407" type="curve"/>
      <point x="1075" y="-478" type="line"/>
      <point x="1010" y="-506"/>
      <point x="939" y="-528"/>
      <point x="840" y="-528" type="curve" smooth="yes"/>
      <point x="705" y="-528"/>
      <point x="585" y="-440"/>
      <point x="585" y="-298" type="curve" smooth="yes"/>
      <point x="585" y="-162"/>
      <point x="696" y="-67"/>
      <point x="863" y="-67" type="curve"/>
      <point x="845" y="-88" type="line"/>
      <point x="706" y="207" type="line"/>
      <point x="776" y="242" type="line"/>
    </contour>
    <contour>
      <point x="-30" y="1198" type="curve"/>
      <point x="-30" y="1274" type="line"/>
      <point x="1072" y="1274" type="line"/>
      <point x="1072" y="1198" type="line"/>
      <point x="1072" y="1198"/>
      <point x="-30" y="1198"/>
    </contour>
    <contour>
      <point x="576" y="166" type="curve" smooth="yes"/>
      <point x="302" y="166"/>
      <point x="127" y="342"/>
      <point x="127" y="563" type="curve" smooth="yes"/>
      <point x="127" y="736"/>
      <point x="261" y="891"/>
      <point x="521" y="891" type="curve" smooth="yes"/>
      <point x="742" y="891" type="line"/>
      <point x="703" y="845" type="line"/>
      <point x="703" y="1248" type="line"/>
      <point x="792" y="1248" type="line"/>
      <point x="792" y="815" type="line"/>
      <point x="564" y="815" type="line" smooth="yes"/>
      <point x="299" y="815"/>
      <point x="212" y="684"/>
      <point x="212" y="538" type="curve" smooth="yes"/>
      <point x="212" y="384"/>
      <point x="352" y="246"/>
      <point x="572" y="246" type="curve" smooth="yes"/>
      <point x="632" y="246"/>
      <point x="677" y="255"/>
      <point x="762" y="287" type="curve"/>
      <point x="690" y="237" type="line"/>
      <point x="665" y="283"/>
      <point x="653" y="306"/>
      <point x="653" y="333" type="curve" smooth="yes"/>
      <point x="653" y="360"/>
      <point x="672" y="384"/>
      <point x="731" y="384" type="curve" smooth="yes"/>
      <point x="818" y="384"/>
      <point x="888" y="350"/>
      <point x="888" y="309" type="curve" smooth="yes"/>
      <point x="888" y="247"/>
      <point x="759" y="166"/>
    </contour>
  </outline>
</glyph>
<glyph name="davadeva" format="1">
  <advance width="1042"/>
  <outline>
    <contour>
      <point x="318" y="317" type="line"/>
      <point x="200" y="247"/>
      <point x="165" y="174"/>
      <point x="165" y="91" type="curve" smooth="yes"/>
      <point x="165" y="-10"/>
      <point x="248" y="-92"/>
      <point x="377" y="-92" type="curve" smooth="yes"/>
      <point x="524" y="-92"/>
      <point x="673" y="24"/>
      <point x="724" y="218" type="curve"/>
      <point x="773" y="128" type="line"/>
      <point x="708" y="-48"/>
      <point x="556" y="-165"/>
      <point x="389" y="-165" type="curve" smooth="yes"/>
      <point x="201" y="-165"/>
      <point x="87" y="-43"/>
      <point x="87" y="99" type="curve" smooth="yes"/>
      <point x="87" y="201"/>
      <point x="134" y="291"/>
      <point x="262" y="368" type="curve"/>
    </contour>
    <contour>
      <point x="-30" y="1198" type="curve"/>
      <point x="-30" y="1274" type="line"/>
      <point x="1072" y="1274" type="line"/>
      <point x="1072" y="1198" type="line"/>
      <point x="1072" y="1198"/>
      <point x="-30" y="1198"/>
    </contour>
    <component base="dadeva"/>
    <contour>
      <point x="20" y="-30" type="move" name="x71"/>
    </contour>
    <contour>
      <point x="626" y="-196" type="move" name="btm"/>
    </contour>
    <contour>
      <point x="689" y="1274" type="move" name="top"/>
    </contour>
  </outline>
</glyph>
<glyph name="ddaddadeva" format="1">
  <advance width="1122"/>
  <outline>
    <contour>
      <point x="754" y="317" type="line"/>
      <point x="839" y="317" type="line"/>
      <point x="839" y="65" type="line"/>
      <point x="429" y="65" type="line" smooth="yes"/>
      <point x="338" y="65"/>
      <point x="303" y="19"/>
      <point x="303" y="-30" type="curve" smooth="yes"/>
      <point x="303" y="-81"/>
      <point x="340" y="-125"/>
      <point x="427" y="-155" type="curve"/>
      <point x="377" y="-155" type="line"/>
      <point x="471" y="-114"/>
      <point x="582" y="-88"/>
      <point x="675" y="-88" type="curve" smooth="yes"/>
      <point x="850" y="-88"/>
      <point x="946" y="-165"/>
      <point x="946" y="-283" type="curve" smooth="yes"/>
      <point x="946" y="-406"/>
      <point x="842" y="-496"/>
      <point x="638" y="-496" type="curve" smooth="yes"/>
      <point x="498" y="-496"/>
      <point x="374" y="-479"/>
      <point x="190" y="-396" type="curve"/>
      <point x="212" y="-325" type="line"/>
      <point x="377" y="-402"/>
      <point x="494" y="-422"/>
      <point x="626" y="-422" type="curve" smooth="yes"/>
      <point x="806" y="-422"/>
      <point x="872" y="-356"/>
      <point x="872" y="-281" type="curve" smooth="yes"/>
      <point x="872" y="-221"/>
      <point x="817" y="-165"/>
      <point x="671" y="-165" type="curve" smooth="yes"/>
      <point x="595" y="-165"/>
      <point x="477" y="-187"/>
      <point x="411" y="-226" type="curve"/>
      <point x="403" y="-226" type="line"/>
      <point x="274" y="-167"/>
      <point x="228" y="-102"/>
      <point x="228" y="-19" type="curve" smooth="yes"/>
      <point x="228" y="69"/>
      <point x="299" y="140"/>
      <point x="444" y="140" type="curve" smooth="yes"/>
      <point x="789" y="140" type="line"/>
      <point x="754" y="102" type="line"/>
    </contour>
    <contour>
      <point x="782" y="1238" type="line"/>
      <point x="871" y="1238" type="line"/>
      <point x="871" y="918" type="line"/>
      <point x="466" y="918" type="line" smooth="yes"/>
      <point x="315" y="918"/>
      <point x="267" y="861"/>
      <point x="267" y="799" type="curve" smooth="yes"/>
      <point x="267" y="735"/>
      <point x="326" y="672"/>
      <point x="418" y="649" type="curve"/>
      <point x="359" y="649" type="line"/>
      <point x="461" y="698"/>
      <point x="567" y="729"/>
      <point x="675" y="729" type="curve" smooth="yes"/>
      <point x="863" y="729"/>
      <point x="967" y="634"/>
      <point x="967" y="501" type="curve" smooth="yes"/>
      <point x="967" y="366"/>
      <point x="852" y="271"/>
      <point x="626" y="271" type="curve" smooth="yes"/>
      <point x="466" y="271"/>
      <point x="334" y="296"/>
      <point x="130" y="389" type="curve"/>
      <point x="154" y="466" type="line"/>
      <point x="338" y="372"/>
      <point x="484" y="346"/>
      <point x="616" y="346" type="curve" smooth="yes"/>
      <point x="819" y="346"/>
      <point x="889" y="423"/>
      <point x="889" y="505" type="curve" smooth="yes"/>
      <point x="889" y="582"/>
      <point x="829" y="650"/>
      <point x="671" y="650" type="curve" smooth="yes"/>
      <point x="572" y="650"/>
      <point x="475" y="625"/>
      <point x="399" y="581" type="curve"/>
      <point x="389" y="577" type="line"/>
      <point x="265" y="630"/>
      <point x="186" y="707"/>
      <point x="186" y="807" type="curve" smooth="yes"/>
      <point x="186" y="904"/>
      <point x="263" y="994"/>
      <point x="465" y="994" type="curve" smooth="yes"/>
      <point x="821" y="994" type="line"/>
      <point x="782" y="955" type="line"/>
    </contour>
    <contour>
      <point x="1152" y="1198" type="line"/>
      <point x="-30" y="1198" type="line"/>
      <point x="-30" y="1274" type="line"/>
      <point x="1152" y="1274" type="line"/>
    </contour>
    <contour>
      <point x="40.0" y="-30.0" type="move" name="x89"/>
    </contour>
    <contour>
      <point x="782.0" y="1274.0" type="move" name="top"/>
    </contour>
    <contour>
      <point x="558.0" y="-455.0" type="move" name="btm"/>
    </contour>
  </outline>
</glyph>
<glyph name="dddha2deva" format="1">
  <advance width="1122"/>
  <outline>
    <component base="nuktadeva" xOffset="937" yOffset="200"/>
    <component base="ddadeva"/>
    <contour>
      <point x="536.0" y="75.0" type="move" name="btm"/>
    </contour>
    <contour>
      <point x="782.0" y="1274.0" type="move" name="top"/>
    </contour>
  </outline>
</glyph>
<glyph name="ddhaddhadeva" format="1">
  <advance width="1095"/>
  <outline>
    <contour>
      <point x="1125" y="1198" type="line"/>
      <point x="-30" y="1198" type="line"/>
      <point x="-30" y="1274" type="line"/>
      <point x="1125" y="1274" type="line"/>
    </contour>
    <contour>
      <point x="756" y="1228" type="line"/>
      <point x="845" y="1228" type="line"/>
      <point x="845" y="905" type="line"/>
      <point x="590" y="905" type="line" smooth="yes"/>
      <point x="354" y="905"/>
      <point x="234" y="813"/>
      <point x="234" y="661" type="curve" smooth="yes"/>
      <point x="234" y="498"/>
      <point x="401" y="375"/>
      <point x="633" y="375" type="curve" smooth="yes"/>
      <point x="839" y="375"/>
      <point x="922" y="441"/>
      <point x="922" y="517" type="curve" smooth="yes"/>
      <point x="922" y="581"/>
      <point x="865" y="633"/>
      <point x="768" y="633" type="curve" smooth="yes"/>
      <point x="665" y="633"/>
      <point x="609" y="582"/>
      <point x="609" y="492" type="curve" smooth="yes"/>
      <point x="609" y="440"/>
      <point x="629" y="395"/>
      <point x="667" y="356" type="curve"/>
      <point x="586" y="350" type="line"/>
      <point x="551" y="392"/>
      <point x="531" y="450"/>
      <point x="531" y="507" type="curve" smooth="yes"/>
      <point x="531" y="631"/>
      <point x="621" y="708"/>
      <point x="761" y="708" type="curve" smooth="yes"/>
      <point x="896" y="708"/>
      <point x="998" y="632"/>
      <point x="998" y="507" type="curve" smooth="yes"/>
      <point x="998" y="387"/>
      <point x="860" y="302"/>
      <point x="652" y="302" type="curve" smooth="yes"/>
      <point x="336" y="302"/>
      <point x="151" y="461"/>
      <point x="151" y="680" type="curve" smooth="yes"/>
      <point x="151" y="851"/>
      <point x="308" y="981"/>
      <point x="551" y="981" type="curve" smooth="yes"/>
      <point x="797" y="981" type="line"/>
      <point x="756" y="947" type="line"/>
    </contour>
    <contour>
      <point x="704" y="324" type="line"/>
      <point x="793" y="324" type="line"/>
      <point x="793" y="71" type="line"/>
      <point x="561" y="71" type="line" smooth="yes"/>
      <point x="315" y="71"/>
      <point x="230" y="-24"/>
      <point x="230" y="-154" type="curve" smooth="yes"/>
      <point x="230" y="-287"/>
      <point x="372" y="-389"/>
      <point x="604" y="-389" type="curve" smooth="yes"/>
      <point x="790" y="-389"/>
      <point x="867" y="-318"/>
      <point x="867" y="-250" type="curve" smooth="yes"/>
      <point x="867" y="-194"/>
      <point x="822" y="-141"/>
      <point x="725" y="-141" type="curve" smooth="yes"/>
      <point x="622" y="-141"/>
      <point x="570" y="-201"/>
      <point x="570" y="-270" type="curve" smooth="yes"/>
      <point x="570" y="-319"/>
      <point x="585" y="-364"/>
      <point x="622" y="-408" type="curve"/>
      <point x="548" y="-414" type="line"/>
      <point x="517" y="-371"/>
      <point x="495" y="-323"/>
      <point x="495" y="-261" type="curve" smooth="yes"/>
      <point x="495" y="-158"/>
      <point x="580" y="-67"/>
      <point x="720" y="-67" type="curve" smooth="yes"/>
      <point x="855" y="-67"/>
      <point x="940" y="-149"/>
      <point x="940" y="-257" type="curve" smooth="yes"/>
      <point x="940" y="-369"/>
      <point x="820" y="-462"/>
      <point x="623" y="-462" type="curve" smooth="yes"/>
      <point x="327" y="-462"/>
      <point x="150" y="-334"/>
      <point x="150" y="-135" type="curve" smooth="yes"/>
      <point x="150" y="16"/>
      <point x="277" y="147"/>
      <point x="522" y="147" type="curve" smooth="yes"/>
      <point x="745" y="147" type="line"/>
      <point x="704" y="113" type="line"/>
    </contour>
    <contour>
      <point x="743.0" y="1274.0" type="move" name="top"/>
    </contour>
    <contour>
      <point x="558.0" y="-455.0" type="move" name="btm"/>
    </contour>
  </outline>
</glyph>
<glyph name="dhaprehalfdeva" format="1">
  <advance width="855"/>
  <outline>
    <contour>
      <point x="661" y="723" type="line"/>
      <point x="651" y="723" type="line" smooth="yes"/>
      <point x="408" y="723"/>
      <point x="336" y="603"/>
      <point x="336" y="493" type="curve" smooth="yes"/>
      <point x="336" y="382"/>
      <point x="434" y="294"/>
      <point x="566" y="294" type="curve" smooth="yes"/>
      <point x="720" y="294"/>
      <point x="880" y="365"/>
      <point x="1033" y="558" type="curve"/>
      <point x="1070" y="490" type="line"/>
      <point x="899" y="286"/>
      <point x="747" y="217"/>
      <point x="583" y="217" type="curve" smooth="yes"/>
      <point x="392" y="217"/>
      <point x="256" y="335"/>
      <point x="256" y="507" type="curve" smooth="yes"/>
      <point x="256" y="640"/>
      <point x="356" y="794"/>
      <point x="625" y="794" type="curve" smooth="yes"/>
      <point x="638" y="794" type="line"/>
    </contour>
    <contour>
      <point x="400" y="701" type="curve"/>
      <point x="165" y="752"/>
      <point x="34" y="897"/>
      <point x="34" y="1075" type="curve" smooth="yes"/>
      <point x="34" y="1224"/>
      <point x="139" y="1337"/>
      <point x="288" y="1337" type="curve" smooth="yes"/>
      <point x="420" y="1337"/>
      <point x="492" y="1251"/>
      <point x="492" y="1150" type="curve" smooth="yes"/>
      <point x="492" y="1046"/>
      <point x="388" y="919"/>
      <point x="156" y="894" type="curve"/>
      <point x="112" y="956" type="line"/>
      <point x="331" y="980"/>
      <point x="419" y="1077"/>
      <point x="419" y="1157" type="curve" smooth="yes"/>
      <point x="419" y="1218"/>
      <point x="372" y="1262"/>
      <point x="297" y="1262" type="curve" smooth="yes"/>
      <point x="184" y="1262"/>
      <point x="109" y="1173"/>
      <point x="109" y="1065" type="curve" smooth="yes"/>
      <point x="109" y="916"/>
      <point x="228" y="797"/>
      <point x="483" y="757" type="curve"/>
      <point x="483" y="757"/>
      <point x="400" y="701"/>
    </contour>
  </outline>
</glyph>
<glyph name="ecandravowelsignrephdeva" format="1">
  <advance width="0"/>
  <outline>
    <component base="ecandravowelsigndeva" xOffset="-580"/>
    <component base="rephdeva"/>
    <contour>
      <point x="-342" y="1274" type="move" name="_top"/>
    </contour>
  </outline>
</glyph>
<glyph name="evowelsignanusvaradeva" format="1">
  <advance width="0"/>
  <outline>
    <component base="evowelsigndeva"/>
    <component base="anusvaradeva" xOffset="69"/>
    <contour>
      <point x="-342.0" y="1274.0" type="move" name="_top"/>
    </contour>
  </outline>
</glyph>
<glyph name="garadeva" format="1">
  <advance width="1183"/>
  <outline>
    <contour>
      <point x="1213" y="1198" type="line"/>
      <point x="1213" y="1198"/>
      <point x="-30" y="1198"/>
      <point x="-30" y="1198" type="curve"/>
      <point x="-30" y="1274" type="line"/>
      <point x="-30" y="1274"/>
      <point x="1213" y="1274"/>
      <point x="1213" y="1274" type="curve"/>
    </contour>
    <contour>
      <point x="901" y="473" type="line"/>
      <point x="303" y="-25" type="line"/>
      <point x="247" y="37" type="line"/>
      <point x="852" y="539" type="line"/>
    </contour>
    <contour>
      <point x="384" y="1238" type="line"/>
      <point x="384" y="1238"/>
      <point x="384" y="483"/>
      <point x="384" y="483" type="curve" smooth="yes"/>
      <point x="384" y="454"/>
      <point x="375" y="444"/>
      <point x="346" y="444" type="curve" smooth="yes"/>
      <point x="308" y="444"/>
      <point x="171" y="599"/>
      <point x="171" y="639" type="curve" smooth="yes"/>
      <point x="171" y="660"/>
      <point x="181" y="674"/>
      <point x="216" y="674" type="curve" smooth="yes"/>
      <point x="322" y="674" type="line"/>
      <point x="295" y="645" type="line"/>
      <point x="295" y="1238" type="line"/>
    </contour>
    <contour>
      <point x="844" y="1226" type="line"/>
      <point x="933" y="1226" type="line"/>
      <point x="933" y="0" type="line"/>
      <point x="844" y="0" type="line"/>
    </contour>
    <contour>
      <point x="826" y="-30" type="move" name="x25"/>
    </contour>
    <contour>
      <point x="826" y="-30" type="move" name="mark0"/>
    </contour>
    <contour>
      <point x="844" y="1274" type="move" name="top"/>
    </contour>
  </outline>
</glyph>
<glyph name="ghaprehalfdeva" format="1">
  <advance width="879.0"/>
  <outline>
    <contour>
      <point x="-30" y="1198" type="curve"/>
      <point x="-30" y="1274" type="line"/>
      <point x="909" y="1274" type="line"/>
      <point x="909" y="1198" type="line"/>
      <point x="909" y="1198"/>
      <point x="-30" y="1198"/>
    </contour>
    <contour>
      <point x="698" y="754" type="line"/>
      <point x="683" y="754" type="line" smooth="yes"/>
      <point x="454" y="754"/>
      <point x="369" y="643"/>
      <point x="369" y="513" type="curve" smooth="yes"/>
      <point x="369" y="401"/>
      <point x="459" y="304"/>
      <point x="600" y="304" type="curve" smooth="yes"/>
      <point x="775" y="304"/>
      <point x="917" y="386"/>
      <point x="1058" y="558" type="curve"/>
      <point x="1095" y="490" type="line"/>
      <point x="955" y="323"/>
      <point x="796" y="227"/>
      <point x="617" y="227" type="curve" smooth="yes"/>
      <point x="416" y="227"/>
      <point x="289" y="357"/>
      <point x="289" y="525" type="curve" smooth="yes"/>
      <point x="289" y="673"/>
      <point x="395" y="825"/>
      <point x="661" y="825" type="curve" smooth="yes"/>
      <point x="675" y="825" type="line"/>
    </contour>
    <contour>
      <point x="419" y="730" type="curve"/>
      <point x="192" y="784"/>
      <point x="102" y="935"/>
      <point x="102" y="1075" type="curve" smooth="yes"/>
      <point x="102" y="1134"/>
      <point x="118" y="1190"/>
      <point x="150" y="1249" type="curve"/>
      <point x="242" y="1232" type="line"/>
      <point x="204" y="1178"/>
      <point x="186" y="1121"/>
      <point x="186" y="1063" type="curve" smooth="yes"/>
      <point x="186" y="952"/>
      <point x="269" y="825"/>
      <point x="503" y="790" type="curve"/>
      <point x="503" y="790"/>
      <point x="419" y="730"/>
    </contour>
  </outline>
</glyph>
<glyph name="haladeva" format="1">
  <advance width="1347"/>
  <outline>
    <contour>
      <point x="1106" y="383" type="line"/>
      <point x="1106" y="294" type="line"/>
      <point x="857" y="83" type="line"/>
      <point x="804" y="135" type="line"/>
    </contour>
    <contour>
      <point x="993" y="238" type="curve"/>
      <point x="944" y="193" type="line"/>
      <point x="872" y="268"/>
      <point x="825" y="293"/>
      <point x="763" y="293" type="curve" smooth="yes"/>
      <point x="695" y="293"/>
      <point x="649" y="242"/>
      <point x="648" y="185" type="curve" smooth="yes"/>
      <point x="647" y="116"/>
      <point x="676" y="58"/>
      <point x="782" y="-23" type="curve"/>
      <point x="727" y="-66" type="line"/>
      <point x="624" y="20"/>
      <point x="573" y="94"/>
      <point x="573" y="192" type="curve" smooth="yes"/>
      <point x="573" y="287"/>
      <point x="647" y="366"/>
      <point x="752" y="366" type="curve" smooth="yes"/>
      <point x="846" y="366"/>
      <point x="911" y="326"/>
    </contour>
    <contour>
      <point x="697" y="641" type="curve" smooth="yes"/>
      <point x="998" y="641"/>
      <point x="1164" y="478"/>
      <point x="1164" y="259" type="curve" smooth="yes"/>
      <point x="1164" y="-136" type="line"/>
      <point x="1079" y="-136" type="line"/>
      <point x="1079" y="271" type="line" smooth="yes"/>
      <point x="1079" y="435"/>
      <point x="951" y="561"/>
      <point x="702" y="561" type="curve" smooth="yes"/>
      <point x="439" y="561"/>
      <point x="330" y="417"/>
      <point x="330" y="260" type="curve" smooth="yes"/>
      <point x="330" y="93"/>
      <point x="444" y="-78"/>
      <point x="692" y="-236" type="curve"/>
      <point x="640" y="-295" type="line"/>
      <point x="379" y="-119"/>
      <point x="248" y="63"/>
      <point x="248" y="272" type="curve" smooth="yes"/>
      <point x="248" y="462"/>
      <point x="385" y="641"/>
    </contour>
    <contour>
      <point x="1377" y="1198" type="line"/>
      <point x="-30" y="1198" type="line"/>
      <point x="-30" y="1274" type="line"/>
      <point x="1377" y="1274" type="line"/>
    </contour>
    <contour>
      <point x="1009" y="1238" type="line"/>
      <point x="1098" y="1238" type="line"/>
      <point x="1098" y="875" type="line"/>
      <point x="405" y="875" type="line" smooth="yes"/>
      <point x="261" y="875"/>
      <point x="207" y="811"/>
      <point x="207" y="730" type="curve" smooth="yes"/>
      <point x="207" y="650"/>
      <point x="258" y="576"/>
      <point x="388" y="534" type="curve"/>
      <point x="347" y="467" type="line"/>
      <point x="191" y="538"/>
      <point x="129" y="638"/>
      <point x="129" y="745" type="curve" smooth="yes"/>
      <point x="129" y="857"/>
      <point x="211" y="951"/>
      <point x="407" y="951" type="curve" smooth="yes"/>
      <point x="1048" y="951" type="line"/>
      <point x="1009" y="912" type="line"/>
    </contour>
    <contour>
      <point x="1079" y="-136" type="move" name="btm"/>
    </contour>
    <contour>
      <point x="1018" y="1274" type="move" name="top"/>
    </contour>
  </outline>
</glyph>
<glyph name="hamadeva" format="1">
  <advance width="1620.0"/>
  <outline>
    <contour>
      <point x="301" y="260" type="curve" smooth="yes"/>
      <point x="301" y="93"/>
      <point x="415" y="-78"/>
      <point x="663" y="-236" type="curve"/>
      <point x="611" y="-295" type="line"/>
      <point x="350" y="-119"/>
      <point x="219" y="63"/>
      <point x="219" y="272" type="curve" smooth="yes"/>
      <point x="219" y="462"/>
      <point x="364" y="621"/>
      <point x="588" y="621" type="curve" smooth="yes"/>
      <point x="839" y="621"/>
      <point x="952" y="448"/>
      <point x="952" y="269" type="curve" smooth="yes"/>
      <point x="952" y="169" type="line"/>
      <point x="920" y="193" type="line"/>
      <point x="1349" y="193" type="line"/>
      <point x="1349" y="117" type="line"/>
      <point x="922" y="117" type="line"/>
      <point x="952" y="138" type="line"/>
      <point x="952" y="1" type="line" smooth="yes"/>
      <point x="952" y="-25"/>
      <point x="942" y="-39"/>
      <point x="922" y="-39" type="curve" smooth="yes"/>
      <point x="901" y="-39"/>
      <point x="866" y="-17"/>
      <point x="826" y="23" type="curve" smooth="yes"/>
      <point x="774" y="75"/>
      <point x="739" y="130"/>
      <point x="739" y="157" type="curve" smooth="yes"/>
      <point x="739" y="179"/>
      <point x="751" y="192"/>
      <point x="785" y="192" type="curve" smooth="yes"/>
      <point x="890" y="192" type="line"/>
      <point x="863" y="163" type="line"/>
      <point x="863" y="281" type="line" smooth="yes"/>
      <point x="863" y="405"/>
      <point x="791" y="541"/>
      <point x="592" y="541" type="curve" smooth="yes"/>
      <point x="417" y="541"/>
      <point x="301" y="417"/>
    </contour>
    <contour>
      <point x="806" y="1238" type="line"/>
      <point x="895" y="1238" type="line"/>
      <point x="895" y="875" type="line"/>
      <point x="402" y="875" type="line" smooth="yes"/>
      <point x="268" y="875"/>
      <point x="209" y="809"/>
      <point x="209" y="731" type="curve" smooth="yes"/>
      <point x="209" y="643"/>
      <point x="271" y="578"/>
      <point x="370" y="541" type="curve"/>
      <point x="339" y="472" type="line"/>
      <point x="203" y="533"/>
      <point x="131" y="639"/>
      <point x="131" y="739" type="curve" smooth="yes"/>
      <point x="131" y="858"/>
      <point x="212" y="951"/>
      <point x="412" y="951" type="curve" smooth="yes"/>
      <point x="845" y="951" type="line"/>
      <point x="806" y="912" type="line"/>
    </contour>
    <contour>
      <point x="-30" y="1198" type="line"/>
      <point x="-30" y="1274" type="line"/>
      <point x="1650" y="1274" type="line"/>
      <point x="1650" y="1198" type="line"/>
    </contour>
    <contour>
      <point x="1291" y="1207" type="line"/>
      <point x="1380" y="1207" type="line"/>
      <point x="1380" y="-240" type="line"/>
      <point x="1291" y="-240" type="line"/>
    </contour>
    <contour>
      <point x="1291.0" y="1274.0" type="move" name="top"/>
    </contour>
    <contour>
      <point x="1291" y="-240" type="move" name="btm"/>
    </contour>
  </outline>
</glyph>
<glyph name="hanadeva" format="1">
  <advance width="1297"/>
  <outline>
    <contour>
      <point x="1064" y="320" type="line"/>
      <point x="1064" y="244" type="line"/>
      <point x="692" y="244" type="line"/>
      <point x="742" y="295" type="line"/>
      <point x="742" y="77" type="line" smooth="yes"/>
      <point x="742" y="45"/>
      <point x="728" y="32"/>
      <point x="710" y="32" type="curve" smooth="yes"/>
      <point x="701" y="32"/>
      <point x="690" y="37"/>
      <point x="683" y="44" type="curve" smooth="yes"/>
      <point x="648" y="79"/>
      <point x="604" y="200"/>
      <point x="604" y="267" type="curve" smooth="yes"/>
      <point x="604" y="299"/>
      <point x="624" y="320"/>
      <point x="660" y="320" type="curve" smooth="yes"/>
    </contour>
    <contour>
      <point x="677" y="641" type="curve" smooth="yes"/>
      <point x="978" y="641"/>
      <point x="1114" y="478"/>
      <point x="1114" y="259" type="curve" smooth="yes"/>
      <point x="1114" y="-136" type="line"/>
      <point x="1029" y="-136" type="line"/>
      <point x="1029" y="271" type="line" smooth="yes"/>
      <point x="1029" y="435"/>
      <point x="931" y="561"/>
      <point x="682" y="561" type="curve" smooth="yes"/>
      <point x="429" y="561"/>
      <point x="330" y="417"/>
      <point x="330" y="260" type="curve" smooth="yes"/>
      <point x="330" y="93"/>
      <point x="444" y="-78"/>
      <point x="692" y="-236" type="curve"/>
      <point x="640" y="-295" type="line"/>
      <point x="379" y="-119"/>
      <point x="248" y="63"/>
      <point x="248" y="272" type="curve" smooth="yes"/>
      <point x="248" y="462"/>
      <point x="375" y="641"/>
    </contour>
    <contour>
      <point x="1327" y="1198" type="line"/>
      <point x="-30" y="1198" type="line"/>
      <point x="-30" y="1274" type="line"/>
      <point x="1327" y="1274" type="line"/>
    </contour>
    <contour>
      <point x="959" y="1238" type="line"/>
      <point x="1048" y="1238" type="line"/>
      <point x="1048" y="875" type="line"/>
      <point x="405" y="875" type="line" smooth="yes"/>
      <point x="261" y="875"/>
      <point x="207" y="811"/>
      <point x="207" y="730" type="curve" smooth="yes"/>
      <point x="207" y="650"/>
      <point x="258" y="576"/>
      <point x="388" y="534" type="curve"/>
      <point x="347" y="467" type="line"/>
      <point x="191" y="538"/>
      <point x="129" y="638"/>
      <point x="129" y="745" type="curve" smooth="yes"/>
      <point x="129" y="857"/>
      <point x="211" y="951"/>
      <point x="407" y="951" type="curve" smooth="yes"/>
      <point x="998" y="951" type="line"/>
      <point x="959" y="912" type="line"/>
    </contour>
    <contour>
      <point x="1029" y="-136" type="move" name="btm"/>
    </contour>
    <contour>
      <point x="1018" y="1274" type="move" name="top"/>
    </contour>
  </outline>
</glyph>
<glyph name="hannadeva" format="1">
  <advance width="1347"/>
  <outline>
    <contour>
      <point x="828" y="565" type="line"/>
      <point x="913" y="565" type="line"/>
      <point x="913" y="237" type="line" smooth="yes"/>
      <point x="913" y="114"/>
      <point x="847" y="28"/>
      <point x="733" y="28" type="curve" smooth="yes"/>
      <point x="612" y="28"/>
      <point x="541" y="106"/>
      <point x="541" y="264" type="curve" smooth="yes"/>
      <point x="541" y="565" type="line"/>
      <point x="626" y="565" type="line"/>
      <point x="626" y="227" type="line" smooth="yes"/>
      <point x="626" y="148"/>
      <point x="662" y="106"/>
      <point x="721" y="106" type="curve" smooth="yes"/>
      <point x="785" y="106"/>
      <point x="828" y="154"/>
      <point x="828" y="235" type="curve" smooth="yes"/>
    </contour>
    <contour>
      <point x="697" y="641" type="curve" smooth="yes"/>
      <point x="998" y="641"/>
      <point x="1164" y="478"/>
      <point x="1164" y="259" type="curve" smooth="yes"/>
      <point x="1164" y="-136" type="line"/>
      <point x="1079" y="-136" type="line"/>
      <point x="1079" y="271" type="line" smooth="yes"/>
      <point x="1079" y="435"/>
      <point x="951" y="561"/>
      <point x="702" y="561" type="curve" smooth="yes"/>
      <point x="439" y="561"/>
      <point x="330" y="417"/>
      <point x="330" y="260" type="curve" smooth="yes"/>
      <point x="330" y="93"/>
      <point x="444" y="-78"/>
      <point x="692" y="-236" type="curve"/>
      <point x="640" y="-295" type="line"/>
      <point x="379" y="-119"/>
      <point x="248" y="63"/>
      <point x="248" y="272" type="curve" smooth="yes"/>
      <point x="248" y="462"/>
      <point x="385" y="641"/>
    </contour>
    <contour>
      <point x="1377" y="1198" type="line"/>
      <point x="-30" y="1198" type="line"/>
      <point x="-30" y="1274" type="line"/>
      <point x="1377" y="1274" type="line"/>
    </contour>
    <contour>
      <point x="1009" y="1238" type="line"/>
      <point x="1098" y="1238" type="line"/>
      <point x="1098" y="875" type="line"/>
      <point x="405" y="875" type="line" smooth="yes"/>
      <point x="261" y="875"/>
      <point x="207" y="811"/>
      <point x="207" y="730" type="curve" smooth="yes"/>
      <point x="207" y="650"/>
      <point x="258" y="576"/>
      <point x="388" y="534" type="curve"/>
      <point x="347" y="467" type="line"/>
      <point x="191" y="538"/>
      <point x="129" y="638"/>
      <point x="129" y="745" type="curve" smooth="yes"/>
      <point x="129" y="857"/>
      <point x="211" y="951"/>
      <point x="407" y="951" type="curve" smooth="yes"/>
      <point x="1048" y="951" type="line"/>
      <point x="1009" y="912" type="line"/>
    </contour>
    <contour>
      <point x="1099" y="-166" type="move" name="btm"/>
    </contour>
    <contour>
      <point x="1018" y="1274" type="move" name="top"/>
    </contour>
  </outline>
</glyph>
<glyph name="haradeva" format="1">
  <advance width="1144.0"/>
  <outline>
    <contour>
      <point x="869" y="517" type="line"/>
      <point x="573" y="149" type="line"/>
      <point x="506" y="196" type="line"/>
      <point x="804" y="564" type="line"/>
    </contour>
    <component base="hadeva"/>
    <contour>
      <point x="806" y="1274" type="move" name="top"/>
    </contour>
  </outline>
</glyph>
<glyph name="haraudeva" format="1">
  <advance width="1144.0"/>
  <outline>
    <contour>
      <point x="869" y="517" type="line"/>
      <point x="573" y="149" type="line"/>
      <point x="506" y="196" type="line"/>
      <point x="804" y="564" type="line"/>
    </contour>
    <contour>
      <point x="806" y="1238" type="line"/>
      <point x="895" y="1238" type="line"/>
      <point x="895" y="875" type="line"/>
      <point x="402" y="875" type="line" smooth="yes"/>
      <point x="268" y="875"/>
      <point x="209" y="809"/>
      <point x="209" y="731" type="curve" smooth="yes"/>
      <point x="209" y="634"/>
      <point x="280" y="570"/>
      <point x="390" y="534" type="curve"/>
      <point x="347" y="468" type="line"/>
      <point x="211" y="528"/>
      <point x="131" y="629"/>
      <point x="131" y="739" type="curve" smooth="yes"/>
      <point x="131" y="858"/>
      <point x="212" y="951"/>
      <point x="412" y="951" type="curve" smooth="yes"/>
      <point x="845" y="951" type="line"/>
      <point x="806" y="912" type="line"/>
    </contour>
    <contour>
      <point x="618" y="621" type="curve" smooth="yes"/>
      <point x="843" y="621"/>
      <point x="976" y="498"/>
      <point x="976" y="339" type="curve" smooth="yes"/>
      <point x="976" y="262"/>
      <point x="950" y="191"/>
      <point x="913" y="133" type="curve"/>
      <point x="839" y="160" type="line"/>
      <point x="876" y="211"/>
      <point x="897" y="275"/>
      <point x="897" y="338" type="curve" smooth="yes"/>
      <point x="897" y="443"/>
      <point x="805" y="540"/>
      <point x="622" y="541" type="curve" smooth="yes"/>
      <point x="437" y="542"/>
      <point x="331" y="417"/>
      <point x="331" y="260" type="curve" smooth="yes"/>
      <point x="331" y="70"/>
      <point x="484" y="-45"/>
      <point x="719" y="-93" type="curve"/>
      <point x="696" y="-167" type="line"/>
      <point x="455" y="-123"/>
      <point x="249" y="20"/>
      <point x="249" y="272" type="curve" smooth="yes"/>
      <point x="249" y="462"/>
      <point x="384" y="621"/>
    </contour>
    <contour>
      <point x="1174" y="1198" type="line"/>
      <point x="-30" y="1198" type="line"/>
      <point x="-30" y="1274" type="line"/>
      <point x="1174" y="1274" type="line"/>
    </contour>
    <component base="uvowelsigndeva" xOffset="963" yOffset="-103"/>
  </outline>
</glyph>
